v 0.000000 0.000000 0.000000
v 0.083333 0.000000 0.000000
v 0.166667 0.000000 0.000000
v 0.250000 0.000000 0.000000
v 0.333333 0.000000 0.000000
v 0.416667 0.000000 0.000000
v 0.500000 0.000000 0.000000
v 0.583333 0.000000 0.000000
v 0.666667 0.000000 0.000000
v 0.750000 0.000000 0.000000
v 0.833333 0.000000 0.000000
v 0.916667 0.000000 0.000000
v 1.000000 0.000000 0.000000
v 0.000000 0.083333 0.000000
v 0.084839 0.097394 0.004395
v 0.166592 0.092426 -0.039832
v 0.245699 0.083610 -0.010863
v 0.347532 0.094434 0.023831
v 0.419733 0.082490 -0.028465
v 0.494073 0.096609 -0.008803
v 0.580851 0.077539 -0.018340
v 0.657524 0.073715 0.030677
v 0.749613 0.092903 0.032276
v 0.835895 0.093561 -0.016846
v 0.909740 0.069990 0.035819
v 1.000000 0.083333 0.000000
v 0.000000 0.166667 0.000000
v 0.084871 0.179786 0.011213
v 0.172430 0.155146 0.014408
v 0.256889 0.165304 0.020880
v 0.337170 0.178309 0.034959
v 0.413853 0.174070 -0.006886
v 0.505862 0.174519 0.044104
v 0.588043 0.166738 -0.008596
v 0.652468 0.175695 -0.031003
v 0.739242 0.171143 -0.037356
v 0.822320 0.176021 -0.003919
v 0.913760 0.152162 -0.032789
v 1.000000 0.166667 0.000000
v 0.000000 0.250000 0.000000
v 0.097536 0.264517 -0.002772
v 0.174590 0.264545 0.010868
v 0.235962 0.259710 0.028130
v 0.336454 0.264430 0.010252
v 0.414328 0.263937 -0.039929
v 0.513546 0.260806 -0.042027
v 0.583620 0.258520 -0.001824
v 0.665801 0.235566 0.002109
v 0.737720 0.251801 0.032795
v 0.841298 0.256545 0.011492
v 0.927855 0.250106 0.000011
v 1.000000 0.250000 0.000000
v 0.000000 0.333333 0.000000
v 0.073911 0.344364 0.013733
v 0.158741 0.327519 -0.023207
v 0.262055 0.318999 -0.040757
v 0.324715 0.332696 -0.042601
v 0.414166 0.339617 0.022038
v 0.487359 0.320935 -0.024089
v 0.595335 0.340658 0.037459
v 0.662258 0.321256 0.039886
v 0.751428 0.333097 -0.006760
v 0.828067 0.341852 0.028794
v 0.913718 0.329176 0.044818
v 1.000000 0.333333 0.000000
v 0.000000 0.416667 0.000000
v 0.071979 0.423267 -0.005100
v 0.155852 0.412060 -0.033073
v 0.249865 0.431150 -0.025777
v 0.328789 0.427169 0.019075
v 0.417484 0.404943 0.030749
v 0.513605 0.426818 -0.023355
v 0.587616 0.409977 0.019465
v 0.661637 0.424453 0.039310
v 0.752854 0.431145 -0.033383
v 0.835538 0.430579 0.022818
v 0.903235 0.428776 -0.016187
v 1.000000 0.416667 0.000000
v 0.000000 0.500000 0.000000
v 0.070168 0.511985 -0.003034
v 0.166557 0.493798 -0.000526
v 0.246885 0.489770 0.015647
v 0.342598 0.493346 -0.024123
v 0.407706 0.496605 0.003563
v 0.504152 0.491608 0.041234
v 0.572628 0.514688 -0.040651
v 0.679701 0.487636 -0.005504
v 0.749570 0.504301 -0.005995
v 0.820314 0.493381 -0.013541
v 0.904634 0.496105 -0.006709
v 1.000000 0.500000 0.000000
v 0.000000 0.583333 0.000000
v 0.073942 0.593722 0.031388
v 0.152941 0.596797 0.021775
v 0.263494 0.579432 -0.009143
v 0.346949 0.596579 -0.024461
v 0.419718 0.594623 -0.037750
v 0.514550 0.575538 -0.037352
v 0.577934 0.588247 -0.044917
v 0.678982 0.597450 -0.039327
v 0.735537 0.579119 0.037117
v 0.844953 0.590979 0.039556
v 0.907690 0.586762 0.006674
v 1.000000 0.583333 0.000000
v 0.000000 0.666667 0.000000
v 0.095532 0.654836 0.004076
v 0.169794 0.661907 0.008004
v 0.254739 0.677131 0.040177
v 0.329327 0.675972 -0.011038
v 0.419717 0.652321 0.029719
v 0.506919 0.652968 -0.015520
v 0.587535 0.658482 0.006260
v 0.658009 0.675335 0.043516
v 0.745628 0.655314 -0.039246
v 0.820575 0.680055 0.025622
v 0.905392 0.657037 -0.000382
v 1.000000 0.666667 0.000000
v 0.000000 0.750000 0.000000
v 0.072269 0.741642 -0.000431
v 0.156501 0.756721 -0.035492
v 0.253114 0.753240 0.023040
v 0.336343 0.737857 0.024896
v 0.430542 0.762242 -0.015931
v 0.490291 0.754925 0.013046
v 0.597109 0.760732 -0.014666
v 0.652432 0.755960 -0.033996
v 0.749800 0.746968 0.044958
v 0.847154 0.744076 0.004392
v 0.913195 0.736231 0.036035
v 1.000000 0.750000 0.000000
v 0.000000 0.833333 0.000000
v 0.079435 0.833042 -0.021523
v 0.165592 0.831461 -0.007737
v 0.264860 0.839075 0.030467
v 0.346660 0.829033 0.004762
v 0.401893 0.826086 -0.033602
v 0.507192 0.820311 -0.039531
v 0.593123 0.846634 -0.019225
v 0.681512 0.845374 -0.037740
v 0.744477 0.823180 0.008703
v 0.826864 0.841748 -0.041879
v 0.917718 0.840861 0.023784
v 1.000000 0.833333 0.000000
v 0.000000 0.916667 0.000000
v 0.081695 0.905860 -0.015026
v 0.171530 0.910472 -0.013620
v 0.240943 0.902464 -0.002579
v 0.338905 0.906645 -0.027172
v 0.426956 0.923527 0.034366
v 0.485506 0.924767 -0.037248
v 0.575644 0.909145 0.014148
v 0.679722 0.902615 -0.038670
v 0.759062 0.904835 0.000773
v 0.822491 0.903105 0.039681
v 0.920840 0.903058 -0.019401
v 1.000000 0.916667 0.000000
v 0.000000 1.000000 0.000000
v 0.083333 1.000000 0.000000
v 0.166667 1.000000 0.000000
v 0.250000 1.000000 0.000000
v 0.333333 1.000000 0.000000
v 0.416667 1.000000 0.000000
v 0.500000 1.000000 0.000000
v 0.583333 1.000000 0.000000
v 0.666667 1.000000 0.000000
v 0.750000 1.000000 0.000000
v 0.833333 1.000000 0.000000
v 0.916667 1.000000 0.000000
v 1.000000 1.000000 0.000000
f 1 2 15 14
f 2 3 16 15
f 3 4 17 16
f 4 5 18 17
f 5 6 19 18
f 6 7 20 19
f 7 8 21 20
f 8 9 22 21
f 9 10 23 22
f 10 11 24 23
f 11 12 25 24
f 12 13 26 25
f 14 15 28 27
f 15 16 29 28
f 16 17 30 29
f 17 18 31 30
f 18 19 32 31
f 19 20 33 32
f 20 21 34 33
f 21 22 35 34
f 22 23 36 35
f 23 24 37 36
f 24 25 38 37
f 25 26 39 38
f 27 28 41 40
f 28 29 42 41
f 29 30 43 42
f 30 31 44 43
f 31 32 45 44
f 32 33 46 45
f 33 34 47 46
f 34 35 48 47
f 35 36 49 48
f 36 37 50 49
f 37 38 51 50
f 38 39 52 51
f 40 41 54 53
f 41 42 55 54
f 42 43 56 55
f 43 44 57 56
f 44 45 58 57
f 45 46 59 58
f 46 47 60 59
f 47 48 61 60
f 48 49 62 61
f 49 50 63 62
f 50 51 64 63
f 51 52 65 64
f 53 54 67 66
f 54 55 68 67
f 55 56 69 68
f 56 57 70 69
f 57 58 71 70
f 58 59 72 71
f 59 60 73 72
f 60 61 74 73
f 61 62 75 74
f 62 63 76 75
f 63 64 77 76
f 64 65 78 77
f 66 67 80 79
f 67 68 81 80
f 68 69 82 81
f 69 70 83 82
f 70 71 84 83
f 71 72 85 84
f 72 73 86 85
f 73 74 87 86
f 74 75 88 87
f 75 76 89 88
f 76 77 90 89
f 77 78 91 90
f 79 80 93 92
f 80 81 94 93
f 81 82 95 94
f 82 83 96 95
f 83 84 97 96
f 84 85 98 97
f 85 86 99 98
f 86 87 100 99
f 87 88 101 100
f 88 89 102 101
f 89 90 103 102
f 90 91 104 103
f 92 93 106 105
f 93 94 107 106
f 94 95 108 107
f 95 96 109 108
f 96 97 110 109
f 97 98 111 110
f 98 99 112 111
f 99 100 113 112
f 100 101 114 113
f 101 102 115 114
f 102 103 116 115
f 103 104 117 116
f 105 106 119 118
f 106 107 120 119
f 107 108 121 120
f 108 109 122 121
f 109 110 123 122
f 110 111 124 123
f 111 112 125 124
f 112 113 126 125
f 113 114 127 126
f 114 115 128 127
f 115 116 129 128
f 116 117 130 129
f 118 119 132 131
f 119 120 133 132
f 120 121 134 133
f 121 122 135 134
f 122 123 136 135
f 123 124 137 136
f 124 125 138 137
f 125 126 139 138
f 126 127 140 139
f 127 128 141 140
f 128 129 142 141
f 129 130 143 142
f 131 132 145 144
f 132 133 146 145
f 133 134 147 146
f 134 135 148 147
f 135 136 149 148
f 136 137 150 149
f 137 138 151 150
f 138 139 152 151
f 139 140 153 152
f 140 141 154 153
f 141 142 155 154
f 142 143 156 155
f 144 145 158 157
f 145 146 159 158
f 146 147 160 159
f 147 148 161 160
f 148 149 162 161
f 149 150 163 162
f 150 151 164 163
f 151 152 165 164
f 152 153 166 165
f 153 154 167 166
f 154 155 168 167
f 155 156 169 168
