v -0.564642 0.000000 0.825336
v -0.390694 0.012933 0.851922
v -0.225250 0.030020 0.877196
v -0.066192 0.044983 0.901468
v 0.084123 0.058620 0.924373
v 0.223955 0.070573 0.945641
v 0.351361 0.080955 0.964977
v 0.464477 0.089780 0.982106
v 0.561432 0.097104 0.996753
v 0.640370 0.102963 1.008651
v 0.699431 0.107366 1.017534
v 0.736715 0.110316 1.023133
v 0.749978 0.112738 1.025122
v -0.564642 0.120000 0.825336
v -0.397357 0.119012 0.850905
v -0.230554 0.122170 0.876386
v -0.071131 0.126583 0.900716
v 0.079871 0.131298 0.923726
v 0.220193 0.136032 0.945069
v 0.348041 0.140485 0.964474
v 0.461503 0.144493 0.981656
v 0.558734 0.147925 0.996345
v 0.637886 0.150689 1.008276
v 0.697128 0.152716 1.017187
v 0.734612 0.153960 1.022815
v 0.748363 0.154581 1.024877
v -0.564642 0.240000 0.825336
v -0.396829 0.239367 0.850986
v -0.232119 0.238122 0.876148
v -0.072840 0.238286 0.900455
v 0.077779 0.238985 0.923407
v 0.218030 0.240012 0.944740
v 0.345838 0.241154 0.964139
v 0.459335 0.242266 0.981326
v 0.556630 0.243245 0.996025
v 0.635870 0.244027 1.007969
v 0.695197 0.244583 1.016893
v 0.732716 0.244915 1.022527
v 0.746582 0.245007 1.024606
v -0.564642 0.360000 0.825336
v -0.395907 0.359270 0.851127
v -0.231442 0.358098 0.876252
v -0.072852 0.357132 0.900454
v 0.077555 0.356709 0.923374
v 0.217572 0.356540 0.944671
v 0.345285 0.356537 0.964055
v 0.458734 0.356597 0.981235
v 0.556036 0.356666 0.995935
v 0.635309 0.356713 1.007884
v 0.694673 0.356736 1.016813
v 0.732223 0.356741 1.022451
v 0.746146 0.356749 1.024539
v -0.564642 0.480000 0.825336
v -0.395246 0.479671 0.851228
v -0.230749 0.478947 0.876358
v -0.072374 0.478310 0.900527
v 0.077792 0.477852 0.923410
v 0.217706 0.477575 0.944691
v 0.345336 0.477388 0.964063
v 0.458758 0.477256 0.981239
v 0.556058 0.477151 0.995938
v 0.635345 0.477064 1.007889
v 0.694721 0.476996 1.016820
v 0.732278 0.476951 1.022459
v 0.746223 0.476930 1.024551
v -0.564642 0.600000 0.825336
v -0.395022 0.600000 0.851262
v -0.230473 0.600000 0.876400
v -0.072166 0.600000 0.900559
v 0.077941 0.600000 0.923433
v 0.217801 0.600000 0.944706
v 0.345414 0.600000 0.964075
v 0.458822 0.600000 0.981249
v 0.556122 0.600000 0.995948
v 0.635412 0.600000 1.007899
v 0.694791 0.600000 1.016830
v 0.732351 0.600000 1.022470
v 0.746305 0.600000 1.024563
v -0.564642 0.720000 0.825336
v -0.395246 0.720329 0.851228
v -0.230749 0.721053 0.876357
v -0.072374 0.721691 0.900527
v 0.077792 0.722148 0.923410
v 0.217706 0.722425 0.944691
v 0.345336 0.722612 0.964063
v 0.458758 0.722744 0.981238
v 0.556058 0.722849 0.995938
v 0.635345 0.722936 1.007888
v 0.694722 0.723004 1.016819
v 0.732278 0.723049 1.022458
v 0.746223 0.723070 1.024550
v -0.564642 0.840000 0.825336
v -0.395907 0.840731 0.851126
v -0.231442 0.841902 0.876251
v -0.072852 0.842868 0.900453
v 0.077555 0.843291 0.923373
v 0.217572 0.843460 0.944670
v 0.345286 0.843464 0.964054
v 0.458734 0.843403 0.981234
v 0.556036 0.843334 0.995934
v 0.635310 0.843287 1.007882
v 0.694674 0.843264 1.016812
v 0.732223 0.843259 1.022450
v 0.746145 0.843251 1.024538
v -0.564642 0.960000 0.825336
v -0.396829 0.960633 0.850985
v -0.232119 0.961878 0.876147
v -0.072841 0.961715 0.900455
v 0.077779 0.961016 0.923407
v 0.218030 0.959989 0.944739
v 0.345838 0.958846 0.964138
v 0.459335 0.957734 0.981325
v 0.556631 0.956755 0.996024
v 0.635871 0.955974 1.007968
v 0.695197 0.955417 1.016891
v 0.732716 0.955085 1.022525
v 0.746581 0.954993 1.024605
v -0.564642 1.080000 0.825336
v -0.397357 1.080988 0.850904
v -0.230555 1.077830 0.876386
v -0.071131 1.073417 0.900715
v 0.079871 1.068703 0.923725
v 0.220193 1.063968 0.945068
v 0.348042 1.059515 0.964473
v 0.461504 1.055507 0.981655
v 0.558735 1.052075 0.996343
v 0.637887 1.049311 1.008274
v 0.697129 1.047284 1.017185
v 0.734612 1.046040 1.022813
v 0.748363 1.045419 1.024875
v -0.564642 1.200000 0.825336
v -0.390694 1.187067 0.851922
v -0.225250 1.169980 0.877195
v -0.066192 1.155017 0.901468
v 0.084123 1.141380 0.924372
v 0.223955 1.129427 0.945640
v 0.351362 1.119045 0.964976
v 0.464478 1.110221 0.982104
v 0.561433 1.102896 0.996751
v 0.640371 1.097037 1.008649
v 0.699432 1.092634 1.017532
v 0.736716 1.089684 1.023131
v 0.749978 1.087262 1.025120
f 1 2 15 14
f 2 3 16 15
f 3 4 17 16
f 4 5 18 17
f 5 6 19 18
f 6 7 20 19
f 7 8 21 20
f 8 9 22 21
f 9 10 23 22
f 10 11 24 23
f 11 12 25 24
f 12 13 26 25
f 14 15 28 27
f 15 16 29 28
f 16 17 30 29
f 17 18 31 30
f 18 19 32 31
f 19 20 33 32
f 20 21 34 33
f 21 22 35 34
f 22 23 36 35
f 23 24 37 36
f 24 25 38 37
f 25 26 39 38
f 27 28 41 40
f 28 29 42 41
f 29 30 43 42
f 30 31 44 43
f 31 32 45 44
f 32 33 46 45
f 33 34 47 46
f 34 35 48 47
f 35 36 49 48
f 36 37 50 49
f 37 38 51 50
f 38 39 52 51
f 40 41 54 53
f 41 42 55 54
f 42 43 56 55
f 43 44 57 56
f 44 45 58 57
f 45 46 59 58
f 46 47 60 59
f 47 48 61 60
f 48 49 62 61
f 49 50 63 62
f 50 51 64 63
f 51 52 65 64
f 53 54 67 66
f 54 55 68 67
f 55 56 69 68
f 56 57 70 69
f 57 58 71 70
f 58 59 72 71
f 59 60 73 72
f 60 61 74 73
f 61 62 75 74
f 62 63 76 75
f 63 64 77 76
f 64 65 78 77
f 66 67 80 79
f 67 68 81 80
f 68 69 82 81
f 69 70 83 82
f 70 71 84 83
f 71 72 85 84
f 72 73 86 85
f 73 74 87 86
f 74 75 88 87
f 75 76 89 88
f 76 77 90 89
f 77 78 91 90
f 79 80 93 92
f 80 81 94 93
f 81 82 95 94
f 82 83 96 95
f 83 84 97 96
f 84 85 98 97
f 85 86 99 98
f 86 87 100 99
f 87 88 101 100
f 88 89 102 101
f 89 90 103 102
f 90 91 104 103
f 92 93 106 105
f 93 94 107 106
f 94 95 108 107
f 95 96 109 108
f 96 97 110 109
f 97 98 111 110
f 98 99 112 111
f 99 100 113 112
f 100 101 114 113
f 101 102 115 114
f 102 103 116 115
f 103 104 117 116
f 105 106 119 118
f 106 107 120 119
f 107 108 121 120
f 108 109 122 121
f 109 110 123 122
f 110 111 124 123
f 111 112 125 124
f 112 113 126 125
f 113 114 127 126
f 114 115 128 127
f 115 116 129 128
f 116 117 130 129
f 118 119 132 131
f 119 120 133 132
f 120 121 134 133
f 121 122 135 134
f 122 123 136 135
f 123 124 137 136
f 124 125 138 137
f 125 126 139 138
f 126 127 140 139
f 127 128 141 140
f 128 129 142 141
f 129 130 143 142
