v -0.564642 0.000000 0.825336
v -0.479426 0.000000 0.877583
v -0.389418 0.000000 0.921061
v -0.295520 0.000000 0.955336
v -0.198669 0.000000 0.980067
v -0.099833 0.000000 0.995004
v 0.000000 0.000000 1.000000
v 0.099833 0.000000 0.995004
v 0.198669 0.000000 0.980067
v 0.295520 0.000000 0.955336
v 0.389418 0.000000 0.921061
v 0.479426 0.000000 0.877583
v 0.564642 0.000000 0.825336
v -0.564642 0.120000 0.825336
v -0.483634 0.115778 0.877775
v -0.391479 0.119960 0.918510
v -0.297632 0.119529 0.957190
v -0.198797 0.118567 0.979620
v -0.098767 0.123351 0.996206
v 0.004803 0.116122 0.998840
v 0.097577 0.118793 0.993419
v 0.202026 0.118796 0.981698
v 0.297160 0.115176 0.959531
v 0.386503 0.115995 0.924179
v 0.480810 0.121447 0.882242
v 0.564642 0.120000 0.825336
v -0.564642 0.240000 0.825336
v -0.475572 0.242601 0.878963
v -0.388038 0.244601 0.925387
v -0.300500 0.239963 0.960249
v -0.199888 0.237408 0.975580
v -0.098797 0.239158 0.991245
v -0.003416 0.239646 1.003171
v 0.095441 0.242738 0.994496
v 0.199763 0.240522 0.980777
v 0.294336 0.238618 0.954978
v 0.386314 0.238194 0.921794
v 0.481621 0.239296 0.874024
v 0.564642 0.240000 0.825336
v -0.564642 0.360000 0.825336
v -0.477602 0.357901 0.881967
v -0.392950 0.358324 0.919700
v -0.299808 0.357010 0.958868
v -0.199638 0.359459 0.976181
v -0.096332 0.359657 0.990477
v -0.003081 0.361948 0.996610
v 0.095994 0.355067 0.990646
v 0.199100 0.355712 0.981731
v 0.296130 0.364996 0.958959
v 0.389677 0.357179 0.920134
v 0.480755 0.360516 0.875148
v 0.564642 0.360000 0.825336
v -0.564642 0.480000 0.825336
v -0.477341 0.481061 0.874339
v -0.388130 0.477775 0.920940
v -0.291102 0.482978 0.959773
v -0.194127 0.478081 0.984619
v -0.102772 0.483414 0.990500
v -0.001764 0.479185 0.995884
v 0.099455 0.483728 0.991528
v 0.197728 0.476213 0.982425
v 0.295643 0.480377 0.955719
v 0.385574 0.482715 0.917312
v 0.480575 0.479524 0.873601
v 0.564642 0.480000 0.825336
v -0.564642 0.600000 0.825336
v -0.474802 0.600795 0.882281
v -0.392934 0.597937 0.921176
v -0.298730 0.595425 0.959284
v -0.200892 0.595219 0.983721
v -0.097512 0.597028 0.996740
v -0.003481 0.601096 1.003378
v 0.096232 0.598724 0.992962
v 0.203535 0.596041 0.982105
v 0.296552 0.603756 0.957843
v 0.390010 0.603230 0.924731
v 0.477124 0.601373 0.882026
v 0.564642 0.600000 0.825336
v -0.564642 0.720000 0.825336
v -0.483783 0.721248 0.880502
v -0.385146 0.717670 0.918460
v -0.297296 0.724126 0.959367
v -0.201913 0.722835 0.982049
v -0.096464 0.715662 0.995498
v -0.002181 0.724969 0.997843
v 0.097994 0.720939 0.998985
v 0.202526 0.718551 0.979746
v 0.291077 0.722845 0.953210
v 0.386085 0.722900 0.916523
v 0.482626 0.721834 0.881565
v 0.564642 0.720000 0.825336
v -0.564642 0.840000 0.825336
v -0.478868 0.837972 0.879227
v -0.389615 0.842995 0.918101
v -0.299761 0.843311 0.960230
v -0.200784 0.835754 0.976969
v -0.100687 0.839528 0.995523
v 0.004130 0.839563 0.998256
v 0.104445 0.842312 0.995217
v 0.199904 0.836138 0.979889
v 0.298820 0.840262 0.958961
v 0.387971 0.839877 0.917566
v 0.483158 0.838447 0.873084
v 0.564642 0.840000 0.825336
v -0.564642 0.960000 0.825336
v -0.478350 0.956170 0.878726
v -0.386803 0.964887 0.922350
v -0.292808 0.964191 0.957175
v -0.199055 0.962940 0.976866
v -0.104511 0.955433 0.997422
v -0.001422 0.960809 1.001130
v 0.096631 0.964083 0.993222
v 0.194057 0.960608 0.980015
v 0.294055 0.963720 0.953508
v 0.385139 0.958234 0.920070
v 0.475860 0.959059 0.875357
v 0.564642 0.960000 0.825336
v -0.564642 1.080000 0.825336
v -0.475114 1.078478 0.881373
v -0.391019 1.079977 0.919590
v -0.295517 1.080761 0.959747
v -0.202711 1.081243 0.981896
v -0.102382 1.076893 0.991460
v -0.004414 1.080110 0.998494
v 0.102111 1.079962 0.993936
v 0.200203 1.080847 0.976875
v 0.292567 1.080184 0.954736
v 0.393276 1.078076 0.919249
v 0.482416 1.084182 0.877377
v 0.564642 1.080000 0.825336
v -0.564642 1.200000 0.825336
v -0.479426 1.200000 0.877583
v -0.389418 1.200000 0.921061
v -0.295520 1.200000 0.955336
v -0.198669 1.200000 0.980067
v -0.099833 1.200000 0.995004
v 0.000000 1.200000 1.000000
v 0.099833 1.200000 0.995004
v 0.198669 1.200000 0.980067
v 0.295520 1.200000 0.955336
v 0.389418 1.200000 0.921061
v 0.479426 1.200000 0.877583
v 0.564642 1.200000 0.825336
f 1 2 15 14
f 2 3 16 15
f 3 4 17 16
f 4 5 18 17
f 5 6 19 18
f 6 7 20 19
f 7 8 21 20
f 8 9 22 21
f 9 10 23 22
f 10 11 24 23
f 11 12 25 24
f 12 13 26 25
f 14 15 28 27
f 15 16 29 28
f 16 17 30 29
f 17 18 31 30
f 18 19 32 31
f 19 20 33 32
f 20 21 34 33
f 21 22 35 34
f 22 23 36 35
f 23 24 37 36
f 24 25 38 37
f 25 26 39 38
f 27 28 41 40
f 28 29 42 41
f 29 30 43 42
f 30 31 44 43
f 31 32 45 44
f 32 33 46 45
f 33 34 47 46
f 34 35 48 47
f 35 36 49 48
f 36 37 50 49
f 37 38 51 50
f 38 39 52 51
f 40 41 54 53
f 41 42 55 54
f 42 43 56 55
f 43 44 57 56
f 44 45 58 57
f 45 46 59 58
f 46 47 60 59
f 47 48 61 60
f 48 49 62 61
f 49 50 63 62
f 50 51 64 63
f 51 52 65 64
f 53 54 67 66
f 54 55 68 67
f 55 56 69 68
f 56 57 70 69
f 57 58 71 70
f 58 59 72 71
f 59 60 73 72
f 60 61 74 73
f 61 62 75 74
f 62 63 76 75
f 63 64 77 76
f 64 65 78 77
f 66 67 80 79
f 67 68 81 80
f 68 69 82 81
f 69 70 83 82
f 70 71 84 83
f 71 72 85 84
f 72 73 86 85
f 73 74 87 86
f 74 75 88 87
f 75 76 89 88
f 76 77 90 89
f 77 78 91 90
f 79 80 93 92
f 80 81 94 93
f 81 82 95 94
f 82 83 96 95
f 83 84 97 96
f 84 85 98 97
f 85 86 99 98
f 86 87 100 99
f 87 88 101 100
f 88 89 102 101
f 89 90 103 102
f 90 91 104 103
f 92 93 106 105
f 93 94 107 106
f 94 95 108 107
f 95 96 109 108
f 96 97 110 109
f 97 98 111 110
f 98 99 112 111
f 99 100 113 112
f 100 101 114 113
f 101 102 115 114
f 102 103 116 115
f 103 104 117 116
f 105 106 119 118
f 106 107 120 119
f 107 108 121 120
f 108 109 122 121
f 109 110 123 122
f 110 111 124 123
f 111 112 125 124
f 112 113 126 125
f 113 114 127 126
f 114 115 128 127
f 115 116 129 128
f 116 117 130 129
f 118 119 132 131
f 119 120 133 132
f 120 121 134 133
f 121 122 135 134
f 122 123 136 135
f 123 124 137 136
f 124 125 138 137
f 125 126 139 138
f 126 127 140 139
f 127 128 141 140
f 128 129 142 141
f 129 130 143 142
