v -0.564642 0.000000 0.825336
v -0.467933 0.008239 0.886916
v -0.373994 0.017134 0.942761
v -0.280497 0.023796 0.990521
v -0.187115 0.028466 1.027102
v -0.093618 0.031194 1.050098
v -0.000001 0.032091 1.057944
v 0.093616 0.031194 1.050098
v 0.187113 0.028466 1.027102
v 0.280495 0.023796 0.990521
v 0.373993 0.017134 0.942761
v 0.467932 0.008239 0.886916
v 0.564642 0.000000 0.825336
v -0.564642 0.120000 0.825336
v -0.471655 0.117462 0.884744
v -0.376903 0.116469 0.941299
v -0.282738 0.116093 0.989621
v -0.188616 0.115887 1.026682
v -0.094376 0.115784 1.049988
v -0.000001 0.115751 1.057943
v 0.094374 0.115784 1.049988
v 0.188614 0.115887 1.026682
v 0.282736 0.116093 0.989621
v 0.376902 0.116469 0.941299
v 0.471655 0.117462 0.884744
v 0.564642 0.120000 0.825336
v -0.564642 0.240000 0.825336
v -0.469871 0.239521 0.886008
v -0.376028 0.237699 0.942101
v -0.282092 0.236240 0.990378
v -0.188219 0.235181 1.027394
v -0.094181 0.234538 1.050686
v -0.000001 0.234322 1.058636
v 0.094179 0.234538 1.050685
v 0.188218 0.235181 1.027394
v 0.282090 0.236240 0.990378
v 0.376027 0.237699 0.942101
v 0.469870 0.239521 0.886008
v 0.564642 0.240000 0.825336
v -0.564642 0.360000 0.825336
v -0.469062 0.359605 0.886613
v -0.374802 0.358896 0.943064
v -0.281150 0.357958 0.991289
v -0.187547 0.357214 1.028277
v -0.093838 0.356745 1.051537
v -0.000001 0.356585 1.059476
v 0.093836 0.356745 1.051537
v 0.187545 0.357214 1.028277
v 0.281149 0.357958 0.991289
v 0.374801 0.358896 0.943064
v 0.469062 0.359605 0.886613
v 0.564642 0.360000 0.825336
v -0.564642 0.480000 0.825336
v -0.468709 0.479901 0.886894
v -0.374257 0.479570 0.943517
v -0.280570 0.479192 0.991825
v -0.187127 0.478839 1.028803
v -0.093615 0.478609 1.052052
v -0.000001 0.478530 1.059985
v 0.093613 0.478609 1.052052
v 0.187125 0.478839 1.028803
v 0.280568 0.479192 0.991825
v 0.374256 0.479570 0.943517
v 0.468708 0.479901 0.886894
v 0.564642 0.480000 0.825336
v -0.564642 0.600000 0.825336
v -0.468616 0.600000 0.886970
v -0.374089 0.600000 0.943658
v -0.280401 0.600000 0.991986
v -0.186985 0.600000 1.028972
v -0.093542 0.600000 1.052216
v -0.000001 0.600000 1.060148
v 0.093540 0.600000 1.052216
v 0.186983 0.600000 1.028972
v 0.280399 0.600000 0.991985
v 0.374088 0.600000 0.943658
v 0.468616 0.600000 0.886970
v 0.564642 0.600000 0.825336
v -0.564642 0.720000 0.825336
v -0.468709 0.720099 0.886894
v -0.374257 0.720430 0.943517
v -0.280569 0.720808 0.991825
v -0.187127 0.721161 1.028803
v -0.093615 0.721391 1.052052
v -0.000001 0.721470 1.059985
v 0.093613 0.721391 1.052052
v 0.187125 0.721161 1.028803
v 0.280568 0.720808 0.991825
v 0.374256 0.720430 0.943517
v 0.468708 0.720099 0.886894
v 0.564642 0.720000 0.825336
v -0.564642 0.840000 0.825336
v -0.469062 0.840395 0.886613
v -0.374802 0.841104 0.943064
v -0.281150 0.842042 0.991289
v -0.187547 0.842786 1.028277
v -0.093838 0.843255 1.051537
v -0.000001 0.843415 1.059476
v 0.093836 0.843255 1.051537
v 0.187545 0.842786 1.028277
v 0.281148 0.842042 0.991289
v 0.374801 0.841104 0.943064
v 0.469062 0.840395 0.886613
v 0.564642 0.840000 0.825336
v -0.564642 0.960000 0.825336
v -0.469871 0.960479 0.886008
v -0.376028 0.962301 0.942101
v -0.282092 0.963760 0.990378
v -0.188219 0.964819 1.027394
v -0.094181 0.965462 1.050685
v -0.000001 0.965678 1.058636
v 0.094179 0.965462 1.050685
v 0.188218 0.964819 1.027394
v 0.282090 0.963760 0.990378
v 0.376026 0.962301 0.942101
v 0.469870 0.960479 0.886008
v 0.564642 0.960000 0.825336
v -0.564642 1.080000 0.825336
v -0.471655 1.082538 0.884744
v -0.376903 1.083531 0.941299
v -0.282737 1.083907 0.989621
v -0.188616 1.084113 1.026682
v -0.094376 1.084216 1.049988
v -0.000001 1.084249 1.057943
v 0.094374 1.084216 1.049988
v 0.188614 1.084113 1.026682
v 0.282736 1.083907 0.989621
v 0.376902 1.083531 0.941299
v 0.471655 1.082538 0.884744
v 0.564642 1.080000 0.825336
v -0.564642 1.200000 0.825336
v -0.467933 1.191761 0.886916
v -0.373994 1.182866 0.942761
v -0.280497 1.176204 0.990521
v -0.187115 1.171534 1.027102
v -0.093618 1.168806 1.050098
v -0.000001 1.167909 1.057944
v 0.093616 1.168806 1.050098
v 0.187113 1.171534 1.027101
v 0.280495 1.176204 0.990521
v 0.373993 1.182866 0.942761
v 0.467932 1.191761 0.886916
v 0.564642 1.200000 0.825336
f 1 2 15 14
f 2 3 16 15
f 3 4 17 16
f 4 5 18 17
f 5 6 19 18
f 6 7 20 19
f 7 8 21 20
f 8 9 22 21
f 9 10 23 22
f 10 11 24 23
f 11 12 25 24
f 12 13 26 25
f 14 15 28 27
f 15 16 29 28
f 16 17 30 29
f 17 18 31 30
f 18 19 32 31
f 19 20 33 32
f 20 21 34 33
f 21 22 35 34
f 22 23 36 35
f 23 24 37 36
f 24 25 38 37
f 25 26 39 38
f 27 28 41 40
f 28 29 42 41
f 29 30 43 42
f 30 31 44 43
f 31 32 45 44
f 32 33 46 45
f 33 34 47 46
f 34 35 48 47
f 35 36 49 48
f 36 37 50 49
f 37 38 51 50
f 38 39 52 51
f 40 41 54 53
f 41 42 55 54
f 42 43 56 55
f 43 44 57 56
f 44 45 58 57
f 45 46 59 58
f 46 47 60 59
f 47 48 61 60
f 48 49 62 61
f 49 50 63 62
f 50 51 64 63
f 51 52 65 64
f 53 54 67 66
f 54 55 68 67
f 55 56 69 68
f 56 57 70 69
f 57 58 71 70
f 58 59 72 71
f 59 60 73 72
f 60 61 74 73
f 61 62 75 74
f 62 63 76 75
f 63 64 77 76
f 64 65 78 77
f 66 67 80 79
f 67 68 81 80
f 68 69 82 81
f 69 70 83 82
f 70 71 84 83
f 71 72 85 84
f 72 73 86 85
f 73 74 87 86
f 74 75 88 87
f 75 76 89 88
f 76 77 90 89
f 77 78 91 90
f 79 80 93 92
f 80 81 94 93
f 81 82 95 94
f 82 83 96 95
f 83 84 97 96
f 84 85 98 97
f 85 86 99 98
f 86 87 100 99
f 87 88 101 100
f 88 89 102 101
f 89 90 103 102
f 90 91 104 103
f 92 93 106 105
f 93 94 107 106
f 94 95 108 107
f 95 96 109 108
f 96 97 110 109
f 97 98 111 110
f 98 99 112 111
f 99 100 113 112
f 100 101 114 113
f 101 102 115 114
f 102 103 116 115
f 103 104 117 116
f 105 106 119 118
f 106 107 120 119
f 107 108 121 120
f 108 109 122 121
f 109 110 123 122
f 110 111 124 123
f 111 112 125 124
f 112 113 126 125
f 113 114 127 126
f 114 115 128 127
f 115 116 129 128
f 116 117 130 129
f 118 119 132 131
f 119 120 133 132
f 120 121 134 133
f 121 122 135 134
f 122 123 136 135
f 123 124 137 136
f 124 125 138 137
f 125 126 139 138
f 126 127 140 139
f 127 128 141 140
f 128 129 142 141
f 129 130 143 142
