v -0.564642 0.000000 0.825336
v -0.479426 0.000000 0.877583
v -0.389418 0.000000 0.921061
v -0.295520 0.000000 0.955336
v -0.198669 0.000000 0.980067
v -0.099833 0.000000 0.995004
v 0.000000 0.000000 1.000000
v 0.099833 0.000000 0.995004
v 0.198669 0.000000 0.980067
v 0.295520 0.000000 0.955336
v 0.389418 0.000000 0.921061
v 0.479426 0.000000 0.877583
v 0.564642 0.000000 0.825336
v -0.564642 0.120000 0.825336
v -0.474989 0.115634 0.877239
v -0.386449 0.118774 0.918401
v -0.293579 0.123293 0.958406
v -0.202821 0.119074 0.977963
v -0.097402 0.124899 0.990766
v 0.000046 0.124146 0.997975
v 0.100773 0.123750 0.991224
v 0.200953 0.117300 0.978195
v 0.294802 0.118095 0.958085
v 0.388097 0.124249 0.921024
v 0.478334 0.116469 0.881608
v 0.564642 0.120000 0.825336
v -0.564642 0.240000 0.825336
v -0.483211 0.237474 0.881099
v -0.394175 0.242700 0.924501
v -0.290561 0.242927 0.956264
v -0.203252 0.236049 0.976518
v -0.099370 0.240534 0.996202
v 0.001637 0.243547 1.004002
v 0.099563 0.236356 0.991246
v 0.197437 0.236928 0.978616
v 0.296381 0.244194 0.959758
v 0.393782 0.241509 0.920530
v 0.477367 0.238616 0.874952
v 0.564642 0.240000 0.825336
v -0.564642 0.360000 0.825336
v -0.477066 0.362088 0.876465
v -0.389075 0.359743 0.922742
v -0.297842 0.357942 0.959564
v -0.202371 0.355207 0.983150
v -0.098750 0.355079 0.998034
v 0.000474 0.361829 0.998309
v 0.099238 0.357581 0.996236
v 0.199841 0.361240 0.982505
v 0.296625 0.358102 0.958157
v 0.385634 0.364818 0.924257
v 0.478907 0.361521 0.877279
v 0.564642 0.360000 0.825336
v -0.564642 0.480000 0.825336
v -0.481605 0.481437 0.873187
v -0.386498 0.478688 0.923709
v -0.299383 0.480770 0.954615
v -0.198903 0.476868 0.981493
v -0.103326 0.480711 0.999085
v -0.003046 0.477033 0.999631
v 0.099773 0.480518 0.991457
v 0.199944 0.475355 0.983388
v 0.295486 0.477706 0.954196
v 0.388774 0.478147 0.925774
v 0.481911 0.482854 0.881665
v 0.564642 0.480000 0.825336
v -0.564642 0.600000 0.825336
v -0.475131 0.597632 0.877132
v -0.392251 0.597941 0.920243
v -0.294132 0.600501 0.957023
v -0.203197 0.604218 0.977123
v -0.095650 0.599461 0.996337
v 0.000002 0.599775 0.996097
v 0.100059 0.596746 0.999938
v 0.199266 0.604430 0.979284
v 0.298567 0.601844 0.952790
v 0.386422 0.595136 0.918882
v 0.477663 0.604156 0.881454
v 0.564642 0.600000 0.825336
v -0.564642 0.720000 0.825336
v -0.474516 0.715496 0.873402
v -0.391349 0.718840 0.919401
v -0.298074 0.716460 0.952904
v -0.195528 0.716917 0.976424
v -0.101926 0.722729 0.998532
v -0.003471 0.721792 1.004616
v 0.101940 0.716288 0.997823
v 0.195625 0.724994 0.982171
v 0.296578 0.724957 0.956001
v 0.387454 0.717544 0.916778
v 0.474867 0.716807 0.880967
v 0.564642 0.720000 0.825336
v -0.564642 0.840000 0.825336
v -0.477474 0.835336 0.875146
v -0.391910 0.841702 0.917969
v -0.298876 0.836048 0.954820
v -0.193761 0.843326 0.977924
v -0.103756 0.843722 0.994711
v 0.001809 0.841348 0.996979
v 0.103703 0.843657 0.998880
v 0.195261 0.837275 0.980804
v 0.298554 0.840178 0.952512
v 0.389377 0.842036 0.917699
v 0.482415 0.843391 0.880097
v 0.564642 0.840000 0.825336
v -0.564642 0.960000 0.825336
v -0.479123 0.962229 0.877944
v -0.384525 0.957213 0.921757
v -0.297895 0.964679 0.955104
v -0.199759 0.959518 0.982924
v -0.098376 0.960951 0.995379
v -0.000564 0.962643 0.998871
v 0.098182 0.961158 0.999603
v 0.202594 0.956209 0.978124
v 0.291845 0.956522 0.952428
v 0.384859 0.961708 0.916221
v 0.483027 0.962934 0.877610
v 0.564642 0.960000 0.825336
v -0.564642 1.080000 0.825336
v -0.478830 1.082009 0.880523
v -0.385251 1.082535 0.922807
v -0.290725 1.079045 0.957612
v -0.197218 1.078480 0.977325
v -0.096574 1.076396 0.991372
v -0.002145 1.076357 0.999209
v 0.095026 1.075708 0.993130
v 0.203250 1.082204 0.983108
v 0.296237 1.078002 0.952044
v 0.387079 1.082067 0.921980
v 0.474437 1.084502 0.873998
v 0.564642 1.080000 0.825336
v -0.564642 1.200000 0.825336
v -0.479426 1.200000 0.877583
v -0.389418 1.200000 0.921061
v -0.295520 1.200000 0.955336
v -0.198669 1.200000 0.980067
v -0.099833 1.200000 0.995004
v 0.000000 1.200000 1.000000
v 0.099833 1.200000 0.995004
v 0.198669 1.200000 0.980067
v 0.295520 1.200000 0.955336
v 0.389418 1.200000 0.921061
v 0.479426 1.200000 0.877583
v 0.564642 1.200000 0.825336
f 1 2 15 14
f 2 3 16 15
f 3 4 17 16
f 4 5 18 17
f 5 6 19 18
f 6 7 20 19
f 7 8 21 20
f 8 9 22 21
f 9 10 23 22
f 10 11 24 23
f 11 12 25 24
f 12 13 26 25
f 14 15 28 27
f 15 16 29 28
f 16 17 30 29
f 17 18 31 30
f 18 19 32 31
f 19 20 33 32
f 20 21 34 33
f 21 22 35 34
f 22 23 36 35
f 23 24 37 36
f 24 25 38 37
f 25 26 39 38
f 27 28 41 40
f 28 29 42 41
f 29 30 43 42
f 30 31 44 43
f 31 32 45 44
f 32 33 46 45
f 33 34 47 46
f 34 35 48 47
f 35 36 49 48
f 36 37 50 49
f 37 38 51 50
f 38 39 52 51
f 40 41 54 53
f 41 42 55 54
f 42 43 56 55
f 43 44 57 56
f 44 45 58 57
f 45 46 59 58
f 46 47 60 59
f 47 48 61 60
f 48 49 62 61
f 49 50 63 62
f 50 51 64 63
f 51 52 65 64
f 53 54 67 66
f 54 55 68 67
f 55 56 69 68
f 56 57 70 69
f 57 58 71 70
f 58 59 72 71
f 59 60 73 72
f 60 61 74 73
f 61 62 75 74
f 62 63 76 75
f 63 64 77 76
f 64 65 78 77
f 66 67 80 79
f 67 68 81 80
f 68 69 82 81
f 69 70 83 82
f 70 71 84 83
f 71 72 85 84
f 72 73 86 85
f 73 74 87 86
f 74 75 88 87
f 75 76 89 88
f 76 77 90 89
f 77 78 91 90
f 79 80 93 92
f 80 81 94 93
f 81 82 95 94
f 82 83 96 95
f 83 84 97 96
f 84 85 98 97
f 85 86 99 98
f 86 87 100 99
f 87 88 101 100
f 88 89 102 101
f 89 90 103 102
f 90 91 104 103
f 92 93 106 105
f 93 94 107 106
f 94 95 108 107
f 95 96 109 108
f 96 97 110 109
f 97 98 111 110
f 98 99 112 111
f 99 100 113 112
f 100 101 114 113
f 101 102 115 114
f 102 103 116 115
f 103 104 117 116
f 105 106 119 118
f 106 107 120 119
f 107 108 121 120
f 108 109 122 121
f 109 110 123 122
f 110 111 124 123
f 111 112 125 124
f 112 113 126 125
f 113 114 127 126
f 114 115 128 127
f 115 116 129 128
f 116 117 130 129
f 118 119 132 131
f 119 120 133 132
f 120 121 134 133
f 121 122 135 134
f 122 123 136 135
f 123 124 137 136
f 124 125 138 137
f 125 126 139 138
f 126 127 140 139
f 127 128 141 140
f 128 129 142 141
f 129 130 143 142
