v 0.565354 0.764842 -0.308854
v 0.593364 0.764842 -0.250870
v 0.615445 0.764842 -0.190379
v 0.631376 0.764842 -0.127986
v 0.640999 0.764842 -0.064314
v 0.644218 0.764842 0.000000
v 0.640999 0.764842 0.064314
v 0.631376 0.764842 0.127986
v 0.615445 0.764842 0.190379
v 0.593364 0.764842 0.250870
v 0.565354 0.764842 0.308854
v 0.598194 0.731689 -0.326795
v 0.629718 0.732512 -0.267086
v 0.648867 0.730760 -0.201258
v 0.669313 0.732915 -0.136181
v 0.676862 0.730926 -0.067433
v 0.681688 0.729899 0.001560
v 0.679640 0.729706 0.067736
v 0.667793 0.732535 0.135444
v 0.649964 0.730210 0.202282
v 0.628534 0.732286 0.263477
v 0.598194 0.731689 0.326795
v 0.629539 0.696707 -0.343919
v 0.661434 0.694993 -0.281374
v 0.684836 0.694500 -0.211102
v 0.702671 0.695390 -0.140760
v 0.711602 0.698212 -0.069625
v 0.716112 0.695676 -0.002014
v 0.712521 0.695911 0.070694
v 0.703926 0.694327 0.144505
v 0.685949 0.698643 0.209586
v 0.660743 0.695903 0.280901
v 0.629539 0.696707 0.343919
v 0.659311 0.659983 -0.360183
v 0.690936 0.660690 -0.290544
v 0.715351 0.661454 -0.220166
v 0.737114 0.661041 -0.150917
v 0.747735 0.660801 -0.075679
v 0.751674 0.660905 0.000579
v 0.745909 0.658186 0.072639
v 0.737564 0.658907 0.150189
v 0.718716 0.661860 0.220003
v 0.693775 0.658407 0.292242
v 0.659311 0.659983 0.360183
v 0.687434 0.621610 -0.375547
v 0.720879 0.619347 -0.304938
v 0.748773 0.620182 -0.231971
v 0.767509 0.619353 -0.154946
v 0.781024 0.621458 -0.077486
v 0.783582 0.619373 0.002360
v 0.778610 0.620279 0.079672
v 0.770141 0.620085 0.153714
v 0.747829 0.620142 0.231580
v 0.719120 0.621272 0.307507
v 0.687434 0.621610 0.375547
v 0.713839 0.581683 -0.389972
v 0.751102 0.579840 -0.314759
v 0.775132 0.583589 -0.242491
v 0.795682 0.583607 -0.159247
v 0.811823 0.583306 -0.080227
v 0.812780 0.582667 -0.001615
v 0.807344 0.579461 0.080372
v 0.796506 0.582376 0.162181
v 0.776054 0.580651 0.238799
v 0.747085 0.583795 0.317860
v 0.713839 0.581683 0.389972
v 0.738460 0.540302 -0.403423
v 0.773707 0.541390 -0.328953
v 0.804206 0.541246 -0.250134
v 0.822868 0.541395 -0.165496
v 0.837554 0.541116 -0.082188
v 0.843152 0.538789 0.002173
v 0.836804 0.542662 0.084845
v 0.823586 0.541103 0.169354
v 0.806061 0.538167 0.248881
v 0.774452 0.538020 0.329599
v 0.738460 0.540302 0.403423
v 0.761235 0.497571 -0.415865
v 0.796919 0.496504 -0.336951
v 0.830466 0.497477 -0.254597
v 0.850511 0.498795 -0.171253
v 0.862496 0.499155 -0.086128
v 0.868988 0.496276 -0.000278
v 0.865489 0.495166 0.088420
v 0.850784 0.498243 0.173756
v 0.830756 0.500034 0.254642
v 0.797018 0.495803 0.336546
v 0.761235 0.497571 0.415865
v 0.782108 0.453596 -0.427268
v 0.821172 0.451636 -0.346816
v 0.849726 0.453428 -0.261364
v 0.874085 0.454394 -0.176666
v 0.887557 0.453705 -0.091115
v 0.891961 0.452818 0.001856
v 0.888074 0.455510 0.087965
v 0.875902 0.451354 0.177301
v 0.851869 0.451766 0.262603
v 0.820568 0.454792 0.348208
v 0.782108 0.453596 0.427268
v 0.801026 0.408487 -0.437602
v 0.841823 0.409831 -0.353131
v 0.873073 0.406633 -0.270851
v 0.895554 0.406689 -0.180844
v 0.908884 0.409377 -0.089097
v 0.914205 0.409534 0.000703
v 0.908767 0.407982 0.089402
v 0.895513 0.406949 0.181224
v 0.873338 0.408922 0.270184
v 0.839113 0.410613 0.353427
v 0.801026 0.408487 0.437602
v 0.817941 0.362358 -0.446843
v 0.858465 0.362358 -0.362953
v 0.890411 0.362358 -0.275436
v 0.913460 0.362358 -0.185168
v 0.927383 0.362358 -0.093049
v 0.932039 0.362358 0.000000
v 0.927383 0.362358 0.093049
v 0.913460 0.362358 0.185168
v 0.890411 0.362358 0.275436
v 0.858465 0.362358 0.362953
v 0.817941 0.362358 0.446843
f 1 2 13 12
f 2 3 14 13
f 3 4 15 14
f 4 5 16 15
f 5 6 17 16
f 6 7 18 17
f 7 8 19 18
f 8 9 20 19
f 9 10 21 20
f 10 11 22 21
f 12 13 24 23
f 13 14 25 24
f 14 15 26 25
f 15 16 27 26
f 16 17 28 27
f 17 18 29 28
f 18 19 30 29
f 19 20 31 30
f 20 21 32 31
f 21 22 33 32
f 23 24 35 34
f 24 25 36 35
f 25 26 37 36
f 26 27 38 37
f 27 28 39 38
f 28 29 40 39
f 29 30 41 40
f 30 31 42 41
f 31 32 43 42
f 32 33 44 43
f 34 35 46 45
f 35 36 47 46
f 36 37 48 47
f 37 38 49 48
f 38 39 50 49
f 39 40 51 50
f 40 41 52 51
f 41 42 53 52
f 42 43 54 53
f 43 44 55 54
f 45 46 57 56
f 46 47 58 57
f 47 48 59 58
f 48 49 60 59
f 49 50 61 60
f 50 51 62 61
f 51 52 63 62
f 52 53 64 63
f 53 54 65 64
f 54 55 66 65
f 56 57 68 67
f 57 58 69 68
f 58 59 70 69
f 59 60 71 70
f 60 61 72 71
f 61 62 73 72
f 62 63 74 73
f 63 64 75 74
f 64 65 76 75
f 65 66 77 76
f 67 68 79 78
f 68 69 80 79
f 69 70 81 80
f 70 71 82 81
f 71 72 83 82
f 72 73 84 83
f 73 74 85 84
f 74 75 86 85
f 75 76 87 86
f 76 77 88 87
f 78 79 90 89
f 79 80 91 90
f 80 81 92 91
f 81 82 93 92
f 82 83 94 93
f 83 84 95 94
f 84 85 96 95
f 85 86 97 96
f 86 87 98 97
f 87 88 99 98
f 89 90 101 100
f 90 91 102 101
f 91 92 103 102
f 92 93 104 103
f 93 94 105 104
f 94 95 106 105
f 95 96 107 106
f 96 97 108 107
f 97 98 109 108
f 98 99 110 109
f 100 101 112 111
f 101 102 113 112
f 102 103 114 113
f 103 104 115 114
f 104 105 116 115
f 105 106 117 116
f 106 107 118 117
f 107 108 119 118
f 108 109 120 119
f 109 110 121 120
