v 0.565354 0.764842 -0.308854
v 0.593364 0.764842 -0.250870
v 0.615445 0.764842 -0.190379
v 0.631376 0.764842 -0.127986
v 0.640999 0.764842 -0.064314
v 0.644218 0.764842 0.000000
v 0.640999 0.764842 0.064314
v 0.631376 0.764842 0.127986
v 0.615445 0.764842 0.190379
v 0.593364 0.764842 0.250870
v 0.565354 0.764842 0.308854
v 0.598194 0.731689 -0.326795
v 0.627378 0.731279 -0.265205
v 0.650484 0.731171 -0.201187
v 0.667162 0.731105 -0.135222
v 0.677236 0.731066 -0.067942
v 0.680605 0.731053 0.000000
v 0.677236 0.731066 0.067942
v 0.667162 0.731105 0.135222
v 0.650484 0.731171 0.201187
v 0.627378 0.731279 0.265205
v 0.598194 0.731689 0.326795
v 0.629539 0.696707 -0.343919
v 0.660131 0.696075 -0.278998
v 0.684463 0.695905 -0.211657
v 0.702033 0.695807 -0.142267
v 0.712647 0.695748 -0.071484
v 0.716197 0.695729 0.000000
v 0.712647 0.695748 0.071484
v 0.702033 0.695807 0.142267
v 0.684463 0.695905 0.211657
v 0.660131 0.696075 0.278998
v 0.629539 0.696707 0.343919
v 0.659311 0.659983 -0.360183
v 0.691233 0.659242 -0.292146
v 0.716739 0.659033 -0.221638
v 0.735167 0.658910 -0.148985
v 0.746300 0.658837 -0.074862
v 0.750024 0.658813 0.000000
v 0.746300 0.658837 0.074862
v 0.735167 0.658910 0.148985
v 0.716739 0.659033 0.221638
v 0.691233 0.659242 0.292146
v 0.659311 0.659983 0.360183
v 0.687434 0.621610 -0.375547
v 0.720630 0.620830 -0.304600
v 0.747229 0.620604 -0.231095
v 0.766457 0.620467 -0.155346
v 0.778074 0.620386 -0.078060
v 0.781959 0.620359 0.000000
v 0.778074 0.620386 0.078060
v 0.766457 0.620467 0.155346
v 0.747229 0.620604 0.231095
v 0.720630 0.620830 0.304600
v 0.687434 0.621610 0.375547
v 0.713839 0.581683 -0.389972
v 0.748264 0.580923 -0.316318
v 0.775881 0.580695 -0.239995
v 0.795849 0.580555 -0.161329
v 0.807913 0.580473 -0.081066
v 0.811948 0.580446 0.000000
v 0.807913 0.580473 0.081066
v 0.795849 0.580555 0.161329
v 0.775881 0.580695 0.239995
v 0.748264 0.580923 0.316318
v 0.713839 0.581683 0.389972
v 0.738460 0.540302 -0.403423
v 0.774077 0.539611 -0.327269
v 0.802639 0.539396 -0.248308
v 0.823288 0.539266 -0.166914
v 0.835762 0.539192 -0.083871
v 0.839933 0.539167 0.000000
v 0.835762 0.539192 0.083871
v 0.823288 0.539266 0.166914
v 0.802639 0.539396 0.248308
v 0.774077 0.539611 0.327269
v 0.738460 0.540302 0.403423
v 0.761235 0.497571 -0.415865
v 0.798013 0.496992 -0.337419
v 0.827448 0.496810 -0.256005
v 0.848716 0.496705 -0.172081
v 0.861562 0.496647 -0.086466
v 0.865858 0.496629 0.000000
v 0.861562 0.496647 0.086466
v 0.848716 0.496705 0.172081
v 0.827448 0.496810 0.256005
v 0.798013 0.496992 0.337419
v 0.761235 0.497571 0.415865
v 0.782108 0.453596 -0.427268
v 0.820023 0.453172 -0.346735
v 0.850253 0.453051 -0.263059
v 0.872082 0.452987 -0.176814
v 0.885264 0.452955 -0.088840
v 0.889672 0.452944 0.000000
v 0.885264 0.452955 0.088840
v 0.872082 0.452987 0.176814
v 0.850253 0.453051 0.263059
v 0.820023 0.453172 0.346735
v 0.782108 0.453596 0.427268
v 0.801026 0.408487 -0.437602
v 0.840079 0.408279 -0.355184
v 0.871047 0.408232 -0.269465
v 0.893398 0.408216 -0.181111
v 0.906895 0.408208 -0.090999
v 0.911408 0.408206 0.000000
v 0.906895 0.408208 0.090999
v 0.893398 0.408216 0.181111
v 0.871047 0.408232 0.269465
v 0.840079 0.408279 0.355184
v 0.801026 0.408487 0.437602
v 0.817941 0.362358 -0.446843
v 0.858465 0.362358 -0.362953
v 0.890411 0.362358 -0.275436
v 0.913460 0.362358 -0.185168
v 0.927383 0.362358 -0.093049
v 0.932039 0.362358 0.000000
v 0.927383 0.362358 0.093049
v 0.913460 0.362358 0.185168
v 0.890411 0.362358 0.275436
v 0.858465 0.362358 0.362953
v 0.817941 0.362358 0.446843
f 1 2 13 12
f 2 3 14 13
f 3 4 15 14
f 4 5 16 15
f 5 6 17 16
f 6 7 18 17
f 7 8 19 18
f 8 9 20 19
f 9 10 21 20
f 10 11 22 21
f 12 13 24 23
f 13 14 25 24
f 14 15 26 25
f 15 16 27 26
f 16 17 28 27
f 17 18 29 28
f 18 19 30 29
f 19 20 31 30
f 20 21 32 31
f 21 22 33 32
f 23 24 35 34
f 24 25 36 35
f 25 26 37 36
f 26 27 38 37
f 27 28 39 38
f 28 29 40 39
f 29 30 41 40
f 30 31 42 41
f 31 32 43 42
f 32 33 44 43
f 34 35 46 45
f 35 36 47 46
f 36 37 48 47
f 37 38 49 48
f 38 39 50 49
f 39 40 51 50
f 40 41 52 51
f 41 42 53 52
f 42 43 54 53
f 43 44 55 54
f 45 46 57 56
f 46 47 58 57
f 47 48 59 58
f 48 49 60 59
f 49 50 61 60
f 50 51 62 61
f 51 52 63 62
f 52 53 64 63
f 53 54 65 64
f 54 55 66 65
f 56 57 68 67
f 57 58 69 68
f 58 59 70 69
f 59 60 71 70
f 60 61 72 71
f 61 62 73 72
f 62 63 74 73
f 63 64 75 74
f 64 65 76 75
f 65 66 77 76
f 67 68 79 78
f 68 69 80 79
f 69 70 81 80
f 70 71 82 81
f 71 72 83 82
f 72 73 84 83
f 73 74 85 84
f 74 75 86 85
f 75 76 87 86
f 76 77 88 87
f 78 79 90 89
f 79 80 91 90
f 80 81 92 91
f 81 82 93 92
f 82 83 94 93
f 83 84 95 94
f 84 85 96 95
f 85 86 97 96
f 86 87 98 97
f 87 88 99 98
f 89 90 101 100
f 90 91 102 101
f 91 92 103 102
f 92 93 104 103
f 93 94 105 104
f 94 95 106 105
f 95 96 107 106
f 96 97 108 107
f 97 98 109 108
f 98 99 110 109
f 100 101 112 111
f 101 102 113 112
f 102 103 114 113
f 103 104 115 114
f 104 105 116 115
f 105 106 117 116
f 106 107 118 117
f 107 108 119 118
f 108 109 120 119
f 109 110 121 120
