v 0.000000 0.000000 0.000000
v 0.083333 0.000000 0.000000
v 0.166667 0.000000 0.000000
v 0.250000 0.000000 0.000000
v 0.333333 0.000000 0.000000
v 0.416667 0.000000 0.000000
v 0.500000 0.000000 0.000000
v 0.583333 0.000000 0.000000
v 0.666667 0.000000 0.000000
v 0.750000 0.000000 0.000000
v 0.833333 0.000000 0.000000
v 0.916667 0.000000 0.000000
v 1.000000 0.000000 0.000000
v 0.000000 0.083333 0.000000
v 0.073936 0.073936 0.037192
v 0.157090 0.067108 0.051937
v 0.243951 0.063963 0.057141
v 0.331623 0.064202 0.056945
v 0.418676 0.067014 0.052619
v 0.504267 0.071399 0.044756
v 0.588096 0.076072 0.034219
v 0.670516 0.079762 0.022660
v 0.752356 0.081867 0.012319
v 0.834381 0.082724 0.005033
v 0.916923 0.083077 0.001253
v 1.000000 0.083333 0.000000
v 0.000000 0.166667 0.000000
v 0.067107 0.157090 0.051937
v 0.145673 0.145673 0.088516
v 0.233366 0.137793 0.107090
v 0.325074 0.134958 0.112470
v 0.416873 0.136947 0.108068
v 0.506399 0.142459 0.095782
v 0.592417 0.149652 0.077366
v 0.674987 0.156476 0.055456
v 0.755487 0.161408 0.033759
v 0.835835 0.164165 0.016159
v 0.917276 0.165619 0.005033
v 1.000000 0.166667 0.000000
v 0.000000 0.250000 0.000000
v 0.063963 0.243951 0.057142
v 0.137793 0.233366 0.107090
v 0.223179 0.223179 0.141399
v 0.316318 0.216926 0.157971
v 0.412178 0.215691 0.158811
v 0.506382 0.219089 0.146573
v 0.596107 0.225576 0.123959
v 0.680353 0.233096 0.094437
v 0.760254 0.239746 0.062622
v 0.838592 0.244513 0.033759
v 0.918133 0.247644 0.012319
v 1.000000 0.250000 0.000000
v 0.000000 0.333333 0.000000
v 0.064202 0.331623 0.056946
v 0.134958 0.325074 0.112470
v 0.216926 0.316318 0.157971
v 0.308973 0.308973 0.186888
v 0.406647 0.305057 0.197133
v 0.504809 0.305024 0.189703
v 0.598914 0.308344 0.167251
v 0.686282 0.313718 0.133735
v 0.766904 0.319647 0.094438
v 0.843524 0.325013 0.055456
v 0.920238 0.329484 0.022661
v 1.000000 0.333333 0.000000
v 0.000000 0.416667 0.000000
v 0.067014 0.418676 0.052619
v 0.136947 0.416873 0.108069
v 0.215691 0.412178 0.158812
v 0.305057 0.406647 0.197133
v 0.402281 0.402281 0.217642
v 0.502470 0.399927 0.218468
v 0.600388 0.399612 0.200559
v 0.691656 0.401085 0.167251
v 0.774424 0.403893 0.123960
v 0.850349 0.407583 0.077367
v 0.923928 0.411904 0.034219
v 1.000000 0.416667 0.000000
v 0.000000 0.500000 0.000000
v 0.071399 0.504267 0.044756
v 0.142458 0.506399 0.095783
v 0.219089 0.506382 0.146574
v 0.305024 0.504809 0.189704
v 0.399927 0.502470 0.218468
v 0.500000 0.500000 0.228520
v 0.600073 0.497530 0.218468
v 0.694976 0.495191 0.189704
v 0.780911 0.493618 0.146574
v 0.857542 0.493601 0.095783
v 0.928601 0.495733 0.044756
v 1.000000 0.500000 0.000000
v 0.000000 0.583333 0.000000
v 0.076072 0.588096 0.034219
v 0.149651 0.592418 0.077367
v 0.225576 0.596107 0.123960
v 0.308344 0.598915 0.167251
v 0.399612 0.600388 0.200559
v 0.497530 0.600073 0.218468
v 0.597719 0.597719 0.217642
v 0.694943 0.593353 0.197133
v 0.784309 0.587822 0.158812
v 0.863053 0.583127 0.108070
v 0.932986 0.581324 0.052620
v 1.000000 0.583333 0.000000
v 0.000000 0.666667 0.000000
v 0.079762 0.670516 0.022661
v 0.156476 0.674988 0.055456
v 0.233096 0.680353 0.094438
v 0.313718 0.686282 0.133736
v 0.401085 0.691656 0.167251
v 0.495191 0.694975 0.189703
v 0.593353 0.694943 0.197133
v 0.691027 0.691027 0.186889
v 0.783074 0.683682 0.157972
v 0.865042 0.674926 0.112471
v 0.935799 0.668377 0.056946
v 1.000000 0.666667 0.000000
v 0.000000 0.750000 0.000000
v 0.081867 0.752356 0.012320
v 0.161407 0.755487 0.033760
v 0.239746 0.760254 0.062623
v 0.319647 0.766904 0.094438
v 0.403893 0.774424 0.123960
v 0.493618 0.780911 0.146573
v 0.587822 0.784308 0.158811
v 0.683682 0.783074 0.157971
v 0.776821 0.776821 0.141400
v 0.862207 0.766634 0.107091
v 0.936038 0.756049 0.057142
v 1.000000 0.750000 0.000000
v 0.000000 0.833333 0.000000
v 0.082724 0.834381 0.005033
v 0.164165 0.835835 0.016160
v 0.244513 0.838593 0.033760
v 0.325012 0.843524 0.055456
v 0.407583 0.850349 0.077367
v 0.493601 0.857541 0.095783
v 0.583127 0.863053 0.108069
v 0.674926 0.865042 0.112470
v 0.766634 0.862207 0.107091
v 0.854327 0.854327 0.088517
v 0.932893 0.842910 0.051938
v 1.000000 0.833333 0.000000
v 0.000000 0.916667 0.000000
v 0.083077 0.916923 0.001253
v 0.165619 0.917276 0.005033
v 0.247644 0.918133 0.012319
v 0.329484 0.920238 0.022661
v 0.411904 0.923928 0.034219
v 0.495733 0.928601 0.044756
v 0.581325 0.932986 0.052619
v 0.668377 0.935798 0.056946
v 0.756049 0.936037 0.057142
v 0.842910 0.932893 0.051937
v 0.926065 0.926064 0.037192
v 1.000000 0.916667 0.000000
v 0.000000 1.000000 0.000000
v 0.083333 1.000000 0.000000
v 0.166667 1.000000 0.000000
v 0.250000 1.000000 0.000000
v 0.333333 1.000000 0.000000
v 0.416667 1.000000 0.000000
v 0.500000 1.000000 0.000000
v 0.583333 1.000000 0.000000
v 0.666667 1.000000 0.000000
v 0.750000 1.000000 0.000000
v 0.833333 1.000000 0.000000
v 0.916667 1.000000 0.000000
v 1.000000 1.000000 0.000000
f 1 2 15
f 2 3 16
f 3 4 17
f 4 5 18
f 5 6 19
f 6 7 20
f 7 8 21
f 8 9 22
f 9 10 23
f 10 11 24
f 11 12 25
f 12 13 26
f 14 15 28
f 15 16 29
f 16 17 30
f 17 18 31
f 18 19 32
f 19 20 33
f 20 21 34
f 21 22 35
f 22 23 36
f 23 24 37
f 24 25 38
f 25 26 39
f 27 28 41
f 28 29 42
f 29 30 43
f 30 31 44
f 31 32 45
f 32 33 46
f 33 34 47
f 34 35 48
f 35 36 49
f 36 37 50
f 37 38 51
f 38 39 52
f 40 41 54
f 41 42 55
f 42 43 56
f 43 44 57
f 44 45 58
f 45 46 59
f 46 47 60
f 47 48 61
f 48 49 62
f 49 50 63
f 50 51 64
f 51 52 65
f 53 54 67
f 54 55 68
f 55 56 69
f 56 57 70
f 57 58 71
f 58 59 72
f 59 60 73
f 60 61 74
f 61 62 75
f 62 63 76
f 63 64 77
f 64 65 78
f 66 67 80
f 67 68 81
f 68 69 82
f 69 70 83
f 70 71 84
f 71 72 85
f 72 73 86
f 73 74 87
f 74 75 88
f 75 76 89
f 76 77 90
f 77 78 91
f 79 80 93
f 80 81 94
f 81 82 95
f 82 83 96
f 83 84 97
f 84 85 98
f 85 86 99
f 86 87 100
f 87 88 101
f 88 89 102
f 89 90 103
f 90 91 104
f 92 93 106
f 93 94 107
f 94 95 108
f 95 96 109
f 96 97 110
f 97 98 111
f 98 99 112
f 99 100 113
f 100 101 114
f 101 102 115
f 102 103 116
f 103 104 117
f 105 106 119
f 106 107 120
f 107 108 121
f 108 109 122
f 109 110 123
f 110 111 124
f 111 112 125
f 112 113 126
f 113 114 127
f 114 115 128
f 115 116 129
f 116 117 130
f 118 119 132
f 119 120 133
f 120 121 134
f 121 122 135
f 122 123 136
f 123 124 137
f 124 125 138
f 125 126 139
f 126 127 140
f 127 128 141
f 128 129 142
f 129 130 143
f 131 132 145
f 132 133 146
f 133 134 147
f 134 135 148
f 135 136 149
f 136 137 150
f 137 138 151
f 138 139 152
f 139 140 153
f 140 141 154
f 141 142 155
f 142 143 156
f 144 145 158
f 145 146 159
f 146 147 160
f 147 148 161
f 148 149 162
f 149 150 163
f 150 151 164
f 151 152 165
f 152 153 166
f 153 154 167
f 154 155 168
f 155 156 169
f 1 15 14
f 2 16 15
f 3 17 16
f 4 18 17
f 5 19 18
f 6 20 19
f 7 21 20
f 8 22 21
f 9 23 22
f 10 24 23
f 11 25 24
f 12 26 25
f 14 28 27
f 15 29 28
f 16 30 29
f 17 31 30
f 18 32 31
f 19 33 32
f 20 34 33
f 21 35 34
f 22 36 35
f 23 37 36
f 24 38 37
f 25 39 38
f 27 41 40
f 28 42 41
f 29 43 42
f 30 44 43
f 31 45 44
f 32 46 45
f 33 47 46
f 34 48 47
f 35 49 48
f 36 50 49
f 37 51 50
f 38 52 51
f 40 54 53
f 41 55 54
f 42 56 55
f 43 57 56
f 44 58 57
f 45 59 58
f 46 60 59
f 47 61 60
f 48 62 61
f 49 63 62
f 50 64 63
f 51 65 64
f 53 67 66
f 54 68 67
f 55 69 68
f 56 70 69
f 57 71 70
f 58 72 71
f 59 73 72
f 60 74 73
f 61 75 74
f 62 76 75
f 63 77 76
f 64 78 77
f 66 80 79
f 67 81 80
f 68 82 81
f 69 83 82
f 70 84 83
f 71 85 84
f 72 86 85
f 73 87 86
f 74 88 87
f 75 89 88
f 76 90 89
f 77 91 90
f 79 93 92
f 80 94 93
f 81 95 94
f 82 96 95
f 83 97 96
f 84 98 97
f 85 99 98
f 86 100 99
f 87 101 100
f 88 102 101
f 89 103 102
f 90 104 103
f 92 106 105
f 93 107 106
f 94 108 107
f 95 109 108
f 96 110 109
f 97 111 110
f 98 112 111
f 99 113 112
f 100 114 113
f 101 115 114
f 102 116 115
f 103 117 116
f 105 119 118
f 106 120 119
f 107 121 120
f 108 122 121
f 109 123 122
f 110 124 123
f 111 125 124
f 112 126 125
f 113 127 126
f 114 128 127
f 115 129 128
f 116 130 129
f 118 132 131
f 119 133 132
f 120 134 133
f 121 135 134
f 122 136 135
f 123 137 136
f 124 138 137
f 125 139 138
f 126 140 139
f 127 141 140
f 128 142 141
f 129 143 142
f 131 145 144
f 132 146 145
f 133 147 146
f 134 148 147
f 135 149 148
f 136 150 149
f 137 151 150
f 138 152 151
f 139 153 152
f 140 154 153
f 141 155 154
f 142 156 155
f 144 158 157
f 145 159 158
f 146 160 159
f 147 161 160
f 148 162 161
f 149 163 162
f 150 164 163
f 151 165 164
f 152 166 165
f 153 167 166
f 154 168 167
f 155 169 168
