v 0.000000 0.000000 0.000000
v 0.083333 0.000000 0.000000
v 0.166667 0.000000 0.000000
v 0.250000 0.000000 0.000000
v 0.333333 0.000000 0.000000
v 0.416667 0.000000 0.000000
v 0.500000 0.000000 0.000000
v 0.583333 0.000000 0.000000
v 0.666667 0.000000 0.000000
v 0.750000 0.000000 0.000000
v 0.833333 0.000000 0.000000
v 0.916667 0.000000 0.000000
v 1.000000 0.000000 0.000000
v 0.000000 0.083333 0.000000
v 0.069065 0.088725 -0.030045
v 0.159316 0.098227 0.012080
v 0.260264 0.076087 -0.039945
v 0.340860 0.081290 -0.037191
v 0.428039 0.095719 0.019261
v 0.487924 0.084458 -0.017043
v 0.576706 0.076469 0.000367
v 0.680715 0.091853 -0.028197
v 0.742093 0.074283 0.023833
v 0.827645 0.078015 -0.022384
v 0.917201 0.096942 -0.017754
v 1.000000 0.083333 0.000000
v 0.000000 0.166667 0.000000
v 0.075883 0.158807 -0.019522
v 0.176100 0.163171 -0.017722
v 0.252192 0.177516 -0.013415
v 0.341759 0.168328 0.037892
v 0.429388 0.166741 -0.002181
v 0.500901 0.175696 -0.040083
v 0.595821 0.173142 0.003735
v 0.664238 0.162854 0.041201
v 0.752706 0.168665 0.034858
v 0.839957 0.174224 -0.037030
v 0.913513 0.153693 0.022814
v 1.000000 0.166667 0.000000
v 0.000000 0.250000 0.000000
v 0.076868 0.248506 0.025652
v 0.178599 0.250010 -0.003095
v 0.259839 0.240594 -0.034281
v 0.341497 0.247913 0.000705
v 0.404338 0.239056 0.013417
v 0.507890 0.243978 0.041230
v 0.572153 0.244564 -0.035672
v 0.666955 0.260606 0.018471
v 0.743433 0.247202 -0.014556
v 0.832589 0.252965 0.009518
v 0.929076 0.250244 0.003861
v 1.000000 0.250000 0.000000
v 0.000000 0.333333 0.000000
v 0.070269 0.347923 -0.037648
v 0.158954 0.342895 0.018633
v 0.247011 0.342366 -0.030976
v 0.343737 0.331990 -0.010324
v 0.403989 0.337553 -0.009373
v 0.514435 0.319390 -0.023833
v 0.582660 0.338712 -0.001449
v 0.654218 0.326101 0.023251
v 0.757671 0.335459 -0.009188
v 0.831407 0.322797 0.017425
v 0.916038 0.337289 0.016027
v 1.000000 0.333333 0.000000
v 0.000000 0.416667 0.000000
v 0.082999 0.404195 0.031986
v 0.180311 0.401826 -0.005760
v 0.239989 0.417283 0.017883
v 0.347437 0.409687 0.008404
v 0.415317 0.411948 0.019465
v 0.491639 0.415849 -0.007709
v 0.581746 0.414938 0.043726
v 0.680850 0.422250 -0.015075
v 0.737164 0.401960 -0.041234
v 0.844725 0.414934 0.015108
v 0.931559 0.430863 0.035308
v 1.000000 0.416667 0.000000
v 0.000000 0.500000 0.000000
v 0.068929 0.487833 0.018843
v 0.173976 0.492545 0.010544
v 0.240439 0.514268 0.010679
v 0.345263 0.494867 0.018341
v 0.412409 0.491483 0.028487
v 0.502152 0.498960 -0.040962
v 0.571501 0.487798 0.011378
v 0.677026 0.505367 0.019228
v 0.755706 0.514426 0.041123
v 0.834101 0.488245 0.043890
v 0.918868 0.506508 -0.042518
v 1.000000 0.500000 0.000000
v 0.000000 0.583333 0.000000
v 0.081716 0.594425 0.014267
v 0.180888 0.590562 -0.028837
v 0.238342 0.589950 0.035630
v 0.348331 0.594367 -0.040580
v 0.406897 0.587582 -0.011946
v 0.485366 0.570574 0.016462
v 0.572499 0.571036 0.038271
v 0.681064 0.584363 -0.038901
v 0.757478 0.596137 -0.007398
v 0.833692 0.578345 -0.007571
v 0.926304 0.585483 0.043962
v 1.000000 0.583333 0.000000
v 0.000000 0.666667 0.000000
v 0.093383 0.672188 -0.037700
v 0.159508 0.674945 0.011695
v 0.252043 0.670524 0.033380
v 0.340688 0.670154 -0.010445
v 0.417624 0.676772 0.030289
v 0.512095 0.662401 -0.028814
v 0.587705 0.657767 0.010662
v 0.659773 0.673724 -0.020018
v 0.743251 0.672418 -0.024545
v 0.823362 0.680404 0.018221
v 0.908641 0.677796 0.025200
v 1.000000 0.666667 0.000000
v 0.000000 0.750000 0.000000
v 0.080688 0.745778 0.030516
v 0.175358 0.735911 0.029685
v 0.260086 0.746298 -0.003935
v 0.336471 0.756248 0.020880
v 0.426562 0.745411 0.025141
v 0.486173 0.760733 -0.009575
v 0.590684 0.737128 -0.009413
v 0.659332 0.753047 -0.042006
v 0.749029 0.740900 0.017917
v 0.822204 0.742245 0.031394
v 0.904233 0.743137 0.029139
v 1.000000 0.750000 0.000000
v 0.000000 0.833333 0.000000
v 0.095831 0.840743 0.012787
v 0.173352 0.837499 0.009093
v 0.256836 0.847666 -0.007822
v 0.329456 0.845030 -0.012851
v 0.425881 0.823969 0.017316
v 0.497191 0.831846 0.014138
v 0.597183 0.843483 -0.044954
v 0.676642 0.843202 0.024808
v 0.759123 0.845484 -0.007558
v 0.834793 0.818762 0.016010
v 0.921636 0.827474 0.022765
v 1.000000 0.833333 0.000000
v 0.000000 0.916667 0.000000
v 0.097410 0.902504 -0.027759
v 0.177614 0.906036 0.016431
v 0.238161 0.908270 -0.022341
v 0.341924 0.921508 0.041407
v 0.428840 0.921590 0.027556
v 0.507311 0.912091 0.011667
v 0.588980 0.922624 -0.025174
v 0.668605 0.901829 0.016378
v 0.747563 0.925771 0.022319
v 0.842202 0.909267 -0.010080
v 0.912051 0.927707 -0.018636
v 1.000000 0.916667 0.000000
v 0.000000 1.000000 0.000000
v 0.083333 1.000000 0.000000
v 0.166667 1.000000 0.000000
v 0.250000 1.000000 0.000000
v 0.333333 1.000000 0.000000
v 0.416667 1.000000 0.000000
v 0.500000 1.000000 0.000000
v 0.583333 1.000000 0.000000
v 0.666667 1.000000 0.000000
v 0.750000 1.000000 0.000000
v 0.833333 1.000000 0.000000
v 0.916667 1.000000 0.000000
v 1.000000 1.000000 0.000000
f 1 2 15
f 2 3 16
f 3 4 17
f 4 5 18
f 5 6 19
f 6 7 20
f 7 8 21
f 8 9 22
f 9 10 23
f 10 11 24
f 11 12 25
f 12 13 26
f 14 15 28
f 15 16 29
f 16 17 30
f 17 18 31
f 18 19 32
f 19 20 33
f 20 21 34
f 21 22 35
f 22 23 36
f 23 24 37
f 24 25 38
f 25 26 39
f 27 28 41
f 28 29 42
f 29 30 43
f 30 31 44
f 31 32 45
f 32 33 46
f 33 34 47
f 34 35 48
f 35 36 49
f 36 37 50
f 37 38 51
f 38 39 52
f 40 41 54
f 41 42 55
f 42 43 56
f 43 44 57
f 44 45 58
f 45 46 59
f 46 47 60
f 47 48 61
f 48 49 62
f 49 50 63
f 50 51 64
f 51 52 65
f 53 54 67
f 54 55 68
f 55 56 69
f 56 57 70
f 57 58 71
f 58 59 72
f 59 60 73
f 60 61 74
f 61 62 75
f 62 63 76
f 63 64 77
f 64 65 78
f 66 67 80
f 67 68 81
f 68 69 82
f 69 70 83
f 70 71 84
f 71 72 85
f 72 73 86
f 73 74 87
f 74 75 88
f 75 76 89
f 76 77 90
f 77 78 91
f 79 80 93
f 80 81 94
f 81 82 95
f 82 83 96
f 83 84 97
f 84 85 98
f 85 86 99
f 86 87 100
f 87 88 101
f 88 89 102
f 89 90 103
f 90 91 104
f 92 93 106
f 93 94 107
f 94 95 108
f 95 96 109
f 96 97 110
f 97 98 111
f 98 99 112
f 99 100 113
f 100 101 114
f 101 102 115
f 102 103 116
f 103 104 117
f 105 106 119
f 106 107 120
f 107 108 121
f 108 109 122
f 109 110 123
f 110 111 124
f 111 112 125
f 112 113 126
f 113 114 127
f 114 115 128
f 115 116 129
f 116 117 130
f 118 119 132
f 119 120 133
f 120 121 134
f 121 122 135
f 122 123 136
f 123 124 137
f 124 125 138
f 125 126 139
f 126 127 140
f 127 128 141
f 128 129 142
f 129 130 143
f 131 132 145
f 132 133 146
f 133 134 147
f 134 135 148
f 135 136 149
f 136 137 150
f 137 138 151
f 138 139 152
f 139 140 153
f 140 141 154
f 141 142 155
f 142 143 156
f 144 145 158
f 145 146 159
f 146 147 160
f 147 148 161
f 148 149 162
f 149 150 163
f 150 151 164
f 151 152 165
f 152 153 166
f 153 154 167
f 154 155 168
f 155 156 169
f 1 15 14
f 2 16 15
f 3 17 16
f 4 18 17
f 5 19 18
f 6 20 19
f 7 21 20
f 8 22 21
f 9 23 22
f 10 24 23
f 11 25 24
f 12 26 25
f 14 28 27
f 15 29 28
f 16 30 29
f 17 31 30
f 18 32 31
f 19 33 32
f 20 34 33
f 21 35 34
f 22 36 35
f 23 37 36
f 24 38 37
f 25 39 38
f 27 41 40
f 28 42 41
f 29 43 42
f 30 44 43
f 31 45 44
f 32 46 45
f 33 47 46
f 34 48 47
f 35 49 48
f 36 50 49
f 37 51 50
f 38 52 51
f 40 54 53
f 41 55 54
f 42 56 55
f 43 57 56
f 44 58 57
f 45 59 58
f 46 60 59
f 47 61 60
f 48 62 61
f 49 63 62
f 50 64 63
f 51 65 64
f 53 67 66
f 54 68 67
f 55 69 68
f 56 70 69
f 57 71 70
f 58 72 71
f 59 73 72
f 60 74 73
f 61 75 74
f 62 76 75
f 63 77 76
f 64 78 77
f 66 80 79
f 67 81 80
f 68 82 81
f 69 83 82
f 70 84 83
f 71 85 84
f 72 86 85
f 73 87 86
f 74 88 87
f 75 89 88
f 76 90 89
f 77 91 90
f 79 93 92
f 80 94 93
f 81 95 94
f 82 96 95
f 83 97 96
f 84 98 97
f 85 99 98
f 86 100 99
f 87 101 100
f 88 102 101
f 89 103 102
f 90 104 103
f 92 106 105
f 93 107 106
f 94 108 107
f 95 109 108
f 96 110 109
f 97 111 110
f 98 112 111
f 99 113 112
f 100 114 113
f 101 115 114
f 102 116 115
f 103 117 116
f 105 119 118
f 106 120 119
f 107 121 120
f 108 122 121
f 109 123 122
f 110 124 123
f 111 125 124
f 112 126 125
f 113 127 126
f 114 128 127
f 115 129 128
f 116 130 129
f 118 132 131
f 119 133 132
f 120 134 133
f 121 135 134
f 122 136 135
f 123 137 136
f 124 138 137
f 125 139 138
f 126 140 139
f 127 141 140
f 128 142 141
f 129 143 142
f 131 145 144
f 132 146 145
f 133 147 146
f 134 148 147
f 135 149 148
f 136 150 149
f 137 151 150
f 138 152 151
f 139 153 152
f 140 154 153
f 141 155 154
f 142 156 155
f 144 158 157
f 145 159 158
f 146 160 159
f 147 161 160
f 148 162 161
f 149 163 162
f 150 164 163
f 151 165 164
f 152 166 165
f 153 167 166
f 154 168 167
f 155 169 168
