v 0.000000 0.000000 0.000000
v 0.083333 0.000000 0.000000
v 0.166667 0.000000 0.000000
v 0.250000 0.000000 0.000000
v 0.333333 0.000000 0.000000
v 0.416667 0.000000 0.000000
v 0.500000 0.000000 0.000000
v 0.583333 0.000000 0.000000
v 0.666667 0.000000 0.000000
v 0.750000 0.000000 0.000000
v 0.833333 0.000000 0.000000
v 0.916667 0.000000 0.000000
v 1.000000 0.000000 0.000000
v 0.000000 0.083333 0.000000
v 0.071108 0.071404 0.006585
v 0.177414 0.094291 -0.033535
v 0.247447 0.084252 0.040244
v 0.347489 0.071849 -0.034573
v 0.429096 0.091443 0.035133
v 0.486245 0.098258 -0.008686
v 0.571834 0.077117 -0.025976
v 0.658594 0.083970 0.039266
v 0.761785 0.078326 0.002085
v 0.824062 0.094697 0.040199
v 0.922875 0.082765 -0.004730
v 1.000000 0.083333 0.000000
v 0.000000 0.166667 0.000000
v 0.088448 0.159310 0.017367
v 0.154377 0.178447 0.023759
v 0.260012 0.181595 -0.002159
v 0.319494 0.170917 -0.039872
v 0.411343 0.164680 -0.002500
v 0.507546 0.179822 0.027210
v 0.595389 0.165383 -0.007840
v 0.671913 0.164217 -0.027797
v 0.748466 0.180024 -0.010084
v 0.827518 0.158963 -0.031407
v 0.914026 0.162219 -0.033173
v 1.000000 0.166667 0.000000
v 0.000000 0.250000 0.000000
v 0.089114 0.257101 -0.016805
v 0.169239 0.260685 -0.003350
v 0.239953 0.263713 -0.019975
v 0.334985 0.243877 -0.024021
v 0.428721 0.247447 0.041330
v 0.488386 0.254135 -0.019630
v 0.577046 0.261569 0.041331
v 0.666904 0.260310 0.022541
v 0.748381 0.253863 0.039935
v 0.819331 0.245727 -0.044201
v 0.909025 0.235358 0.041545
v 1.000000 0.250000 0.000000
v 0.000000 0.333333 0.000000
v 0.094500 0.324278 -0.043888
v 0.178221 0.338849 0.009325
v 0.248040 0.326534 0.024639
v 0.333334 0.339142 0.002495
v 0.402635 0.329344 -0.039751
v 0.485148 0.346613 -0.026561
v 0.595984 0.343085 0.011788
v 0.680249 0.343664 0.025984
v 0.749048 0.321135 0.044652
v 0.836146 0.346124 0.011638
v 0.907296 0.322636 0.042277
v 1.000000 0.333333 0.000000
v 0.000000 0.416667 0.000000
v 0.092137 0.411574 -0.039362
v 0.174766 0.420811 -0.005153
v 0.244329 0.430152 -0.009161
v 0.333606 0.407197 -0.001100
v 0.413513 0.409111 -0.042072
v 0.488384 0.406030 -0.042848
v 0.577327 0.418496 -0.006364
v 0.666764 0.420979 0.003681
v 0.746815 0.401841 0.009744
v 0.839110 0.411601 -0.012136
v 0.927409 0.430133 -0.041032
v 1.000000 0.416667 0.000000
v 0.000000 0.500000 0.000000
v 0.093372 0.501026 -0.035849
v 0.169994 0.496071 0.029854
v 0.261102 0.504714 -0.029977
v 0.335791 0.499998 -0.021496
v 0.405559 0.507469 -0.013265
v 0.511637 0.495412 -0.023956
v 0.569180 0.511984 -0.017155
v 0.661153 0.486193 0.001642
v 0.764317 0.511344 0.033886
v 0.824041 0.510587 -0.006962
v 0.922502 0.501433 0.018506
v 1.000000 0.500000 0.000000
v 0.000000 0.583333 0.000000
v 0.072122 0.587466 -0.026091
v 0.161876 0.579716 -0.028278
v 0.239035 0.588711 0.023993
v 0.338382 0.594527 0.038083
v 0.417107 0.578705 -0.033686
v 0.490835 0.596060 -0.042626
v 0.593121 0.588773 -0.012632
v 0.675766 0.568635 -0.013181
v 0.745282 0.568950 0.032093
v 0.835853 0.586276 0.004660
v 0.909209 0.570568 -0.011453
v 1.000000 0.583333 0.000000
v 0.000000 0.666667 0.000000
v 0.095669 0.668426 -0.021810
v 0.162233 0.671658 -0.039201
v 0.255744 0.676275 0.027544
v 0.336345 0.674067 0.020787
v 0.409757 0.657453 -0.027735
v 0.492695 0.662890 0.025594
v 0.583921 0.669333 -0.035827
v 0.663634 0.660187 0.033300
v 0.762660 0.668787 -0.039464
v 0.820207 0.661149 -0.016038
v 0.920917 0.666706 0.035345
v 1.000000 0.666667 0.000000
v 0.000000 0.750000 0.000000
v 0.087332 0.755557 -0.034781
v 0.167728 0.743938 0.015562
v 0.249111 0.736782 -0.017507
v 0.334955 0.741700 -0.012559
v 0.428363 0.763004 -0.035361
v 0.489404 0.746385 0.007613
v 0.576705 0.751745 0.004415
v 0.669033 0.747955 -0.004600
v 0.749560 0.749586 -0.029642
v 0.832737 0.762632 0.012668
v 0.913854 0.759626 0.019674
v 1.000000 0.750000 0.000000
v 0.000000 0.833333 0.000000
v 0.097491 0.847774 0.025836
v 0.163391 0.832634 -0.025113
v 0.249846 0.839419 -0.002446
v 0.334059 0.828384 -0.020148
v 0.419071 0.830409 -0.003197
v 0.511902 0.818728 -0.031358
v 0.597830 0.843328 -0.031268
v 0.654896 0.826193 0.023399
v 0.739024 0.835264 -0.018655
v 0.830889 0.828214 0.013556
v 0.927542 0.837880 -0.040555
v 1.000000 0.833333 0.000000
v 0.000000 0.916667 0.000000
v 0.097134 0.915377 0.018113
v 0.151737 0.928566 -0.004355
v 0.243729 0.927583 -0.042459
v 0.335807 0.931206 -0.010049
v 0.420284 0.922273 -0.025123
v 0.498271 0.928228 0.001807
v 0.576118 0.913178 -0.003783
v 0.676179 0.926501 0.011420
v 0.747740 0.906706 0.020946
v 0.824605 0.914449 0.041379
v 0.919373 0.931043 -0.006786
v 1.000000 0.916667 0.000000
v 0.000000 1.000000 0.000000
v 0.083333 1.000000 0.000000
v 0.166667 1.000000 0.000000
v 0.250000 1.000000 0.000000
v 0.333333 1.000000 0.000000
v 0.416667 1.000000 0.000000
v 0.500000 1.000000 0.000000
v 0.583333 1.000000 0.000000
v 0.666667 1.000000 0.000000
v 0.750000 1.000000 0.000000
v 0.833333 1.000000 0.000000
v 0.916667 1.000000 0.000000
v 1.000000 1.000000 0.000000
f 1 2 15
f 2 3 16
f 3 4 17
f 4 5 18
f 5 6 19
f 6 7 20
f 7 8 21
f 8 9 22
f 9 10 23
f 10 11 24
f 11 12 25
f 12 13 26
f 14 15 28
f 15 16 29
f 16 17 30
f 17 18 31
f 18 19 32
f 19 20 33
f 20 21 34
f 21 22 35
f 22 23 36
f 23 24 37
f 24 25 38
f 25 26 39
f 27 28 41
f 28 29 42
f 29 30 43
f 30 31 44
f 31 32 45
f 32 33 46
f 33 34 47
f 34 35 48
f 35 36 49
f 36 37 50
f 37 38 51
f 38 39 52
f 40 41 54
f 41 42 55
f 42 43 56
f 43 44 57
f 44 45 58
f 45 46 59
f 46 47 60
f 47 48 61
f 48 49 62
f 49 50 63
f 50 51 64
f 51 52 65
f 53 54 67
f 54 55 68
f 55 56 69
f 56 57 70
f 57 58 71
f 58 59 72
f 59 60 73
f 60 61 74
f 61 62 75
f 62 63 76
f 63 64 77
f 64 65 78
f 66 67 80
f 67 68 81
f 68 69 82
f 69 70 83
f 70 71 84
f 71 72 85
f 72 73 86
f 73 74 87
f 74 75 88
f 75 76 89
f 76 77 90
f 77 78 91
f 79 80 93
f 80 81 94
f 81 82 95
f 82 83 96
f 83 84 97
f 84 85 98
f 85 86 99
f 86 87 100
f 87 88 101
f 88 89 102
f 89 90 103
f 90 91 104
f 92 93 106
f 93 94 107
f 94 95 108
f 95 96 109
f 96 97 110
f 97 98 111
f 98 99 112
f 99 100 113
f 100 101 114
f 101 102 115
f 102 103 116
f 103 104 117
f 105 106 119
f 106 107 120
f 107 108 121
f 108 109 122
f 109 110 123
f 110 111 124
f 111 112 125
f 112 113 126
f 113 114 127
f 114 115 128
f 115 116 129
f 116 117 130
f 118 119 132
f 119 120 133
f 120 121 134
f 121 122 135
f 122 123 136
f 123 124 137
f 124 125 138
f 125 126 139
f 126 127 140
f 127 128 141
f 128 129 142
f 129 130 143
f 131 132 145
f 132 133 146
f 133 134 147
f 134 135 148
f 135 136 149
f 136 137 150
f 137 138 151
f 138 139 152
f 139 140 153
f 140 141 154
f 141 142 155
f 142 143 156
f 144 145 158
f 145 146 159
f 146 147 160
f 147 148 161
f 148 149 162
f 149 150 163
f 150 151 164
f 151 152 165
f 152 153 166
f 153 154 167
f 154 155 168
f 155 156 169
f 1 15 14
f 2 16 15
f 3 17 16
f 4 18 17
f 5 19 18
f 6 20 19
f 7 21 20
f 8 22 21
f 9 23 22
f 10 24 23
f 11 25 24
f 12 26 25
f 14 28 27
f 15 29 28
f 16 30 29
f 17 31 30
f 18 32 31
f 19 33 32
f 20 34 33
f 21 35 34
f 22 36 35
f 23 37 36
f 24 38 37
f 25 39 38
f 27 41 40
f 28 42 41
f 29 43 42
f 30 44 43
f 31 45 44
f 32 46 45
f 33 47 46
f 34 48 47
f 35 49 48
f 36 50 49
f 37 51 50
f 38 52 51
f 40 54 53
f 41 55 54
f 42 56 55
f 43 57 56
f 44 58 57
f 45 59 58
f 46 60 59
f 47 61 60
f 48 62 61
f 49 63 62
f 50 64 63
f 51 65 64
f 53 67 66
f 54 68 67
f 55 69 68
f 56 70 69
f 57 71 70
f 58 72 71
f 59 73 72
f 60 74 73
f 61 75 74
f 62 76 75
f 63 77 76
f 64 78 77
f 66 80 79
f 67 81 80
f 68 82 81
f 69 83 82
f 70 84 83
f 71 85 84
f 72 86 85
f 73 87 86
f 74 88 87
f 75 89 88
f 76 90 89
f 77 91 90
f 79 93 92
f 80 94 93
f 81 95 94
f 82 96 95
f 83 97 96
f 84 98 97
f 85 99 98
f 86 100 99
f 87 101 100
f 88 102 101
f 89 103 102
f 90 104 103
f 92 106 105
f 93 107 106
f 94 108 107
f 95 109 108
f 96 110 109
f 97 111 110
f 98 112 111
f 99 113 112
f 100 114 113
f 101 115 114
f 102 116 115
f 103 117 116
f 105 119 118
f 106 120 119
f 107 121 120
f 108 122 121
f 109 123 122
f 110 124 123
f 111 125 124
f 112 126 125
f 113 127 126
f 114 128 127
f 115 129 128
f 116 130 129
f 118 132 131
f 119 133 132
f 120 134 133
f 121 135 134
f 122 136 135
f 123 137 136
f 124 138 137
f 125 139 138
f 126 140 139
f 127 141 140
f 128 142 141
f 129 143 142
f 131 145 144
f 132 146 145
f 133 147 146
f 134 148 147
f 135 149 148
f 136 150 149
f 137 151 150
f 138 152 151
f 139 153 152
f 140 154 153
f 141 155 154
f 142 156 155
f 144 158 157
f 145 159 158
f 146 160 159
f 147 161 160
f 148 162 161
f 149 163 162
f 150 164 163
f 151 165 164
f 152 166 165
f 153 167 166
f 154 168 167
f 155 169 168
