v 0.000000 0.000000 0.000000
v 0.083333 0.000000 0.000000
v 0.166667 0.000000 0.000000
v 0.250000 0.000000 0.000000
v 0.333333 0.000000 0.000000
v 0.416667 0.000000 0.000000
v 0.500000 0.000000 0.000000
v 0.583333 0.000000 0.000000
v 0.666667 0.000000 0.000000
v 0.750000 0.000000 0.000000
v 0.833333 0.000000 0.000000
v 0.916667 0.000000 0.000000
v 1.000000 0.000000 0.000000
v 0.000000 0.083333 0.000000
v 0.056255 0.035754 -0.038313
v 0.147165 0.078717 -0.039375
v 0.229589 0.061004 -0.015081
v 0.317015 0.035968 0.006520
v 0.396278 0.114887 0.022751
v 0.480577 0.102125 0.022781
v 0.541999 0.086380 0.011557
v 0.639453 0.087853 -0.016107
v 0.736690 0.072584 -0.010681
v 0.798242 0.068184 -0.000412
v 0.915158 0.092659 0.000882
v 1.000000 0.083333 0.000000
v 0.000000 0.166667 0.000000
v 0.088259 0.131146 -0.051467
v 0.124859 0.110561 -0.069515
v 0.231190 0.152044 -0.067160
v 0.304559 0.133283 -0.037833
v 0.391981 0.122495 0.024029
v 0.464200 0.227247 0.030709
v 0.554376 0.186232 0.044684
v 0.608919 0.177647 0.019111
v 0.690685 0.178238 -0.021427
v 0.785632 0.186806 -0.020614
v 0.885511 0.163818 -0.000862
v 1.000000 0.166667 0.000000
v 0.000000 0.250000 0.000000
v 0.109919 0.227800 0.009400
v 0.177013 0.212941 -0.065594
v 0.212364 0.202790 -0.086714
v 0.298842 0.184834 -0.093180
v 0.384116 0.203885 -0.055859
v 0.465030 0.228278 0.022005
v 0.576711 0.344773 0.066469
v 0.636505 0.322429 0.076554
v 0.688599 0.314033 0.043693
v 0.739229 0.264776 -0.012462
v 0.873008 0.296122 -0.023215
v 1.000000 0.250000 0.000000
v 0.000000 0.333333 0.000000
v 0.104960 0.309657 0.014468
v 0.204801 0.273160 -0.034705
v 0.210989 0.272024 -0.046239
v 0.286992 0.299513 -0.128535
v 0.393474 0.264921 -0.120335
v 0.457539 0.258771 -0.055135
v 0.583904 0.343178 0.000319
v 0.644129 0.391574 0.081928
v 0.686321 0.372377 0.070298
v 0.816454 0.383807 0.023299
v 0.862000 0.345574 -0.009086
v 1.000000 0.333333 0.000000
v 0.000000 0.416667 0.000000
v 0.090117 0.385195 0.028814
v 0.216616 0.378801 0.005377
v 0.269706 0.366107 -0.046257
v 0.286938 0.362858 -0.072666
v 0.391322 0.360990 -0.132904
v 0.471234 0.325449 -0.108878
v 0.582904 0.342548 -0.000153
v 0.677171 0.424710 0.034311
v 0.687577 0.429982 0.067550
v 0.808983 0.411612 0.035815
v 0.948691 0.464679 0.013222
v 1.000000 0.416667 0.000000
v 0.000000 0.500000 0.000000
v 0.072238 0.471415 0.036468
v 0.199377 0.452857 0.055802
v 0.311252 0.469110 0.008790
v 0.332650 0.475474 -0.027229
v 0.364161 0.473283 -0.078670
v 0.500119 0.473517 -0.144962
v 0.590864 0.430710 -0.077207
v 0.682861 0.430220 0.034466
v 0.763073 0.506564 0.036090
v 0.767278 0.506337 0.037849
v 0.920105 0.517680 0.014988
v 1.000000 0.500000 0.000000
v 0.000000 0.583333 0.000000
v 0.047387 0.553686 0.028766
v 0.145330 0.550342 0.068571
v 0.280712 0.544285 0.075340
v 0.367784 0.562888 0.031178
v 0.391097 0.570545 -0.030252
v 0.486224 0.544424 -0.133103
v 0.607731 0.534160 -0.141234
v 0.714213 0.517913 -0.031948
v 0.764058 0.507877 0.035928
v 0.862865 0.619701 0.015668
v 0.890203 0.601727 0.015865
v 1.000000 0.583333 0.000000
v 0.000000 0.666667 0.000000
v 0.118488 0.642053 0.010803
v 0.124822 0.635370 0.016656
v 0.253641 0.636741 0.066147
v 0.350424 0.627856 0.076831
v 0.418433 0.627578 0.025691
v 0.478004 0.628311 -0.069969
v 0.582952 0.629552 -0.133180
v 0.725306 0.607709 -0.131538
v 0.819142 0.636314 -0.022773
v 0.850681 0.629837 0.011322
v 0.955800 0.709816 0.001891
v 1.000000 0.666667 0.000000
v 0.000000 0.750000 0.000000
v 0.117059 0.696528 0.006753
v 0.250525 0.697112 0.026260
v 0.252365 0.699208 0.026471
v 0.327799 0.690334 0.067739
v 0.443484 0.712343 0.103898
v 0.503461 0.717670 0.024259
v 0.561198 0.709828 -0.072402
v 0.693565 0.733408 -0.135715
v 0.804820 0.717492 -0.097700
v 0.910537 0.752770 -0.009202
v 0.917986 0.753558 -0.001260
v 1.000000 0.750000 0.000000
v 0.000000 0.833333 0.000000
v 0.125262 0.825325 -0.023319
v 0.194440 0.810382 -0.013145
v 0.325462 0.812656 0.010483
v 0.337010 0.808291 0.013363
v 0.418412 0.787905 0.057140
v 0.491796 0.772025 0.080806
v 0.619875 0.830776 0.006331
v 0.674272 0.815304 -0.057529
v 0.774115 0.816204 -0.123566
v 0.891569 0.823618 -0.053383
v 0.994403 0.836126 0.002051
v 1.000000 0.833333 0.000000
v 0.000000 0.916667 0.000000
v 0.113741 0.909751 0.000616
v 0.184963 0.914990 -0.011349
v 0.270868 0.873164 -0.016010
v 0.390101 0.946523 0.000588
v 0.428080 0.937918 0.002265
v 0.511807 0.921314 0.022239
v 0.593924 0.892749 0.033941
v 0.711305 0.921578 -0.002135
v 0.764314 0.907400 -0.031922
v 0.856928 0.899815 -0.056136
v 0.971270 0.913245 -0.012521
v 1.000000 0.916667 0.000000
v 0.000000 1.000000 0.000000
v 0.083333 1.000000 0.000000
v 0.166667 1.000000 0.000000
v 0.250000 1.000000 0.000000
v 0.333333 1.000000 0.000000
v 0.416667 1.000000 0.000000
v 0.500000 1.000000 0.000000
v 0.583333 1.000000 0.000000
v 0.666667 1.000000 0.000000
v 0.750000 1.000000 0.000000
v 0.833333 1.000000 0.000000
v 0.916667 1.000000 0.000000
v 1.000000 1.000000 0.000000
f 1 2 15
f 2 3 16
f 3 4 17
f 4 5 18
f 5 6 19
f 6 7 20
f 7 8 21
f 8 9 22
f 9 10 23
f 10 11 24
f 11 12 25
f 12 13 26
f 14 15 28
f 15 16 29
f 16 17 30
f 17 18 31
f 18 19 32
f 19 20 33
f 20 21 34
f 21 22 35
f 22 23 36
f 23 24 37
f 24 25 38
f 25 26 39
f 27 28 41
f 28 29 42
f 29 30 43
f 30 31 44
f 31 32 45
f 32 33 46
f 33 34 47
f 34 35 48
f 35 36 49
f 36 37 50
f 37 38 51
f 38 39 52
f 40 41 54
f 41 42 55
f 42 43 56
f 43 44 57
f 44 45 58
f 45 46 59
f 46 47 60
f 47 48 61
f 48 49 62
f 49 50 63
f 50 51 64
f 51 52 65
f 53 54 67
f 54 55 68
f 55 56 69
f 56 57 70
f 57 58 71
f 58 59 72
f 59 60 73
f 60 61 74
f 61 62 75
f 62 63 76
f 63 64 77
f 64 65 78
f 66 67 80
f 67 68 81
f 68 69 82
f 69 70 83
f 70 71 84
f 71 72 85
f 72 73 86
f 73 74 87
f 74 75 88
f 75 76 89
f 76 77 90
f 77 78 91
f 79 80 93
f 80 81 94
f 81 82 95
f 82 83 96
f 83 84 97
f 84 85 98
f 85 86 99
f 86 87 100
f 87 88 101
f 88 89 102
f 89 90 103
f 90 91 104
f 92 93 106
f 93 94 107
f 94 95 108
f 95 96 109
f 96 97 110
f 97 98 111
f 98 99 112
f 99 100 113
f 100 101 114
f 101 102 115
f 102 103 116
f 103 104 117
f 105 106 119
f 106 107 120
f 107 108 121
f 108 109 122
f 109 110 123
f 110 111 124
f 111 112 125
f 112 113 126
f 113 114 127
f 114 115 128
f 115 116 129
f 116 117 130
f 118 119 132
f 119 120 133
f 120 121 134
f 121 122 135
f 122 123 136
f 123 124 137
f 124 125 138
f 125 126 139
f 126 127 140
f 127 128 141
f 128 129 142
f 129 130 143
f 131 132 145
f 132 133 146
f 133 134 147
f 134 135 148
f 135 136 149
f 136 137 150
f 137 138 151
f 138 139 152
f 139 140 153
f 140 141 154
f 141 142 155
f 142 143 156
f 144 145 158
f 145 146 159
f 146 147 160
f 147 148 161
f 148 149 162
f 149 150 163
f 150 151 164
f 151 152 165
f 152 153 166
f 153 154 167
f 154 155 168
f 155 156 169
f 1 15 14
f 2 16 15
f 3 17 16
f 4 18 17
f 5 19 18
f 6 20 19
f 7 21 20
f 8 22 21
f 9 23 22
f 10 24 23
f 11 25 24
f 12 26 25
f 14 28 27
f 15 29 28
f 16 30 29
f 17 31 30
f 18 32 31
f 19 33 32
f 20 34 33
f 21 35 34
f 22 36 35
f 23 37 36
f 24 38 37
f 25 39 38
f 27 41 40
f 28 42 41
f 29 43 42
f 30 44 43
f 31 45 44
f 32 46 45
f 33 47 46
f 34 48 47
f 35 49 48
f 36 50 49
f 37 51 50
f 38 52 51
f 40 54 53
f 41 55 54
f 42 56 55
f 43 57 56
f 44 58 57
f 45 59 58
f 46 60 59
f 47 61 60
f 48 62 61
f 49 63 62
f 50 64 63
f 51 65 64
f 53 67 66
f 54 68 67
f 55 69 68
f 56 70 69
f 57 71 70
f 58 72 71
f 59 73 72
f 60 74 73
f 61 75 74
f 62 76 75
f 63 77 76
f 64 78 77
f 66 80 79
f 67 81 80
f 68 82 81
f 69 83 82
f 70 84 83
f 71 85 84
f 72 86 85
f 73 87 86
f 74 88 87
f 75 89 88
f 76 90 89
f 77 91 90
f 79 93 92
f 80 94 93
f 81 95 94
f 82 96 95
f 83 97 96
f 84 98 97
f 85 99 98
f 86 100 99
f 87 101 100
f 88 102 101
f 89 103 102
f 90 104 103
f 92 106 105
f 93 107 106
f 94 108 107
f 95 109 108
f 96 110 109
f 97 111 110
f 98 112 111
f 99 113 112
f 100 114 113
f 101 115 114
f 102 116 115
f 103 117 116
f 105 119 118
f 106 120 119
f 107 121 120
f 108 122 121
f 109 123 122
f 110 124 123
f 111 125 124
f 112 126 125
f 113 127 126
f 114 128 127
f 115 129 128
f 116 130 129
f 118 132 131
f 119 133 132
f 120 134 133
f 121 135 134
f 122 136 135
f 123 137 136
f 124 138 137
f 125 139 138
f 126 140 139
f 127 141 140
f 128 142 141
f 129 143 142
f 131 145 144
f 132 146 145
f 133 147 146
f 134 148 147
f 135 149 148
f 136 150 149
f 137 151 150
f 138 152 151
f 139 153 152
f 140 154 153
f 141 155 154
f 142 156 155
f 144 158 157
f 145 159 158
f 146 160 159
f 147 161 160
f 148 162 161
f 149 163 162
f 150 164 163
f 151 165 164
f 152 166 165
f 153 167 166
f 154 168 167
f 155 169 168
