v 0.000000 0.000000 0.000000
v 0.025000 0.000000 0.000000
v 0.050000 0.000000 0.000000
v 0.075000 0.000000 0.000000
v 0.100000 0.000000 0.000000
v 0.125000 0.000000 0.000000
v 0.150000 0.000000 0.000000
v 0.175000 0.000000 0.000000
v 0.200000 0.000000 0.000000
v 0.225000 0.000000 0.000000
v 0.250000 0.000000 0.000000
v 0.275000 0.000000 0.000000
v 0.300000 0.000000 0.000000
v 0.325000 0.000000 0.000000
v 0.350000 0.000000 0.000000
v 0.375000 0.000000 0.000000
v 0.400000 0.000000 0.000000
v 0.425000 0.000000 0.000000
v 0.450000 0.000000 0.000000
v 0.475000 0.000000 0.000000
v 0.500000 0.000000 0.000000
v 0.525000 0.000000 0.000000
v 0.550000 0.000000 0.000000
v 0.575000 0.000000 0.000000
v 0.600000 0.000000 0.000000
v 0.625000 0.000000 0.000000
v 0.650000 0.000000 0.000000
v 0.675000 0.000000 0.000000
v 0.700000 0.000000 0.000000
v 0.725000 0.000000 0.000000
v 0.750000 0.000000 0.000000
v 0.775000 0.000000 0.000000
v 0.800000 0.000000 0.000000
v 0.825000 0.000000 0.000000
v 0.850000 0.000000 0.000000
v 0.875000 0.000000 0.000000
v 0.900000 0.000000 0.000000
v 0.925000 0.000000 0.000000
v 0.950000 0.000000 0.000000
v 0.975000 0.000000 0.000000
v 1.000000 0.000000 0.000000
v 0.000000 0.025000 0.000000
v 0.025000 0.025000 0.000000
v 0.050000 0.025000 0.000000
v 0.075000 0.025000 0.000000
v 0.100000 0.025000 0.000000
v 0.125000 0.025000 0.000000
v 0.150000 0.025000 0.000000
v 0.175000 0.025000 0.000000
v 0.200000 0.025000 0.000000
v 0.225000 0.025000 0.000000
v 0.250000 0.025000 0.000000
v 0.275000 0.025000 0.000000
v 0.300000 0.025000 0.000000
v 0.325000 0.025000 0.000000
v 0.350000 0.025000 0.000000
v 0.375000 0.025000 0.000000
v 0.400000 0.025000 0.000000
v 0.425000 0.025000 0.000000
v 0.450000 0.025000 0.000000
v 0.475000 0.025000 0.000000
v 0.500000 0.025000 0.000000
v 0.525000 0.025000 0.000000
v 0.550000 0.025000 0.000000
v 0.575000 0.025000 0.000000
v 0.600000 0.025000 0.000000
v 0.625000 0.025000 0.000000
v 0.650000 0.025000 0.000000
v 0.675000 0.025000 0.000000
v 0.700000 0.025000 0.000000
v 0.725000 0.025000 0.000000
v 0.750000 0.025000 0.000000
v 0.775000 0.025000 0.000000
v 0.800000 0.025000 0.000000
v 0.825000 0.025000 0.000000
v 0.850000 0.025000 0.000000
v 0.875000 0.025000 0.000000
v 0.900000 0.025000 0.000000
v 0.925000 0.025000 0.000000
v 0.950000 0.025000 0.000000
v 0.975000 0.025000 0.000000
v 1.000000 0.025000 0.000000
v 0.000000 0.050000 0.000000
v 0.025000 0.050000 0.000000
v 0.050000 0.050000 0.000000
v 0.075000 0.050000 0.000000
v 0.100000 0.050000 0.000000
v 0.125000 0.050000 0.000000
v 0.150000 0.050000 0.000000
v 0.175000 0.050000 0.000000
v 0.200000 0.050000 0.000000
v 0.225000 0.050000 0.000000
v 0.250000 0.050000 0.000000
v 0.275000 0.050000 0.000000
v 0.300000 0.050000 0.000000
v 0.325000 0.050000 0.000000
v 0.350000 0.050000 0.000000
v 0.375000 0.050000 0.000000
v 0.400000 0.050000 0.000000
v 0.425000 0.050000 0.000000
v 0.450000 0.050000 0.000000
v 0.475000 0.050000 0.000000
v 0.500000 0.050000 0.000000
v 0.525000 0.050000 0.000000
v 0.550000 0.050000 0.000000
v 0.575000 0.050000 0.000000
v 0.600000 0.050000 0.000000
v 0.625000 0.050000 0.000000
v 0.650000 0.050000 0.000000
v 0.675000 0.050000 0.000000
v 0.700000 0.050000 0.000000
v 0.725000 0.050000 0.000000
v 0.750000 0.050000 0.000000
v 0.775000 0.050000 0.000000
v 0.800000 0.050000 0.000000
v 0.825000 0.050000 0.000000
v 0.850000 0.050000 0.000000
v 0.875000 0.050000 0.000000
v 0.900000 0.050000 0.000000
v 0.925000 0.050000 0.000000
v 0.950000 0.050000 0.000000
v 0.975000 0.050000 0.000000
v 1.000000 0.050000 0.000000
v 0.000000 0.075000 0.000000
v 0.025000 0.075000 0.000000
v 0.050000 0.075000 0.000000
v 0.075000 0.075000 0.000000
v 0.100000 0.075000 0.000000
v 0.125000 0.075000 0.000000
v 0.150000 0.075000 0.000000
v 0.175000 0.075000 0.000000
v 0.200000 0.075000 0.000000
v 0.225000 0.075000 0.000000
v 0.250000 0.075000 0.000000
v 0.275000 0.075000 0.000000
v 0.300000 0.075000 0.000000
v 0.325000 0.075000 0.000000
v 0.350000 0.075000 0.000000
v 0.375000 0.075000 0.000000
v 0.400000 0.075000 0.000000
v 0.425000 0.075000 0.000000
v 0.450000 0.075000 0.000000
v 0.475000 0.075000 0.000000
v 0.500000 0.075000 0.000000
v 0.525000 0.075000 0.000000
v 0.550000 0.075000 0.000000
v 0.575000 0.075000 0.000000
v 0.600000 0.075000 0.000000
v 0.625000 0.075000 0.000000
v 0.650000 0.075000 0.000000
v 0.675000 0.075000 0.000000
v 0.700000 0.075000 0.000000
v 0.725000 0.075000 0.000000
v 0.750000 0.075000 0.000000
v 0.775000 0.075000 0.000000
v 0.800000 0.075000 0.000000
v 0.825000 0.075000 0.000000
v 0.850000 0.075000 0.000000
v 0.875000 0.075000 0.000000
v 0.900000 0.075000 0.000000
v 0.925000 0.075000 0.000000
v 0.950000 0.075000 0.000000
v 0.975000 0.075000 0.000000
v 1.000000 0.075000 0.000000
v 0.000000 0.100000 0.000000
v 0.025000 0.100000 0.000000
v 0.050000 0.100000 0.000000
v 0.075000 0.100000 0.000000
v 0.100000 0.100000 0.000000
v 0.125000 0.100000 0.000000
v 0.150000 0.100000 0.000000
v 0.175000 0.100000 0.000000
v 0.200000 0.100000 0.000000
v 0.225000 0.100000 0.000000
v 0.250000 0.100000 0.000000
v 0.275000 0.100000 0.000000
v 0.300000 0.100000 0.000000
v 0.325000 0.100000 0.000000
v 0.350000 0.100000 0.000000
v 0.375000 0.100000 0.000000
v 0.400000 0.100000 0.000000
v 0.425000 0.100000 0.000000
v 0.450000 0.100000 0.000000
v 0.475000 0.100000 0.000000
v 0.500000 0.100000 0.000000
v 0.525000 0.100000 0.000000
v 0.550000 0.100000 0.000000
v 0.575000 0.100000 0.000000
v 0.600000 0.100000 0.000000
v 0.625000 0.100000 0.000000
v 0.650000 0.100000 0.000000
v 0.675000 0.100000 0.000000
v 0.700000 0.100000 0.000000
v 0.725000 0.100000 0.000000
v 0.750000 0.100000 0.000000
v 0.775000 0.100000 0.000000
v 0.800000 0.100000 0.000000
v 0.825000 0.100000 0.000000
v 0.850000 0.100000 0.000000
v 0.875000 0.100000 0.000000
v 0.900000 0.100000 0.000000
v 0.925000 0.100000 0.000000
v 0.950000 0.100000 0.000000
v 0.975000 0.100000 0.000000
v 1.000000 0.100000 0.000000
v 0.000000 0.125000 0.000000
v 0.025000 0.125000 0.000000
v 0.050000 0.125000 0.000000
v 0.075000 0.125000 0.000000
v 0.100000 0.125000 0.000000
v 0.125000 0.125000 0.000000
v 0.150000 0.125000 0.000000
v 0.175000 0.125000 0.000000
v 0.200000 0.125000 0.000000
v 0.225000 0.125000 0.000000
v 0.250000 0.125000 0.000000
v 0.275000 0.125000 0.000000
v 0.300000 0.125000 0.000000
v 0.325000 0.125000 0.000000
v 0.350000 0.125000 0.000000
v 0.375000 0.125000 0.000000
v 0.400000 0.125000 0.000000
v 0.425000 0.125000 0.000000
v 0.450000 0.125000 0.000000
v 0.475000 0.125000 0.000000
v 0.500000 0.125000 0.000000
v 0.525000 0.125000 0.000000
v 0.550000 0.125000 0.000000
v 0.575000 0.125000 0.000000
v 0.600000 0.125000 0.000000
v 0.625000 0.125000 0.000000
v 0.650000 0.125000 0.000000
v 0.675000 0.125000 0.000000
v 0.700000 0.125000 0.000000
v 0.725000 0.125000 0.000000
v 0.750000 0.125000 0.000000
v 0.775000 0.125000 0.000000
v 0.800000 0.125000 0.000000
v 0.825000 0.125000 0.000000
v 0.850000 0.125000 0.000000
v 0.875000 0.125000 0.000000
v 0.900000 0.125000 0.000000
v 0.925000 0.125000 0.000000
v 0.950000 0.125000 0.000000
v 0.975000 0.125000 0.000000
v 1.000000 0.125000 0.000000
v 0.000000 0.150000 0.000000
v 0.025000 0.150000 0.000000
v 0.050000 0.150000 0.000000
v 0.075000 0.150000 0.000000
v 0.100000 0.150000 0.000000
v 0.125000 0.150000 0.000000
v 0.150000 0.150000 0.000000
v 0.175000 0.150000 0.000000
v 0.200000 0.150000 0.000000
v 0.225000 0.150000 0.000000
v 0.250000 0.150000 0.000000
v 0.275000 0.150000 0.000000
v 0.300000 0.150000 0.000000
v 0.325000 0.150000 0.000000
v 0.350000 0.150000 0.000000
v 0.375000 0.150000 0.000000
v 0.400000 0.150000 0.000000
v 0.425000 0.150000 0.000000
v 0.450000 0.150000 0.000000
v 0.475000 0.150000 0.000000
v 0.500000 0.150000 0.000000
v 0.525000 0.150000 0.000000
v 0.550000 0.150000 0.000000
v 0.575000 0.150000 0.000000
v 0.600000 0.150000 0.000000
v 0.625000 0.150000 0.000000
v 0.650000 0.150000 0.000000
v 0.675000 0.150000 0.000000
v 0.700000 0.150000 0.000000
v 0.725000 0.150000 0.000000
v 0.750000 0.150000 0.000000
v 0.775000 0.150000 0.000000
v 0.800000 0.150000 0.000000
v 0.825000 0.150000 0.000000
v 0.850000 0.150000 0.000000
v 0.875000 0.150000 0.000000
v 0.900000 0.150000 0.000000
v 0.925000 0.150000 0.000000
v 0.950000 0.150000 0.000000
v 0.975000 0.150000 0.000000
v 1.000000 0.150000 0.000000
v 0.000000 0.175000 0.000000
v 0.025000 0.175000 0.000000
v 0.050000 0.175000 0.000000
v 0.075000 0.175000 0.000000
v 0.100000 0.175000 0.000000
v 0.125000 0.175000 0.000000
v 0.150000 0.175000 0.000000
v 0.175000 0.175000 0.000000
v 0.200000 0.175000 0.000000
v 0.225000 0.175000 0.000000
v 0.250000 0.175000 0.000000
v 0.275000 0.175000 0.000000
v 0.300000 0.175000 0.000000
v 0.325000 0.175000 0.000000
v 0.350000 0.175000 0.000000
v 0.375000 0.175000 0.000000
v 0.400000 0.175000 0.000000
v 0.425000 0.175000 0.000000
v 0.450000 0.175000 0.000000
v 0.475000 0.175000 0.000000
v 0.500000 0.175000 0.000000
v 0.525000 0.175000 0.000000
v 0.550000 0.175000 0.000000
v 0.575000 0.175000 0.000000
v 0.600000 0.175000 0.000000
v 0.625000 0.175000 0.000000
v 0.650000 0.175000 0.000000
v 0.675000 0.175000 0.000000
v 0.700000 0.175000 0.000000
v 0.725000 0.175000 0.000000
v 0.750000 0.175000 0.000000
v 0.775000 0.175000 0.000000
v 0.800000 0.175000 0.000000
v 0.825000 0.175000 0.000000
v 0.850000 0.175000 0.000000
v 0.875000 0.175000 0.000000
v 0.900000 0.175000 0.000000
v 0.925000 0.175000 0.000000
v 0.950000 0.175000 0.000000
v 0.975000 0.175000 0.000000
v 1.000000 0.175000 0.000000
v 0.000000 0.200000 0.000000
v 0.025000 0.200000 0.000000
v 0.050000 0.200000 0.000000
v 0.075000 0.200000 0.000000
v 0.100000 0.200000 0.000000
v 0.125000 0.200000 0.000000
v 0.150000 0.200000 0.000000
v 0.175000 0.200000 0.000000
v 0.200000 0.200000 0.000000
v 0.225000 0.200000 0.000000
v 0.250000 0.200000 0.000000
v 0.275000 0.200000 0.000000
v 0.300000 0.200000 0.000000
v 0.325000 0.200000 0.000000
v 0.350000 0.200000 0.000000
v 0.375000 0.200000 0.000000
v 0.400000 0.200000 0.000000
v 0.425000 0.200000 0.000000
v 0.450000 0.200000 0.000000
v 0.475000 0.200000 0.000000
v 0.500000 0.200000 0.000000
v 0.525000 0.200000 0.000000
v 0.550000 0.200000 0.000000
v 0.575000 0.200000 0.000000
v 0.600000 0.200000 0.000000
v 0.625000 0.200000 0.000000
v 0.650000 0.200000 0.000000
v 0.675000 0.200000 0.000000
v 0.700000 0.200000 0.000000
v 0.725000 0.200000 0.000000
v 0.750000 0.200000 0.000000
v 0.775000 0.200000 0.000000
v 0.800000 0.200000 0.000000
v 0.825000 0.200000 0.000000
v 0.850000 0.200000 0.000000
v 0.875000 0.200000 0.000000
v 0.900000 0.200000 0.000000
v 0.925000 0.200000 0.000000
v 0.950000 0.200000 0.000000
v 0.975000 0.200000 0.000000
v 1.000000 0.200000 0.000000
v 0.000000 0.225000 0.000000
v 0.025000 0.225000 0.000000
v 0.050000 0.225000 0.000000
v 0.075000 0.225000 0.000000
v 0.100000 0.225000 0.000000
v 0.125000 0.225000 0.000000
v 0.150000 0.225000 0.000000
v 0.175000 0.225000 0.000000
v 0.200000 0.225000 0.000000
v 0.225000 0.225000 0.000000
v 0.250000 0.225000 0.000000
v 0.275000 0.225000 0.000000
v 0.300000 0.225000 0.000000
v 0.325000 0.225000 0.000000
v 0.350000 0.225000 0.000000
v 0.375000 0.225000 0.000000
v 0.400000 0.225000 0.000000
v 0.425000 0.225000 0.000000
v 0.450000 0.225000 0.000000
v 0.475000 0.225000 0.000000
v 0.500000 0.225000 0.000000
v 0.525000 0.225000 0.000000
v 0.550000 0.225000 0.000000
v 0.575000 0.225000 0.000000
v 0.600000 0.225000 0.000000
v 0.625000 0.225000 0.000000
v 0.650000 0.225000 0.000000
v 0.675000 0.225000 0.000000
v 0.700000 0.225000 0.000000
v 0.725000 0.225000 0.000000
v 0.750000 0.225000 0.000000
v 0.775000 0.225000 0.000000
v 0.800000 0.225000 0.000000
v 0.825000 0.225000 0.000000
v 0.850000 0.225000 0.000000
v 0.875000 0.225000 0.000000
v 0.900000 0.225000 0.000000
v 0.925000 0.225000 0.000000
v 0.950000 0.225000 0.000000
v 0.975000 0.225000 0.000000
v 1.000000 0.225000 0.000000
v 0.000000 0.250000 0.000000
v 0.025000 0.250000 0.000000
v 0.050000 0.250000 0.000000
v 0.075000 0.250000 0.000000
v 0.100000 0.250000 0.000000
v 0.125000 0.250000 0.000000
v 0.150000 0.250000 0.000000
v 0.175000 0.250000 0.000000
v 0.200000 0.250000 0.000000
v 0.225000 0.250000 0.000000
v 0.250000 0.250000 0.000000
v 0.275000 0.250000 0.000000
v 0.300000 0.250000 0.000000
v 0.325000 0.250000 0.000000
v 0.350000 0.250000 0.000000
v 0.375000 0.250000 0.000000
v 0.400000 0.250000 0.000000
v 0.425000 0.250000 0.000000
v 0.450000 0.250000 0.000000
v 0.475000 0.250000 0.000000
v 0.500000 0.250000 0.000000
v 0.525000 0.250000 0.000000
v 0.550000 0.250000 0.000000
v 0.575000 0.250000 0.000000
v 0.600000 0.250000 0.000000
v 0.625000 0.250000 0.000000
v 0.650000 0.250000 0.000000
v 0.675000 0.250000 0.000000
v 0.700000 0.250000 0.000000
v 0.725000 0.250000 0.000000
v 0.750000 0.250000 0.000000
v 0.775000 0.250000 0.000000
v 0.800000 0.250000 0.000000
v 0.825000 0.250000 0.000000
v 0.850000 0.250000 0.000000
v 0.875000 0.250000 0.000000
v 0.900000 0.250000 0.000000
v 0.925000 0.250000 0.000000
v 0.950000 0.250000 0.000000
v 0.975000 0.250000 0.000000
v 1.000000 0.250000 0.000000
v 0.000000 0.275000 0.000000
v 0.025000 0.275000 0.000000
v 0.050000 0.275000 0.000000
v 0.075000 0.275000 0.000000
v 0.100000 0.275000 0.000000
v 0.125000 0.275000 0.000000
v 0.150000 0.275000 0.000000
v 0.175000 0.275000 0.000000
v 0.200000 0.275000 0.000000
v 0.225000 0.275000 0.000000
v 0.250000 0.275000 0.000000
v 0.275000 0.275000 0.000000
v 0.300000 0.275000 0.000000
v 0.325000 0.275000 0.000000
v 0.350000 0.275000 0.000000
v 0.375000 0.275000 0.000000
v 0.400000 0.275000 0.000000
v 0.425000 0.275000 0.000000
v 0.450000 0.275000 0.000000
v 0.475000 0.275000 0.000000
v 0.500000 0.275000 0.000000
v 0.525000 0.275000 0.000000
v 0.550000 0.275000 0.000000
v 0.575000 0.275000 0.000000
v 0.600000 0.275000 0.000000
v 0.625000 0.275000 0.000000
v 0.650000 0.275000 0.000000
v 0.675000 0.275000 0.000000
v 0.700000 0.275000 0.000000
v 0.725000 0.275000 0.000000
v 0.750000 0.275000 0.000000
v 0.775000 0.275000 0.000000
v 0.800000 0.275000 0.000000
v 0.825000 0.275000 0.000000
v 0.850000 0.275000 0.000000
v 0.875000 0.275000 0.000000
v 0.900000 0.275000 0.000000
v 0.925000 0.275000 0.000000
v 0.950000 0.275000 0.000000
v 0.975000 0.275000 0.000000
v 1.000000 0.275000 0.000000
v 0.000000 0.300000 0.000000
v 0.025000 0.300000 0.000000
v 0.050000 0.300000 0.000000
v 0.075000 0.300000 0.000000
v 0.100000 0.300000 0.000000
v 0.125000 0.300000 0.000000
v 0.150000 0.300000 0.000000
v 0.175000 0.300000 0.000000
v 0.200000 0.300000 0.000000
v 0.225000 0.300000 0.000000
v 0.250000 0.300000 0.000000
v 0.275000 0.300000 0.000000
v 0.300000 0.300000 0.000000
v 0.325000 0.300000 0.000000
v 0.350000 0.300000 0.000000
v 0.375000 0.300000 0.000000
v 0.400000 0.300000 0.000000
v 0.425000 0.300000 0.000000
v 0.450000 0.300000 0.000000
v 0.475000 0.300000 0.000000
v 0.500000 0.300000 0.000000
v 0.525000 0.300000 0.000000
v 0.550000 0.300000 0.000000
v 0.575000 0.300000 0.000000
v 0.600000 0.300000 0.000000
v 0.625000 0.300000 0.000000
v 0.650000 0.300000 0.000000
v 0.675000 0.300000 0.000000
v 0.700000 0.300000 0.000000
v 0.725000 0.300000 0.000000
v 0.750000 0.300000 0.000000
v 0.775000 0.300000 0.000000
v 0.800000 0.300000 0.000000
v 0.825000 0.300000 0.000000
v 0.850000 0.300000 0.000000
v 0.875000 0.300000 0.000000
v 0.900000 0.300000 0.000000
v 0.925000 0.300000 0.000000
v 0.950000 0.300000 0.000000
v 0.975000 0.300000 0.000000
v 1.000000 0.300000 0.000000
v 0.000000 0.325000 0.000000
v 0.025000 0.325000 0.000000
v 0.050000 0.325000 0.000000
v 0.075000 0.325000 0.000000
v 0.100000 0.325000 0.000000
v 0.125000 0.325000 0.000000
v 0.150000 0.325000 0.000000
v 0.175000 0.325000 0.000000
v 0.200000 0.325000 0.000000
v 0.225000 0.325000 0.000000
v 0.250000 0.325000 0.000000
v 0.275000 0.325000 0.000000
v 0.300000 0.325000 0.000000
v 0.325000 0.325000 0.000000
v 0.350000 0.325000 0.000000
v 0.375000 0.325000 0.000000
v 0.400000 0.325000 0.000000
v 0.425000 0.325000 0.000000
v 0.450000 0.325000 0.000000
v 0.475000 0.325000 0.000000
v 0.500000 0.325000 0.000000
v 0.525000 0.325000 0.000000
v 0.550000 0.325000 0.000000
v 0.575000 0.325000 0.000000
v 0.600000 0.325000 0.000000
v 0.625000 0.325000 0.000000
v 0.650000 0.325000 0.000000
v 0.675000 0.325000 0.000000
v 0.700000 0.325000 0.000000
v 0.725000 0.325000 0.000000
v 0.750000 0.325000 0.000000
v 0.775000 0.325000 0.000000
v 0.800000 0.325000 0.000000
v 0.825000 0.325000 0.000000
v 0.850000 0.325000 0.000000
v 0.875000 0.325000 0.000000
v 0.900000 0.325000 0.000000
v 0.925000 0.325000 0.000000
v 0.950000 0.325000 0.000000
v 0.975000 0.325000 0.000000
v 1.000000 0.325000 0.000000
v 0.000000 0.350000 0.000000
v 0.025000 0.350000 0.000000
v 0.050000 0.350000 0.000000
v 0.075000 0.350000 0.000000
v 0.100000 0.350000 0.000000
v 0.125000 0.350000 0.000000
v 0.150000 0.350000 0.000000
v 0.175000 0.350000 0.000000
v 0.200000 0.350000 0.000000
v 0.225000 0.350000 0.000000
v 0.250000 0.350000 0.000000
v 0.275000 0.350000 0.000000
v 0.300000 0.350000 0.000000
v 0.325000 0.350000 0.000000
v 0.350000 0.350000 0.000000
v 0.375000 0.350000 0.000000
v 0.400000 0.350000 0.000000
v 0.425000 0.350000 0.000000
v 0.450000 0.350000 0.000000
v 0.475000 0.350000 0.000000
v 0.500000 0.350000 0.000000
v 0.525000 0.350000 0.000000
v 0.550000 0.350000 0.000000
v 0.575000 0.350000 0.000000
v 0.600000 0.350000 0.000000
v 0.625000 0.350000 0.000000
v 0.650000 0.350000 0.000000
v 0.675000 0.350000 0.000000
v 0.700000 0.350000 0.000000
v 0.725000 0.350000 0.000000
v 0.750000 0.350000 0.000000
v 0.775000 0.350000 0.000000
v 0.800000 0.350000 0.000000
v 0.825000 0.350000 0.000000
v 0.850000 0.350000 0.000000
v 0.875000 0.350000 0.000000
v 0.900000 0.350000 0.000000
v 0.925000 0.350000 0.000000
v 0.950000 0.350000 0.000000
v 0.975000 0.350000 0.000000
v 1.000000 0.350000 0.000000
v 0.000000 0.375000 0.000000
v 0.025000 0.375000 0.000000
v 0.050000 0.375000 0.000000
v 0.075000 0.375000 0.000000
v 0.100000 0.375000 0.000000
v 0.125000 0.375000 0.000000
v 0.150000 0.375000 0.000000
v 0.175000 0.375000 0.000000
v 0.200000 0.375000 0.000000
v 0.225000 0.375000 0.000000
v 0.250000 0.375000 0.000000
v 0.275000 0.375000 0.000000
v 0.300000 0.375000 0.000000
v 0.325000 0.375000 0.000000
v 0.350000 0.375000 0.000000
v 0.375000 0.375000 0.000000
v 0.400000 0.375000 0.000000
v 0.425000 0.375000 0.000000
v 0.450000 0.375000 0.000000
v 0.475000 0.375000 0.000000
v 0.500000 0.375000 0.000000
v 0.525000 0.375000 0.000000
v 0.550000 0.375000 0.000000
v 0.575000 0.375000 0.000000
v 0.600000 0.375000 0.000000
v 0.625000 0.375000 0.000000
v 0.650000 0.375000 0.000000
v 0.675000 0.375000 0.000000
v 0.700000 0.375000 0.000000
v 0.725000 0.375000 0.000000
v 0.750000 0.375000 0.000000
v 0.775000 0.375000 0.000000
v 0.800000 0.375000 0.000000
v 0.825000 0.375000 0.000000
v 0.850000 0.375000 0.000000
v 0.875000 0.375000 0.000000
v 0.900000 0.375000 0.000000
v 0.925000 0.375000 0.000000
v 0.950000 0.375000 0.000000
v 0.975000 0.375000 0.000000
v 1.000000 0.375000 0.000000
v 0.000000 0.400000 0.000000
v 0.025000 0.400000 0.000000
v 0.050000 0.400000 0.000000
v 0.075000 0.400000 0.000000
v 0.100000 0.400000 0.000000
v 0.125000 0.400000 0.000000
v 0.150000 0.400000 0.000000
v 0.175000 0.400000 0.000000
v 0.200000 0.400000 0.000000
v 0.225000 0.400000 0.000000
v 0.250000 0.400000 0.000000
v 0.275000 0.400000 0.000000
v 0.300000 0.400000 0.000000
v 0.325000 0.400000 0.000000
v 0.350000 0.400000 0.000000
v 0.375000 0.400000 0.000000
v 0.400000 0.400000 0.000000
v 0.425000 0.400000 0.000000
v 0.450000 0.400000 0.000000
v 0.475000 0.400000 0.000000
v 0.500000 0.400000 0.000000
v 0.525000 0.400000 0.000000
v 0.550000 0.400000 0.000000
v 0.575000 0.400000 0.000000
v 0.600000 0.400000 0.000000
v 0.625000 0.400000 0.000000
v 0.650000 0.400000 0.000000
v 0.675000 0.400000 0.000000
v 0.700000 0.400000 0.000000
v 0.725000 0.400000 0.000000
v 0.750000 0.400000 0.000000
v 0.775000 0.400000 0.000000
v 0.800000 0.400000 0.000000
v 0.825000 0.400000 0.000000
v 0.850000 0.400000 0.000000
v 0.875000 0.400000 0.000000
v 0.900000 0.400000 0.000000
v 0.925000 0.400000 0.000000
v 0.950000 0.400000 0.000000
v 0.975000 0.400000 0.000000
v 1.000000 0.400000 0.000000
v 0.000000 0.425000 0.000000
v 0.025000 0.425000 0.000000
v 0.050000 0.425000 0.000000
v 0.075000 0.425000 0.000000
v 0.100000 0.425000 0.000000
v 0.125000 0.425000 0.000000
v 0.150000 0.425000 0.000000
v 0.175000 0.425000 0.000000
v 0.200000 0.425000 0.000000
v 0.225000 0.425000 0.000000
v 0.250000 0.425000 0.000000
v 0.275000 0.425000 0.000000
v 0.300000 0.425000 0.000000
v 0.325000 0.425000 0.000000
v 0.350000 0.425000 0.000000
v 0.375000 0.425000 0.000000
v 0.400000 0.425000 0.000000
v 0.425000 0.425000 0.000000
v 0.450000 0.425000 0.000000
v 0.475000 0.425000 0.000000
v 0.500000 0.425000 0.000000
v 0.525000 0.425000 0.000000
v 0.550000 0.425000 0.000000
v 0.575000 0.425000 0.000000
v 0.600000 0.425000 0.000000
v 0.625000 0.425000 0.000000
v 0.650000 0.425000 0.000000
v 0.675000 0.425000 0.000000
v 0.700000 0.425000 0.000000
v 0.725000 0.425000 0.000000
v 0.750000 0.425000 0.000000
v 0.775000 0.425000 0.000000
v 0.800000 0.425000 0.000000
v 0.825000 0.425000 0.000000
v 0.850000 0.425000 0.000000
v 0.875000 0.425000 0.000000
v 0.900000 0.425000 0.000000
v 0.925000 0.425000 0.000000
v 0.950000 0.425000 0.000000
v 0.975000 0.425000 0.000000
v 1.000000 0.425000 0.000000
v 0.000000 0.450000 0.000000
v 0.025000 0.450000 0.000000
v 0.050000 0.450000 0.000000
v 0.075000 0.450000 0.000000
v 0.100000 0.450000 0.000000
v 0.125000 0.450000 0.000000
v 0.150000 0.450000 0.000000
v 0.175000 0.450000 0.000000
v 0.200000 0.450000 0.000000
v 0.225000 0.450000 0.000000
v 0.250000 0.450000 0.000000
v 0.275000 0.450000 0.000000
v 0.300000 0.450000 0.000000
v 0.325000 0.450000 0.000000
v 0.350000 0.450000 0.000000
v 0.375000 0.450000 0.000000
v 0.400000 0.450000 0.000000
v 0.425000 0.450000 0.000000
v 0.450000 0.450000 0.000000
v 0.475000 0.450000 0.000000
v 0.500000 0.450000 0.000000
v 0.525000 0.450000 0.000000
v 0.550000 0.450000 0.000000
v 0.575000 0.450000 0.000000
v 0.600000 0.450000 0.000000
v 0.625000 0.450000 0.000000
v 0.650000 0.450000 0.000000
v 0.675000 0.450000 0.000000
v 0.700000 0.450000 0.000000
v 0.725000 0.450000 0.000000
v 0.750000 0.450000 0.000000
v 0.775000 0.450000 0.000000
v 0.800000 0.450000 0.000000
v 0.825000 0.450000 0.000000
v 0.850000 0.450000 0.000000
v 0.875000 0.450000 0.000000
v 0.900000 0.450000 0.000000
v 0.925000 0.450000 0.000000
v 0.950000 0.450000 0.000000
v 0.975000 0.450000 0.000000
v 1.000000 0.450000 0.000000
v 0.000000 0.475000 0.000000
v 0.025000 0.475000 0.000000
v 0.050000 0.475000 0.000000
v 0.075000 0.475000 0.000000
v 0.100000 0.475000 0.000000
v 0.125000 0.475000 0.000000
v 0.150000 0.475000 0.000000
v 0.175000 0.475000 0.000000
v 0.200000 0.475000 0.000000
v 0.225000 0.475000 0.000000
v 0.250000 0.475000 0.000000
v 0.275000 0.475000 0.000000
v 0.300000 0.475000 0.000000
v 0.325000 0.475000 0.000000
v 0.350000 0.475000 0.000000
v 0.375000 0.475000 0.000000
v 0.400000 0.475000 0.000000
v 0.425000 0.475000 0.000000
v 0.450000 0.475000 0.000000
v 0.475000 0.475000 0.000000
v 0.500000 0.475000 0.000000
v 0.525000 0.475000 0.000000
v 0.550000 0.475000 0.000000
v 0.575000 0.475000 0.000000
v 0.600000 0.475000 0.000000
v 0.625000 0.475000 0.000000
v 0.650000 0.475000 0.000000
v 0.675000 0.475000 0.000000
v 0.700000 0.475000 0.000000
v 0.725000 0.475000 0.000000
v 0.750000 0.475000 0.000000
v 0.775000 0.475000 0.000000
v 0.800000 0.475000 0.000000
v 0.825000 0.475000 0.000000
v 0.850000 0.475000 0.000000
v 0.875000 0.475000 0.000000
v 0.900000 0.475000 0.000000
v 0.925000 0.475000 0.000000
v 0.950000 0.475000 0.000000
v 0.975000 0.475000 0.000000
v 1.000000 0.475000 0.000000
v 0.000000 0.500000 0.000000
v 0.025000 0.500000 0.000000
v 0.050000 0.500000 0.000000
v 0.075000 0.500000 0.000000
v 0.100000 0.500000 0.000000
v 0.125000 0.500000 0.000000
v 0.150000 0.500000 0.000000
v 0.175000 0.500000 0.000000
v 0.200000 0.500000 0.000000
v 0.225000 0.500000 0.000000
v 0.250000 0.500000 0.000000
v 0.275000 0.500000 0.000000
v 0.300000 0.500000 0.000000
v 0.325000 0.500000 0.000000
v 0.350000 0.500000 0.000000
v 0.375000 0.500000 0.000000
v 0.400000 0.500000 0.000000
v 0.425000 0.500000 0.000000
v 0.450000 0.500000 0.000000
v 0.475000 0.500000 0.000000
v 0.500000 0.500000 0.000000
v 0.525000 0.500000 0.000000
v 0.550000 0.500000 0.000000
v 0.575000 0.500000 0.000000
v 0.600000 0.500000 0.000000
v 0.625000 0.500000 0.000000
v 0.650000 0.500000 0.000000
v 0.675000 0.500000 0.000000
v 0.700000 0.500000 0.000000
v 0.725000 0.500000 0.000000
v 0.750000 0.500000 0.000000
v 0.775000 0.500000 0.000000
v 0.800000 0.500000 0.000000
v 0.825000 0.500000 0.000000
v 0.850000 0.500000 0.000000
v 0.875000 0.500000 0.000000
v 0.900000 0.500000 0.000000
v 0.925000 0.500000 0.000000
v 0.950000 0.500000 0.000000
v 0.975000 0.500000 0.000000
v 1.000000 0.500000 0.000000
v 0.000000 0.525000 0.000000
v 0.025000 0.525000 0.000000
v 0.050000 0.525000 0.000000
v 0.075000 0.525000 0.000000
v 0.100000 0.525000 0.000000
v 0.125000 0.525000 0.000000
v 0.150000 0.525000 0.000000
v 0.175000 0.525000 0.000000
v 0.200000 0.525000 0.000000
v 0.225000 0.525000 0.000000
v 0.250000 0.525000 0.000000
v 0.275000 0.525000 0.000000
v 0.300000 0.525000 0.000000
v 0.325000 0.525000 0.000000
v 0.350000 0.525000 0.000000
v 0.375000 0.525000 0.000000
v 0.400000 0.525000 0.000000
v 0.425000 0.525000 0.000000
v 0.450000 0.525000 0.000000
v 0.475000 0.525000 0.000000
v 0.500000 0.525000 0.000000
v 0.525000 0.525000 0.000000
v 0.550000 0.525000 0.000000
v 0.575000 0.525000 0.000000
v 0.600000 0.525000 0.000000
v 0.625000 0.525000 0.000000
v 0.650000 0.525000 0.000000
v 0.675000 0.525000 0.000000
v 0.700000 0.525000 0.000000
v 0.725000 0.525000 0.000000
v 0.750000 0.525000 0.000000
v 0.775000 0.525000 0.000000
v 0.800000 0.525000 0.000000
v 0.825000 0.525000 0.000000
v 0.850000 0.525000 0.000000
v 0.875000 0.525000 0.000000
v 0.900000 0.525000 0.000000
v 0.925000 0.525000 0.000000
v 0.950000 0.525000 0.000000
v 0.975000 0.525000 0.000000
v 1.000000 0.525000 0.000000
v 0.000000 0.550000 0.000000
v 0.025000 0.550000 0.000000
v 0.050000 0.550000 0.000000
v 0.075000 0.550000 0.000000
v 0.100000 0.550000 0.000000
v 0.125000 0.550000 0.000000
v 0.150000 0.550000 0.000000
v 0.175000 0.550000 0.000000
v 0.200000 0.550000 0.000000
v 0.225000 0.550000 0.000000
v 0.250000 0.550000 0.000000
v 0.275000 0.550000 0.000000
v 0.300000 0.550000 0.000000
v 0.325000 0.550000 0.000000
v 0.350000 0.550000 0.000000
v 0.375000 0.550000 0.000000
v 0.400000 0.550000 0.000000
v 0.425000 0.550000 0.000000
v 0.450000 0.550000 0.000000
v 0.475000 0.550000 0.000000
v 0.500000 0.550000 0.000000
v 0.525000 0.550000 0.000000
v 0.550000 0.550000 0.000000
v 0.575000 0.550000 0.000000
v 0.600000 0.550000 0.000000
v 0.625000 0.550000 0.000000
v 0.650000 0.550000 0.000000
v 0.675000 0.550000 0.000000
v 0.700000 0.550000 0.000000
v 0.725000 0.550000 0.000000
v 0.750000 0.550000 0.000000
v 0.775000 0.550000 0.000000
v 0.800000 0.550000 0.000000
v 0.825000 0.550000 0.000000
v 0.850000 0.550000 0.000000
v 0.875000 0.550000 0.000000
v 0.900000 0.550000 0.000000
v 0.925000 0.550000 0.000000
v 0.950000 0.550000 0.000000
v 0.975000 0.550000 0.000000
v 1.000000 0.550000 0.000000
v 0.000000 0.575000 0.000000
v 0.025000 0.575000 0.000000
v 0.050000 0.575000 0.000000
v 0.075000 0.575000 0.000000
v 0.100000 0.575000 0.000000
v 0.125000 0.575000 0.000000
v 0.150000 0.575000 0.000000
v 0.175000 0.575000 0.000000
v 0.200000 0.575000 0.000000
v 0.225000 0.575000 0.000000
v 0.250000 0.575000 0.000000
v 0.275000 0.575000 0.000000
v 0.300000 0.575000 0.000000
v 0.325000 0.575000 0.000000
v 0.350000 0.575000 0.000000
v 0.375000 0.575000 0.000000
v 0.400000 0.575000 0.000000
v 0.425000 0.575000 0.000000
v 0.450000 0.575000 0.000000
v 0.475000 0.575000 0.000000
v 0.500000 0.575000 0.000000
v 0.525000 0.575000 0.000000
v 0.550000 0.575000 0.000000
v 0.575000 0.575000 0.000000
v 0.600000 0.575000 0.000000
v 0.625000 0.575000 0.000000
v 0.650000 0.575000 0.000000
v 0.675000 0.575000 0.000000
v 0.700000 0.575000 0.000000
v 0.725000 0.575000 0.000000
v 0.750000 0.575000 0.000000
v 0.775000 0.575000 0.000000
v 0.800000 0.575000 0.000000
v 0.825000 0.575000 0.000000
v 0.850000 0.575000 0.000000
v 0.875000 0.575000 0.000000
v 0.900000 0.575000 0.000000
v 0.925000 0.575000 0.000000
v 0.950000 0.575000 0.000000
v 0.975000 0.575000 0.000000
v 1.000000 0.575000 0.000000
v 0.000000 0.600000 0.000000
v 0.025000 0.600000 0.000000
v 0.050000 0.600000 0.000000
v 0.075000 0.600000 0.000000
v 0.100000 0.600000 0.000000
v 0.125000 0.600000 0.000000
v 0.150000 0.600000 0.000000
v 0.175000 0.600000 0.000000
v 0.200000 0.600000 0.000000
v 0.225000 0.600000 0.000000
v 0.250000 0.600000 0.000000
v 0.275000 0.600000 0.000000
v 0.300000 0.600000 0.000000
v 0.325000 0.600000 0.000000
v 0.350000 0.600000 0.000000
v 0.375000 0.600000 0.000000
v 0.400000 0.600000 0.000000
v 0.425000 0.600000 0.000000
v 0.450000 0.600000 0.000000
v 0.475000 0.600000 0.000000
v 0.500000 0.600000 0.000000
v 0.525000 0.600000 0.000000
v 0.550000 0.600000 0.000000
v 0.575000 0.600000 0.000000
v 0.600000 0.600000 0.000000
v 0.625000 0.600000 0.000000
v 0.650000 0.600000 0.000000
v 0.675000 0.600000 0.000000
v 0.700000 0.600000 0.000000
v 0.725000 0.600000 0.000000
v 0.750000 0.600000 0.000000
v 0.775000 0.600000 0.000000
v 0.800000 0.600000 0.000000
v 0.825000 0.600000 0.000000
v 0.850000 0.600000 0.000000
v 0.875000 0.600000 0.000000
v 0.900000 0.600000 0.000000
v 0.925000 0.600000 0.000000
v 0.950000 0.600000 0.000000
v 0.975000 0.600000 0.000000
v 1.000000 0.600000 0.000000
v 0.000000 0.625000 0.000000
v 0.025000 0.625000 0.000000
v 0.050000 0.625000 0.000000
v 0.075000 0.625000 0.000000
v 0.100000 0.625000 0.000000
v 0.125000 0.625000 0.000000
v 0.150000 0.625000 0.000000
v 0.175000 0.625000 0.000000
v 0.200000 0.625000 0.000000
v 0.225000 0.625000 0.000000
v 0.250000 0.625000 0.000000
v 0.275000 0.625000 0.000000
v 0.300000 0.625000 0.000000
v 0.325000 0.625000 0.000000
v 0.350000 0.625000 0.000000
v 0.375000 0.625000 0.000000
v 0.400000 0.625000 0.000000
v 0.425000 0.625000 0.000000
v 0.450000 0.625000 0.000000
v 0.475000 0.625000 0.000000
v 0.500000 0.625000 0.000000
v 0.525000 0.625000 0.000000
v 0.550000 0.625000 0.000000
v 0.575000 0.625000 0.000000
v 0.600000 0.625000 0.000000
v 0.625000 0.625000 0.000000
v 0.650000 0.625000 0.000000
v 0.675000 0.625000 0.000000
v 0.700000 0.625000 0.000000
v 0.725000 0.625000 0.000000
v 0.750000 0.625000 0.000000
v 0.775000 0.625000 0.000000
v 0.800000 0.625000 0.000000
v 0.825000 0.625000 0.000000
v 0.850000 0.625000 0.000000
v 0.875000 0.625000 0.000000
v 0.900000 0.625000 0.000000
v 0.925000 0.625000 0.000000
v 0.950000 0.625000 0.000000
v 0.975000 0.625000 0.000000
v 1.000000 0.625000 0.000000
v 0.000000 0.650000 0.000000
v 0.025000 0.650000 0.000000
v 0.050000 0.650000 0.000000
v 0.075000 0.650000 0.000000
v 0.100000 0.650000 0.000000
v 0.125000 0.650000 0.000000
v 0.150000 0.650000 0.000000
v 0.175000 0.650000 0.000000
v 0.200000 0.650000 0.000000
v 0.225000 0.650000 0.000000
v 0.250000 0.650000 0.000000
v 0.275000 0.650000 0.000000
v 0.300000 0.650000 0.000000
v 0.325000 0.650000 0.000000
v 0.350000 0.650000 0.000000
v 0.375000 0.650000 0.000000
v 0.400000 0.650000 0.000000
v 0.425000 0.650000 0.000000
v 0.450000 0.650000 0.000000
v 0.475000 0.650000 0.000000
v 0.500000 0.650000 0.000000
v 0.525000 0.650000 0.000000
v 0.550000 0.650000 0.000000
v 0.575000 0.650000 0.000000
v 0.600000 0.650000 0.000000
v 0.625000 0.650000 0.000000
v 0.650000 0.650000 0.000000
v 0.675000 0.650000 0.000000
v 0.700000 0.650000 0.000000
v 0.725000 0.650000 0.000000
v 0.750000 0.650000 0.000000
v 0.775000 0.650000 0.000000
v 0.800000 0.650000 0.000000
v 0.825000 0.650000 0.000000
v 0.850000 0.650000 0.000000
v 0.875000 0.650000 0.000000
v 0.900000 0.650000 0.000000
v 0.925000 0.650000 0.000000
v 0.950000 0.650000 0.000000
v 0.975000 0.650000 0.000000
v 1.000000 0.650000 0.000000
v 0.000000 0.675000 0.000000
v 0.025000 0.675000 0.000000
v 0.050000 0.675000 0.000000
v 0.075000 0.675000 0.000000
v 0.100000 0.675000 0.000000
v 0.125000 0.675000 0.000000
v 0.150000 0.675000 0.000000
v 0.175000 0.675000 0.000000
v 0.200000 0.675000 0.000000
v 0.225000 0.675000 0.000000
v 0.250000 0.675000 0.000000
v 0.275000 0.675000 0.000000
v 0.300000 0.675000 0.000000
v 0.325000 0.675000 0.000000
v 0.350000 0.675000 0.000000
v 0.375000 0.675000 0.000000
v 0.400000 0.675000 0.000000
v 0.425000 0.675000 0.000000
v 0.450000 0.675000 0.000000
v 0.475000 0.675000 0.000000
v 0.500000 0.675000 0.000000
v 0.525000 0.675000 0.000000
v 0.550000 0.675000 0.000000
v 0.575000 0.675000 0.000000
v 0.600000 0.675000 0.000000
v 0.625000 0.675000 0.000000
v 0.650000 0.675000 0.000000
v 0.675000 0.675000 0.000000
v 0.700000 0.675000 0.000000
v 0.725000 0.675000 0.000000
v 0.750000 0.675000 0.000000
v 0.775000 0.675000 0.000000
v 0.800000 0.675000 0.000000
v 0.825000 0.675000 0.000000
v 0.850000 0.675000 0.000000
v 0.875000 0.675000 0.000000
v 0.900000 0.675000 0.000000
v 0.925000 0.675000 0.000000
v 0.950000 0.675000 0.000000
v 0.975000 0.675000 0.000000
v 1.000000 0.675000 0.000000
v 0.000000 0.700000 0.000000
v 0.025000 0.700000 0.000000
v 0.050000 0.700000 0.000000
v 0.075000 0.700000 0.000000
v 0.100000 0.700000 0.000000
v 0.125000 0.700000 0.000000
v 0.150000 0.700000 0.000000
v 0.175000 0.700000 0.000000
v 0.200000 0.700000 0.000000
v 0.225000 0.700000 0.000000
v 0.250000 0.700000 0.000000
v 0.275000 0.700000 0.000000
v 0.300000 0.700000 0.000000
v 0.325000 0.700000 0.000000
v 0.350000 0.700000 0.000000
v 0.375000 0.700000 0.000000
v 0.400000 0.700000 0.000000
v 0.425000 0.700000 0.000000
v 0.450000 0.700000 0.000000
v 0.475000 0.700000 0.000000
v 0.500000 0.700000 0.000000
v 0.525000 0.700000 0.000000
v 0.550000 0.700000 0.000000
v 0.575000 0.700000 0.000000
v 0.600000 0.700000 0.000000
v 0.625000 0.700000 0.000000
v 0.650000 0.700000 0.000000
v 0.675000 0.700000 0.000000
v 0.700000 0.700000 0.000000
v 0.725000 0.700000 0.000000
v 0.750000 0.700000 0.000000
v 0.775000 0.700000 0.000000
v 0.800000 0.700000 0.000000
v 0.825000 0.700000 0.000000
v 0.850000 0.700000 0.000000
v 0.875000 0.700000 0.000000
v 0.900000 0.700000 0.000000
v 0.925000 0.700000 0.000000
v 0.950000 0.700000 0.000000
v 0.975000 0.700000 0.000000
v 1.000000 0.700000 0.000000
v 0.000000 0.725000 0.000000
v 0.025000 0.725000 0.000000
v 0.050000 0.725000 0.000000
v 0.075000 0.725000 0.000000
v 0.100000 0.725000 0.000000
v 0.125000 0.725000 0.000000
v 0.150000 0.725000 0.000000
v 0.175000 0.725000 0.000000
v 0.200000 0.725000 0.000000
v 0.225000 0.725000 0.000000
v 0.250000 0.725000 0.000000
v 0.275000 0.725000 0.000000
v 0.300000 0.725000 0.000000
v 0.325000 0.725000 0.000000
v 0.350000 0.725000 0.000000
v 0.375000 0.725000 0.000000
v 0.400000 0.725000 0.000000
v 0.425000 0.725000 0.000000
v 0.450000 0.725000 0.000000
v 0.475000 0.725000 0.000000
v 0.500000 0.725000 0.000000
v 0.525000 0.725000 0.000000
v 0.550000 0.725000 0.000000
v 0.575000 0.725000 0.000000
v 0.600000 0.725000 0.000000
v 0.625000 0.725000 0.000000
v 0.650000 0.725000 0.000000
v 0.675000 0.725000 0.000000
v 0.700000 0.725000 0.000000
v 0.725000 0.725000 0.000000
v 0.750000 0.725000 0.000000
v 0.775000 0.725000 0.000000
v 0.800000 0.725000 0.000000
v 0.825000 0.725000 0.000000
v 0.850000 0.725000 0.000000
v 0.875000 0.725000 0.000000
v 0.900000 0.725000 0.000000
v 0.925000 0.725000 0.000000
v 0.950000 0.725000 0.000000
v 0.975000 0.725000 0.000000
v 1.000000 0.725000 0.000000
v 0.000000 0.750000 0.000000
v 0.025000 0.750000 0.000000
v 0.050000 0.750000 0.000000
v 0.075000 0.750000 0.000000
v 0.100000 0.750000 0.000000
v 0.125000 0.750000 0.000000
v 0.150000 0.750000 0.000000
v 0.175000 0.750000 0.000000
v 0.200000 0.750000 0.000000
v 0.225000 0.750000 0.000000
v 0.250000 0.750000 0.000000
v 0.275000 0.750000 0.000000
v 0.300000 0.750000 0.000000
v 0.325000 0.750000 0.000000
v 0.350000 0.750000 0.000000
v 0.375000 0.750000 0.000000
v 0.400000 0.750000 0.000000
v 0.425000 0.750000 0.000000
v 0.450000 0.750000 0.000000
v 0.475000 0.750000 0.000000
v 0.500000 0.750000 0.000000
v 0.525000 0.750000 0.000000
v 0.550000 0.750000 0.000000
v 0.575000 0.750000 0.000000
v 0.600000 0.750000 0.000000
v 0.625000 0.750000 0.000000
v 0.650000 0.750000 0.000000
v 0.675000 0.750000 0.000000
v 0.700000 0.750000 0.000000
v 0.725000 0.750000 0.000000
v 0.750000 0.750000 0.000000
v 0.775000 0.750000 0.000000
v 0.800000 0.750000 0.000000
v 0.825000 0.750000 0.000000
v 0.850000 0.750000 0.000000
v 0.875000 0.750000 0.000000
v 0.900000 0.750000 0.000000
v 0.925000 0.750000 0.000000
v 0.950000 0.750000 0.000000
v 0.975000 0.750000 0.000000
v 1.000000 0.750000 0.000000
v 0.000000 0.775000 0.000000
v 0.025000 0.775000 0.000000
v 0.050000 0.775000 0.000000
v 0.075000 0.775000 0.000000
v 0.100000 0.775000 0.000000
v 0.125000 0.775000 0.000000
v 0.150000 0.775000 0.000000
v 0.175000 0.775000 0.000000
v 0.200000 0.775000 0.000000
v 0.225000 0.775000 0.000000
v 0.250000 0.775000 0.000000
v 0.275000 0.775000 0.000000
v 0.300000 0.775000 0.000000
v 0.325000 0.775000 0.000000
v 0.350000 0.775000 0.000000
v 0.375000 0.775000 0.000000
v 0.400000 0.775000 0.000000
v 0.425000 0.775000 0.000000
v 0.450000 0.775000 0.000000
v 0.475000 0.775000 0.000000
v 0.500000 0.775000 0.000000
v 0.525000 0.775000 0.000000
v 0.550000 0.775000 0.000000
v 0.575000 0.775000 0.000000
v 0.600000 0.775000 0.000000
v 0.625000 0.775000 0.000000
v 0.650000 0.775000 0.000000
v 0.675000 0.775000 0.000000
v 0.700000 0.775000 0.000000
v 0.725000 0.775000 0.000000
v 0.750000 0.775000 0.000000
v 0.775000 0.775000 0.000000
v 0.800000 0.775000 0.000000
v 0.825000 0.775000 0.000000
v 0.850000 0.775000 0.000000
v 0.875000 0.775000 0.000000
v 0.900000 0.775000 0.000000
v 0.925000 0.775000 0.000000
v 0.950000 0.775000 0.000000
v 0.975000 0.775000 0.000000
v 1.000000 0.775000 0.000000
v 0.000000 0.800000 0.000000
v 0.025000 0.800000 0.000000
v 0.050000 0.800000 0.000000
v 0.075000 0.800000 0.000000
v 0.100000 0.800000 0.000000
v 0.125000 0.800000 0.000000
v 0.150000 0.800000 0.000000
v 0.175000 0.800000 0.000000
v 0.200000 0.800000 0.000000
v 0.225000 0.800000 0.000000
v 0.250000 0.800000 0.000000
v 0.275000 0.800000 0.000000
v 0.300000 0.800000 0.000000
v 0.325000 0.800000 0.000000
v 0.350000 0.800000 0.000000
v 0.375000 0.800000 0.000000
v 0.400000 0.800000 0.000000
v 0.425000 0.800000 0.000000
v 0.450000 0.800000 0.000000
v 0.475000 0.800000 0.000000
v 0.500000 0.800000 0.000000
v 0.525000 0.800000 0.000000
v 0.550000 0.800000 0.000000
v 0.575000 0.800000 0.000000
v 0.600000 0.800000 0.000000
v 0.625000 0.800000 0.000000
v 0.650000 0.800000 0.000000
v 0.675000 0.800000 0.000000
v 0.700000 0.800000 0.000000
v 0.725000 0.800000 0.000000
v 0.750000 0.800000 0.000000
v 0.775000 0.800000 0.000000
v 0.800000 0.800000 0.000000
v 0.825000 0.800000 0.000000
v 0.850000 0.800000 0.000000
v 0.875000 0.800000 0.000000
v 0.900000 0.800000 0.000000
v 0.925000 0.800000 0.000000
v 0.950000 0.800000 0.000000
v 0.975000 0.800000 0.000000
v 1.000000 0.800000 0.000000
v 0.000000 0.825000 0.000000
v 0.025000 0.825000 0.000000
v 0.050000 0.825000 0.000000
v 0.075000 0.825000 0.000000
v 0.100000 0.825000 0.000000
v 0.125000 0.825000 0.000000
v 0.150000 0.825000 0.000000
v 0.175000 0.825000 0.000000
v 0.200000 0.825000 0.000000
v 0.225000 0.825000 0.000000
v 0.250000 0.825000 0.000000
v 0.275000 0.825000 0.000000
v 0.300000 0.825000 0.000000
v 0.325000 0.825000 0.000000
v 0.350000 0.825000 0.000000
v 0.375000 0.825000 0.000000
v 0.400000 0.825000 0.000000
v 0.425000 0.825000 0.000000
v 0.450000 0.825000 0.000000
v 0.475000 0.825000 0.000000
v 0.500000 0.825000 0.000000
v 0.525000 0.825000 0.000000
v 0.550000 0.825000 0.000000
v 0.575000 0.825000 0.000000
v 0.600000 0.825000 0.000000
v 0.625000 0.825000 0.000000
v 0.650000 0.825000 0.000000
v 0.675000 0.825000 0.000000
v 0.700000 0.825000 0.000000
v 0.725000 0.825000 0.000000
v 0.750000 0.825000 0.000000
v 0.775000 0.825000 0.000000
v 0.800000 0.825000 0.000000
v 0.825000 0.825000 0.000000
v 0.850000 0.825000 0.000000
v 0.875000 0.825000 0.000000
v 0.900000 0.825000 0.000000
v 0.925000 0.825000 0.000000
v 0.950000 0.825000 0.000000
v 0.975000 0.825000 0.000000
v 1.000000 0.825000 0.000000
v 0.000000 0.850000 0.000000
v 0.025000 0.850000 0.000000
v 0.050000 0.850000 0.000000
v 0.075000 0.850000 0.000000
v 0.100000 0.850000 0.000000
v 0.125000 0.850000 0.000000
v 0.150000 0.850000 0.000000
v 0.175000 0.850000 0.000000
v 0.200000 0.850000 0.000000
v 0.225000 0.850000 0.000000
v 0.250000 0.850000 0.000000
v 0.275000 0.850000 0.000000
v 0.300000 0.850000 0.000000
v 0.325000 0.850000 0.000000
v 0.350000 0.850000 0.000000
v 0.375000 0.850000 0.000000
v 0.400000 0.850000 0.000000
v 0.425000 0.850000 0.000000
v 0.450000 0.850000 0.000000
v 0.475000 0.850000 0.000000
v 0.500000 0.850000 0.000000
v 0.525000 0.850000 0.000000
v 0.550000 0.850000 0.000000
v 0.575000 0.850000 0.000000
v 0.600000 0.850000 0.000000
v 0.625000 0.850000 0.000000
v 0.650000 0.850000 0.000000
v 0.675000 0.850000 0.000000
v 0.700000 0.850000 0.000000
v 0.725000 0.850000 0.000000
v 0.750000 0.850000 0.000000
v 0.775000 0.850000 0.000000
v 0.800000 0.850000 0.000000
v 0.825000 0.850000 0.000000
v 0.850000 0.850000 0.000000
v 0.875000 0.850000 0.000000
v 0.900000 0.850000 0.000000
v 0.925000 0.850000 0.000000
v 0.950000 0.850000 0.000000
v 0.975000 0.850000 0.000000
v 1.000000 0.850000 0.000000
v 0.000000 0.875000 0.000000
v 0.025000 0.875000 0.000000
v 0.050000 0.875000 0.000000
v 0.075000 0.875000 0.000000
v 0.100000 0.875000 0.000000
v 0.125000 0.875000 0.000000
v 0.150000 0.875000 0.000000
v 0.175000 0.875000 0.000000
v 0.200000 0.875000 0.000000
v 0.225000 0.875000 0.000000
v 0.250000 0.875000 0.000000
v 0.275000 0.875000 0.000000
v 0.300000 0.875000 0.000000
v 0.325000 0.875000 0.000000
v 0.350000 0.875000 0.000000
v 0.375000 0.875000 0.000000
v 0.400000 0.875000 0.000000
v 0.425000 0.875000 0.000000
v 0.450000 0.875000 0.000000
v 0.475000 0.875000 0.000000
v 0.500000 0.875000 0.000000
v 0.525000 0.875000 0.000000
v 0.550000 0.875000 0.000000
v 0.575000 0.875000 0.000000
v 0.600000 0.875000 0.000000
v 0.625000 0.875000 0.000000
v 0.650000 0.875000 0.000000
v 0.675000 0.875000 0.000000
v 0.700000 0.875000 0.000000
v 0.725000 0.875000 0.000000
v 0.750000 0.875000 0.000000
v 0.775000 0.875000 0.000000
v 0.800000 0.875000 0.000000
v 0.825000 0.875000 0.000000
v 0.850000 0.875000 0.000000
v 0.875000 0.875000 0.000000
v 0.900000 0.875000 0.000000
v 0.925000 0.875000 0.000000
v 0.950000 0.875000 0.000000
v 0.975000 0.875000 0.000000
v 1.000000 0.875000 0.000000
v 0.000000 0.900000 0.000000
v 0.025000 0.900000 0.000000
v 0.050000 0.900000 0.000000
v 0.075000 0.900000 0.000000
v 0.100000 0.900000 0.000000
v 0.125000 0.900000 0.000000
v 0.150000 0.900000 0.000000
v 0.175000 0.900000 0.000000
v 0.200000 0.900000 0.000000
v 0.225000 0.900000 0.000000
v 0.250000 0.900000 0.000000
v 0.275000 0.900000 0.000000
v 0.300000 0.900000 0.000000
v 0.325000 0.900000 0.000000
v 0.350000 0.900000 0.000000
v 0.375000 0.900000 0.000000
v 0.400000 0.900000 0.000000
v 0.425000 0.900000 0.000000
v 0.450000 0.900000 0.000000
v 0.475000 0.900000 0.000000
v 0.500000 0.900000 0.000000
v 0.525000 0.900000 0.000000
v 0.550000 0.900000 0.000000
v 0.575000 0.900000 0.000000
v 0.600000 0.900000 0.000000
v 0.625000 0.900000 0.000000
v 0.650000 0.900000 0.000000
v 0.675000 0.900000 0.000000
v 0.700000 0.900000 0.000000
v 0.725000 0.900000 0.000000
v 0.750000 0.900000 0.000000
v 0.775000 0.900000 0.000000
v 0.800000 0.900000 0.000000
v 0.825000 0.900000 0.000000
v 0.850000 0.900000 0.000000
v 0.875000 0.900000 0.000000
v 0.900000 0.900000 0.000000
v 0.925000 0.900000 0.000000
v 0.950000 0.900000 0.000000
v 0.975000 0.900000 0.000000
v 1.000000 0.900000 0.000000
v 0.000000 0.925000 0.000000
v 0.025000 0.925000 0.000000
v 0.050000 0.925000 0.000000
v 0.075000 0.925000 0.000000
v 0.100000 0.925000 0.000000
v 0.125000 0.925000 0.000000
v 0.150000 0.925000 0.000000
v 0.175000 0.925000 0.000000
v 0.200000 0.925000 0.000000
v 0.225000 0.925000 0.000000
v 0.250000 0.925000 0.000000
v 0.275000 0.925000 0.000000
v 0.300000 0.925000 0.000000
v 0.325000 0.925000 0.000000
v 0.350000 0.925000 0.000000
v 0.375000 0.925000 0.000000
v 0.400000 0.925000 0.000000
v 0.425000 0.925000 0.000000
v 0.450000 0.925000 0.000000
v 0.475000 0.925000 0.000000
v 0.500000 0.925000 0.000000
v 0.525000 0.925000 0.000000
v 0.550000 0.925000 0.000000
v 0.575000 0.925000 0.000000
v 0.600000 0.925000 0.000000
v 0.625000 0.925000 0.000000
v 0.650000 0.925000 0.000000
v 0.675000 0.925000 0.000000
v 0.700000 0.925000 0.000000
v 0.725000 0.925000 0.000000
v 0.750000 0.925000 0.000000
v 0.775000 0.925000 0.000000
v 0.800000 0.925000 0.000000
v 0.825000 0.925000 0.000000
v 0.850000 0.925000 0.000000
v 0.875000 0.925000 0.000000
v 0.900000 0.925000 0.000000
v 0.925000 0.925000 0.000000
v 0.950000 0.925000 0.000000
v 0.975000 0.925000 0.000000
v 1.000000 0.925000 0.000000
v 0.000000 0.950000 0.000000
v 0.025000 0.950000 0.000000
v 0.050000 0.950000 0.000000
v 0.075000 0.950000 0.000000
v 0.100000 0.950000 0.000000
v 0.125000 0.950000 0.000000
v 0.150000 0.950000 0.000000
v 0.175000 0.950000 0.000000
v 0.200000 0.950000 0.000000
v 0.225000 0.950000 0.000000
v 0.250000 0.950000 0.000000
v 0.275000 0.950000 0.000000
v 0.300000 0.950000 0.000000
v 0.325000 0.950000 0.000000
v 0.350000 0.950000 0.000000
v 0.375000 0.950000 0.000000
v 0.400000 0.950000 0.000000
v 0.425000 0.950000 0.000000
v 0.450000 0.950000 0.000000
v 0.475000 0.950000 0.000000
v 0.500000 0.950000 0.000000
v 0.525000 0.950000 0.000000
v 0.550000 0.950000 0.000000
v 0.575000 0.950000 0.000000
v 0.600000 0.950000 0.000000
v 0.625000 0.950000 0.000000
v 0.650000 0.950000 0.000000
v 0.675000 0.950000 0.000000
v 0.700000 0.950000 0.000000
v 0.725000 0.950000 0.000000
v 0.750000 0.950000 0.000000
v 0.775000 0.950000 0.000000
v 0.800000 0.950000 0.000000
v 0.825000 0.950000 0.000000
v 0.850000 0.950000 0.000000
v 0.875000 0.950000 0.000000
v 0.900000 0.950000 0.000000
v 0.925000 0.950000 0.000000
v 0.950000 0.950000 0.000000
v 0.975000 0.950000 0.000000
v 1.000000 0.950000 0.000000
v 0.000000 0.975000 0.000000
v 0.025000 0.975000 0.000000
v 0.050000 0.975000 0.000000
v 0.075000 0.975000 0.000000
v 0.100000 0.975000 0.000000
v 0.125000 0.975000 0.000000
v 0.150000 0.975000 0.000000
v 0.175000 0.975000 0.000000
v 0.200000 0.975000 0.000000
v 0.225000 0.975000 0.000000
v 0.250000 0.975000 0.000000
v 0.275000 0.975000 0.000000
v 0.300000 0.975000 0.000000
v 0.325000 0.975000 0.000000
v 0.350000 0.975000 0.000000
v 0.375000 0.975000 0.000000
v 0.400000 0.975000 0.000000
v 0.425000 0.975000 0.000000
v 0.450000 0.975000 0.000000
v 0.475000 0.975000 0.000000
v 0.500000 0.975000 0.000000
v 0.525000 0.975000 0.000000
v 0.550000 0.975000 0.000000
v 0.575000 0.975000 0.000000
v 0.600000 0.975000 0.000000
v 0.625000 0.975000 0.000000
v 0.650000 0.975000 0.000000
v 0.675000 0.975000 0.000000
v 0.700000 0.975000 0.000000
v 0.725000 0.975000 0.000000
v 0.750000 0.975000 0.000000
v 0.775000 0.975000 0.000000
v 0.800000 0.975000 0.000000
v 0.825000 0.975000 0.000000
v 0.850000 0.975000 0.000000
v 0.875000 0.975000 0.000000
v 0.900000 0.975000 0.000000
v 0.925000 0.975000 0.000000
v 0.950000 0.975000 0.000000
v 0.975000 0.975000 0.000000
v 1.000000 0.975000 0.000000
v 0.000000 1.000000 0.000000
v 0.025000 1.000000 0.000000
v 0.050000 1.000000 0.000000
v 0.075000 1.000000 0.000000
v 0.100000 1.000000 0.000000
v 0.125000 1.000000 0.000000
v 0.150000 1.000000 0.000000
v 0.175000 1.000000 0.000000
v 0.200000 1.000000 0.000000
v 0.225000 1.000000 0.000000
v 0.250000 1.000000 0.000000
v 0.275000 1.000000 0.000000
v 0.300000 1.000000 0.000000
v 0.325000 1.000000 0.000000
v 0.350000 1.000000 0.000000
v 0.375000 1.000000 0.000000
v 0.400000 1.000000 0.000000
v 0.425000 1.000000 0.000000
v 0.450000 1.000000 0.000000
v 0.475000 1.000000 0.000000
v 0.500000 1.000000 0.000000
v 0.525000 1.000000 0.000000
v 0.550000 1.000000 0.000000
v 0.575000 1.000000 0.000000
v 0.600000 1.000000 0.000000
v 0.625000 1.000000 0.000000
v 0.650000 1.000000 0.000000
v 0.675000 1.000000 0.000000
v 0.700000 1.000000 0.000000
v 0.725000 1.000000 0.000000
v 0.750000 1.000000 0.000000
v 0.775000 1.000000 0.000000
v 0.800000 1.000000 0.000000
v 0.825000 1.000000 0.000000
v 0.850000 1.000000 0.000000
v 0.875000 1.000000 0.000000
v 0.900000 1.000000 0.000000
v 0.925000 1.000000 0.000000
v 0.950000 1.000000 0.000000
v 0.975000 1.000000 0.000000
v 1.000000 1.000000 0.000000
f 1 2 43 42
f 2 3 44 43
f 3 4 45 44
f 4 5 46 45
f 5 6 47 46
f 6 7 48 47
f 7 8 49 48
f 8 9 50 49
f 9 10 51 50
f 10 11 52 51
f 11 12 53 52
f 12 13 54 53
f 13 14 55 54
f 14 15 56 55
f 15 16 57 56
f 16 17 58 57
f 17 18 59 58
f 18 19 60 59
f 19 20 61 60
f 20 21 62 61
f 21 22 63 62
f 22 23 64 63
f 23 24 65 64
f 24 25 66 65
f 25 26 67 66
f 26 27 68 67
f 27 28 69 68
f 28 29 70 69
f 29 30 71 70
f 30 31 72 71
f 31 32 73 72
f 32 33 74 73
f 33 34 75 74
f 34 35 76 75
f 35 36 77 76
f 36 37 78 77
f 37 38 79 78
f 38 39 80 79
f 39 40 81 80
f 40 41 82 81
f 42 43 84 83
f 43 44 85 84
f 44 45 86 85
f 45 46 87 86
f 46 47 88 87
f 47 48 89 88
f 48 49 90 89
f 49 50 91 90
f 50 51 92 91
f 51 52 93 92
f 52 53 94 93
f 53 54 95 94
f 54 55 96 95
f 55 56 97 96
f 56 57 98 97
f 57 58 99 98
f 58 59 100 99
f 59 60 101 100
f 60 61 102 101
f 61 62 103 102
f 62 63 104 103
f 63 64 105 104
f 64 65 106 105
f 65 66 107 106
f 66 67 108 107
f 67 68 109 108
f 68 69 110 109
f 69 70 111 110
f 70 71 112 111
f 71 72 113 112
f 72 73 114 113
f 73 74 115 114
f 74 75 116 115
f 75 76 117 116
f 76 77 118 117
f 77 78 119 118
f 78 79 120 119
f 79 80 121 120
f 80 81 122 121
f 81 82 123 122
f 83 84 125 124
f 84 85 126 125
f 85 86 127 126
f 86 87 128 127
f 87 88 129 128
f 88 89 130 129
f 89 90 131 130
f 90 91 132 131
f 91 92 133 132
f 92 93 134 133
f 93 94 135 134
f 94 95 136 135
f 95 96 137 136
f 96 97 138 137
f 97 98 139 138
f 98 99 140 139
f 99 100 141 140
f 100 101 142 141
f 101 102 143 142
f 102 103 144 143
f 103 104 145 144
f 104 105 146 145
f 105 106 147 146
f 106 107 148 147
f 107 108 149 148
f 108 109 150 149
f 109 110 151 150
f 110 111 152 151
f 111 112 153 152
f 112 113 154 153
f 113 114 155 154
f 114 115 156 155
f 115 116 157 156
f 116 117 158 157
f 117 118 159 158
f 118 119 160 159
f 119 120 161 160
f 120 121 162 161
f 121 122 163 162
f 122 123 164 163
f 124 125 166 165
f 125 126 167 166
f 126 127 168 167
f 127 128 169 168
f 128 129 170 169
f 129 130 171 170
f 130 131 172 171
f 131 132 173 172
f 132 133 174 173
f 133 134 175 174
f 134 135 176 175
f 135 136 177 176
f 136 137 178 177
f 137 138 179 178
f 138 139 180 179
f 139 140 181 180
f 140 141 182 181
f 141 142 183 182
f 142 143 184 183
f 143 144 185 184
f 144 145 186 185
f 145 146 187 186
f 146 147 188 187
f 147 148 189 188
f 148 149 190 189
f 149 150 191 190
f 150 151 192 191
f 151 152 193 192
f 152 153 194 193
f 153 154 195 194
f 154 155 196 195
f 155 156 197 196
f 156 157 198 197
f 157 158 199 198
f 158 159 200 199
f 159 160 201 200
f 160 161 202 201
f 161 162 203 202
f 162 163 204 203
f 163 164 205 204
f 165 166 207 206
f 166 167 208 207
f 167 168 209 208
f 168 169 210 209
f 169 170 211 210
f 170 171 212 211
f 171 172 213 212
f 172 173 214 213
f 173 174 215 214
f 174 175 216 215
f 175 176 217 216
f 176 177 218 217
f 177 178 219 218
f 178 179 220 219
f 179 180 221 220
f 180 181 222 221
f 181 182 223 222
f 182 183 224 223
f 183 184 225 224
f 184 185 226 225
f 185 186 227 226
f 186 187 228 227
f 187 188 229 228
f 188 189 230 229
f 189 190 231 230
f 190 191 232 231
f 191 192 233 232
f 192 193 234 233
f 193 194 235 234
f 194 195 236 235
f 195 196 237 236
f 196 197 238 237
f 197 198 239 238
f 198 199 240 239
f 199 200 241 240
f 200 201 242 241
f 201 202 243 242
f 202 203 244 243
f 203 204 245 244
f 204 205 246 245
f 206 207 248 247
f 207 208 249 248
f 208 209 250 249
f 209 210 251 250
f 210 211 252 251
f 211 212 253 252
f 212 213 254 253
f 213 214 255 254
f 214 215 256 255
f 215 216 257 256
f 216 217 258 257
f 217 218 259 258
f 218 219 260 259
f 219 220 261 260
f 220 221 262 261
f 221 222 263 262
f 222 223 264 263
f 223 224 265 264
f 224 225 266 265
f 225 226 267 266
f 226 227 268 267
f 227 228 269 268
f 228 229 270 269
f 229 230 271 270
f 230 231 272 271
f 231 232 273 272
f 232 233 274 273
f 233 234 275 274
f 234 235 276 275
f 235 236 277 276
f 236 237 278 277
f 237 238 279 278
f 238 239 280 279
f 239 240 281 280
f 240 241 282 281
f 241 242 283 282
f 242 243 284 283
f 243 244 285 284
f 244 245 286 285
f 245 246 287 286
f 247 248 289 288
f 248 249 290 289
f 249 250 291 290
f 250 251 292 291
f 251 252 293 292
f 252 253 294 293
f 253 254 295 294
f 254 255 296 295
f 255 256 297 296
f 256 257 298 297
f 257 258 299 298
f 258 259 300 299
f 259 260 301 300
f 260 261 302 301
f 261 262 303 302
f 262 263 304 303
f 263 264 305 304
f 264 265 306 305
f 265 266 307 306
f 266 267 308 307
f 267 268 309 308
f 268 269 310 309
f 269 270 311 310
f 270 271 312 311
f 271 272 313 312
f 272 273 314 313
f 273 274 315 314
f 274 275 316 315
f 275 276 317 316
f 276 277 318 317
f 277 278 319 318
f 278 279 320 319
f 279 280 321 320
f 280 281 322 321
f 281 282 323 322
f 282 283 324 323
f 283 284 325 324
f 284 285 326 325
f 285 286 327 326
f 286 287 328 327
f 288 289 330 329
f 289 290 331 330
f 290 291 332 331
f 291 292 333 332
f 292 293 334 333
f 293 294 335 334
f 294 295 336 335
f 295 296 337 336
f 296 297 338 337
f 297 298 339 338
f 298 299 340 339
f 299 300 341 340
f 300 301 342 341
f 301 302 343 342
f 302 303 344 343
f 303 304 345 344
f 304 305 346 345
f 305 306 347 346
f 306 307 348 347
f 307 308 349 348
f 308 309 350 349
f 309 310 351 350
f 310 311 352 351
f 311 312 353 352
f 312 313 354 353
f 313 314 355 354
f 314 315 356 355
f 315 316 357 356
f 316 317 358 357
f 317 318 359 358
f 318 319 360 359
f 319 320 361 360
f 320 321 362 361
f 321 322 363 362
f 322 323 364 363
f 323 324 365 364
f 324 325 366 365
f 325 326 367 366
f 326 327 368 367
f 327 328 369 368
f 329 330 371 370
f 330 331 372 371
f 331 332 373 372
f 332 333 374 373
f 333 334 375 374
f 334 335 376 375
f 335 336 377 376
f 336 337 378 377
f 337 338 379 378
f 338 339 380 379
f 339 340 381 380
f 340 341 382 381
f 341 342 383 382
f 342 343 384 383
f 343 344 385 384
f 344 345 386 385
f 345 346 387 386
f 346 347 388 387
f 347 348 389 388
f 348 349 390 389
f 349 350 391 390
f 350 351 392 391
f 351 352 393 392
f 352 353 394 393
f 353 354 395 394
f 354 355 396 395
f 355 356 397 396
f 356 357 398 397
f 357 358 399 398
f 358 359 400 399
f 359 360 401 400
f 360 361 402 401
f 361 362 403 402
f 362 363 404 403
f 363 364 405 404
f 364 365 406 405
f 365 366 407 406
f 366 367 408 407
f 367 368 409 408
f 368 369 410 409
f 370 371 412 411
f 371 372 413 412
f 372 373 414 413
f 373 374 415 414
f 374 375 416 415
f 375 376 417 416
f 376 377 418 417
f 377 378 419 418
f 378 379 420 419
f 379 380 421 420
f 380 381 422 421
f 381 382 423 422
f 382 383 424 423
f 383 384 425 424
f 384 385 426 425
f 385 386 427 426
f 386 387 428 427
f 387 388 429 428
f 388 389 430 429
f 389 390 431 430
f 390 391 432 431
f 391 392 433 432
f 392 393 434 433
f 393 394 435 434
f 394 395 436 435
f 395 396 437 436
f 396 397 438 437
f 397 398 439 438
f 398 399 440 439
f 399 400 441 440
f 400 401 442 441
f 401 402 443 442
f 402 403 444 443
f 403 404 445 444
f 404 405 446 445
f 405 406 447 446
f 406 407 448 447
f 407 408 449 448
f 408 409 450 449
f 409 410 451 450
f 411 412 453 452
f 412 413 454 453
f 413 414 455 454
f 414 415 456 455
f 415 416 457 456
f 416 417 458 457
f 417 418 459 458
f 418 419 460 459
f 419 420 461 460
f 420 421 462 461
f 421 422 463 462
f 422 423 464 463
f 423 424 465 464
f 424 425 466 465
f 425 426 467 466
f 426 427 468 467
f 427 428 469 468
f 428 429 470 469
f 429 430 471 470
f 430 431 472 471
f 431 432 473 472
f 432 433 474 473
f 433 434 475 474
f 434 435 476 475
f 435 436 477 476
f 436 437 478 477
f 437 438 479 478
f 438 439 480 479
f 439 440 481 480
f 440 441 482 481
f 441 442 483 482
f 442 443 484 483
f 443 444 485 484
f 444 445 486 485
f 445 446 487 486
f 446 447 488 487
f 447 448 489 488
f 448 449 490 489
f 449 450 491 490
f 450 451 492 491
f 452 453 494 493
f 453 454 495 494
f 454 455 496 495
f 455 456 497 496
f 456 457 498 497
f 457 458 499 498
f 458 459 500 499
f 459 460 501 500
f 460 461 502 501
f 461 462 503 502
f 462 463 504 503
f 463 464 505 504
f 464 465 506 505
f 465 466 507 506
f 466 467 508 507
f 467 468 509 508
f 468 469 510 509
f 469 470 511 510
f 470 471 512 511
f 471 472 513 512
f 472 473 514 513
f 473 474 515 514
f 474 475 516 515
f 475 476 517 516
f 476 477 518 517
f 477 478 519 518
f 478 479 520 519
f 479 480 521 520
f 480 481 522 521
f 481 482 523 522
f 482 483 524 523
f 483 484 525 524
f 484 485 526 525
f 485 486 527 526
f 486 487 528 527
f 487 488 529 528
f 488 489 530 529
f 489 490 531 530
f 490 491 532 531
f 491 492 533 532
f 493 494 535 534
f 494 495 536 535
f 495 496 537 536
f 496 497 538 537
f 497 498 539 538
f 498 499 540 539
f 499 500 541 540
f 500 501 542 541
f 501 502 543 542
f 502 503 544 543
f 503 504 545 544
f 504 505 546 545
f 505 506 547 546
f 506 507 548 547
f 507 508 549 548
f 508 509 550 549
f 509 510 551 550
f 510 511 552 551
f 511 512 553 552
f 512 513 554 553
f 513 514 555 554
f 514 515 556 555
f 515 516 557 556
f 516 517 558 557
f 517 518 559 558
f 518 519 560 559
f 519 520 561 560
f 520 521 562 561
f 521 522 563 562
f 522 523 564 563
f 523 524 565 564
f 524 525 566 565
f 525 526 567 566
f 526 527 568 567
f 527 528 569 568
f 528 529 570 569
f 529 530 571 570
f 530 531 572 571
f 531 532 573 572
f 532 533 574 573
f 534 535 576 575
f 535 536 577 576
f 536 537 578 577
f 537 538 579 578
f 538 539 580 579
f 539 540 581 580
f 540 541 582 581
f 541 542 583 582
f 542 543 584 583
f 543 544 585 584
f 544 545 586 585
f 545 546 587 586
f 546 547 588 587
f 547 548 589 588
f 548 549 590 589
f 549 550 591 590
f 550 551 592 591
f 551 552 593 592
f 552 553 594 593
f 553 554 595 594
f 554 555 596 595
f 555 556 597 596
f 556 557 598 597
f 557 558 599 598
f 558 559 600 599
f 559 560 601 600
f 560 561 602 601
f 561 562 603 602
f 562 563 604 603
f 563 564 605 604
f 564 565 606 605
f 565 566 607 606
f 566 567 608 607
f 567 568 609 608
f 568 569 610 609
f 569 570 611 610
f 570 571 612 611
f 571 572 613 612
f 572 573 614 613
f 573 574 615 614
f 575 576 617 616
f 576 577 618 617
f 577 578 619 618
f 578 579 620 619
f 579 580 621 620
f 580 581 622 621
f 581 582 623 622
f 582 583 624 623
f 583 584 625 624
f 584 585 626 625
f 585 586 627 626
f 586 587 628 627
f 587 588 629 628
f 588 589 630 629
f 589 590 631 630
f 590 591 632 631
f 591 592 633 632
f 592 593 634 633
f 593 594 635 634
f 594 595 636 635
f 595 596 637 636
f 596 597 638 637
f 597 598 639 638
f 598 599 640 639
f 599 600 641 640
f 600 601 642 641
f 601 602 643 642
f 602 603 644 643
f 603 604 645 644
f 604 605 646 645
f 605 606 647 646
f 606 607 648 647
f 607 608 649 648
f 608 609 650 649
f 609 610 651 650
f 610 611 652 651
f 611 612 653 652
f 612 613 654 653
f 613 614 655 654
f 614 615 656 655
f 616 617 658 657
f 617 618 659 658
f 618 619 660 659
f 619 620 661 660
f 620 621 662 661
f 621 622 663 662
f 622 623 664 663
f 623 624 665 664
f 624 625 666 665
f 625 626 667 666
f 626 627 668 667
f 627 628 669 668
f 628 629 670 669
f 629 630 671 670
f 630 631 672 671
f 631 632 673 672
f 632 633 674 673
f 633 634 675 674
f 634 635 676 675
f 635 636 677 676
f 636 637 678 677
f 637 638 679 678
f 638 639 680 679
f 639 640 681 680
f 640 641 682 681
f 641 642 683 682
f 642 643 684 683
f 643 644 685 684
f 644 645 686 685
f 645 646 687 686
f 646 647 688 687
f 647 648 689 688
f 648 649 690 689
f 649 650 691 690
f 650 651 692 691
f 651 652 693 692
f 652 653 694 693
f 653 654 695 694
f 654 655 696 695
f 655 656 697 696
f 657 658 699 698
f 658 659 700 699
f 659 660 701 700
f 660 661 702 701
f 661 662 703 702
f 662 663 704 703
f 663 664 705 704
f 664 665 706 705
f 665 666 707 706
f 666 667 708 707
f 667 668 709 708
f 668 669 710 709
f 669 670 711 710
f 670 671 712 711
f 671 672 713 712
f 672 673 714 713
f 673 674 715 714
f 674 675 716 715
f 675 676 717 716
f 676 677 718 717
f 677 678 719 718
f 678 679 720 719
f 679 680 721 720
f 680 681 722 721
f 681 682 723 722
f 682 683 724 723
f 683 684 725 724
f 684 685 726 725
f 685 686 727 726
f 686 687 728 727
f 687 688 729 728
f 688 689 730 729
f 689 690 731 730
f 690 691 732 731
f 691 692 733 732
f 692 693 734 733
f 693 694 735 734
f 694 695 736 735
f 695 696 737 736
f 696 697 738 737
f 698 699 740 739
f 699 700 741 740
f 700 701 742 741
f 701 702 743 742
f 702 703 744 743
f 703 704 745 744
f 704 705 746 745
f 705 706 747 746
f 706 707 748 747
f 707 708 749 748
f 708 709 750 749
f 709 710 751 750
f 710 711 752 751
f 711 712 753 752
f 712 713 754 753
f 713 714 755 754
f 714 715 756 755
f 715 716 757 756
f 716 717 758 757
f 717 718 759 758
f 718 719 760 759
f 719 720 761 760
f 720 721 762 761
f 721 722 763 762
f 722 723 764 763
f 723 724 765 764
f 724 725 766 765
f 725 726 767 766
f 726 727 768 767
f 727 728 769 768
f 728 729 770 769
f 729 730 771 770
f 730 731 772 771
f 731 732 773 772
f 732 733 774 773
f 733 734 775 774
f 734 735 776 775
f 735 736 777 776
f 736 737 778 777
f 737 738 779 778
f 739 740 781 780
f 740 741 782 781
f 741 742 783 782
f 742 743 784 783
f 743 744 785 784
f 744 745 786 785
f 745 746 787 786
f 746 747 788 787
f 747 748 789 788
f 748 749 790 789
f 749 750 791 790
f 750 751 792 791
f 751 752 793 792
f 752 753 794 793
f 753 754 795 794
f 754 755 796 795
f 755 756 797 796
f 756 757 798 797
f 757 758 799 798
f 758 759 800 799
f 759 760 801 800
f 760 761 802 801
f 761 762 803 802
f 762 763 804 803
f 763 764 805 804
f 764 765 806 805
f 765 766 807 806
f 766 767 808 807
f 767 768 809 808
f 768 769 810 809
f 769 770 811 810
f 770 771 812 811
f 771 772 813 812
f 772 773 814 813
f 773 774 815 814
f 774 775 816 815
f 775 776 817 816
f 776 777 818 817
f 777 778 819 818
f 778 779 820 819
f 780 781 822 821
f 781 782 823 822
f 782 783 824 823
f 783 784 825 824
f 784 785 826 825
f 785 786 827 826
f 786 787 828 827
f 787 788 829 828
f 788 789 830 829
f 789 790 831 830
f 790 791 832 831
f 791 792 833 832
f 792 793 834 833
f 793 794 835 834
f 794 795 836 835
f 795 796 837 836
f 796 797 838 837
f 797 798 839 838
f 798 799 840 839
f 799 800 841 840
f 800 801 842 841
f 801 802 843 842
f 802 803 844 843
f 803 804 845 844
f 804 805 846 845
f 805 806 847 846
f 806 807 848 847
f 807 808 849 848
f 808 809 850 849
f 809 810 851 850
f 810 811 852 851
f 811 812 853 852
f 812 813 854 853
f 813 814 855 854
f 814 815 856 855
f 815 816 857 856
f 816 817 858 857
f 817 818 859 858
f 818 819 860 859
f 819 820 861 860
f 821 822 863 862
f 822 823 864 863
f 823 824 865 864
f 824 825 866 865
f 825 826 867 866
f 826 827 868 867
f 827 828 869 868
f 828 829 870 869
f 829 830 871 870
f 830 831 872 871
f 831 832 873 872
f 832 833 874 873
f 833 834 875 874
f 834 835 876 875
f 835 836 877 876
f 836 837 878 877
f 837 838 879 878
f 838 839 880 879
f 839 840 881 880
f 840 841 882 881
f 841 842 883 882
f 842 843 884 883
f 843 844 885 884
f 844 845 886 885
f 845 846 887 886
f 846 847 888 887
f 847 848 889 888
f 848 849 890 889
f 849 850 891 890
f 850 851 892 891
f 851 852 893 892
f 852 853 894 893
f 853 854 895 894
f 854 855 896 895
f 855 856 897 896
f 856 857 898 897
f 857 858 899 898
f 858 859 900 899
f 859 860 901 900
f 860 861 902 901
f 862 863 904 903
f 863 864 905 904
f 864 865 906 905
f 865 866 907 906
f 866 867 908 907
f 867 868 909 908
f 868 869 910 909
f 869 870 911 910
f 870 871 912 911
f 871 872 913 912
f 872 873 914 913
f 873 874 915 914
f 874 875 916 915
f 875 876 917 916
f 876 877 918 917
f 877 878 919 918
f 878 879 920 919
f 879 880 921 920
f 880 881 922 921
f 881 882 923 922
f 882 883 924 923
f 883 884 925 924
f 884 885 926 925
f 885 886 927 926
f 886 887 928 927
f 887 888 929 928
f 888 889 930 929
f 889 890 931 930
f 890 891 932 931
f 891 892 933 932
f 892 893 934 933
f 893 894 935 934
f 894 895 936 935
f 895 896 937 936
f 896 897 938 937
f 897 898 939 938
f 898 899 940 939
f 899 900 941 940
f 900 901 942 941
f 901 902 943 942
f 903 904 945 944
f 904 905 946 945
f 905 906 947 946
f 906 907 948 947
f 907 908 949 948
f 908 909 950 949
f 909 910 951 950
f 910 911 952 951
f 911 912 953 952
f 912 913 954 953
f 913 914 955 954
f 914 915 956 955
f 915 916 957 956
f 916 917 958 957
f 917 918 959 958
f 918 919 960 959
f 919 920 961 960
f 920 921 962 961
f 921 922 963 962
f 922 923 964 963
f 923 924 965 964
f 924 925 966 965
f 925 926 967 966
f 926 927 968 967
f 927 928 969 968
f 928 929 970 969
f 929 930 971 970
f 930 931 972 971
f 931 932 973 972
f 932 933 974 973
f 933 934 975 974
f 934 935 976 975
f 935 936 977 976
f 936 937 978 977
f 937 938 979 978
f 938 939 980 979
f 939 940 981 980
f 940 941 982 981
f 941 942 983 982
f 942 943 984 983
f 944 945 986 985
f 945 946 987 986
f 946 947 988 987
f 947 948 989 988
f 948 949 990 989
f 949 950 991 990
f 950 951 992 991
f 951 952 993 992
f 952 953 994 993
f 953 954 995 994
f 954 955 996 995
f 955 956 997 996
f 956 957 998 997
f 957 958 999 998
f 958 959 1000 999
f 959 960 1001 1000
f 960 961 1002 1001
f 961 962 1003 1002
f 962 963 1004 1003
f 963 964 1005 1004
f 964 965 1006 1005
f 965 966 1007 1006
f 966 967 1008 1007
f 967 968 1009 1008
f 968 969 1010 1009
f 969 970 1011 1010
f 970 971 1012 1011
f 971 972 1013 1012
f 972 973 1014 1013
f 973 974 1015 1014
f 974 975 1016 1015
f 975 976 1017 1016
f 976 977 1018 1017
f 977 978 1019 1018
f 978 979 1020 1019
f 979 980 1021 1020
f 980 981 1022 1021
f 981 982 1023 1022
f 982 983 1024 1023
f 983 984 1025 1024
f 985 986 1027 1026
f 986 987 1028 1027
f 987 988 1029 1028
f 988 989 1030 1029
f 989 990 1031 1030
f 990 991 1032 1031
f 991 992 1033 1032
f 992 993 1034 1033
f 993 994 1035 1034
f 994 995 1036 1035
f 995 996 1037 1036
f 996 997 1038 1037
f 997 998 1039 1038
f 998 999 1040 1039
f 999 1000 1041 1040
f 1000 1001 1042 1041
f 1001 1002 1043 1042
f 1002 1003 1044 1043
f 1003 1004 1045 1044
f 1004 1005 1046 1045
f 1005 1006 1047 1046
f 1006 1007 1048 1047
f 1007 1008 1049 1048
f 1008 1009 1050 1049
f 1009 1010 1051 1050
f 1010 1011 1052 1051
f 1011 1012 1053 1052
f 1012 1013 1054 1053
f 1013 1014 1055 1054
f 1014 1015 1056 1055
f 1015 1016 1057 1056
f 1016 1017 1058 1057
f 1017 1018 1059 1058
f 1018 1019 1060 1059
f 1019 1020 1061 1060
f 1020 1021 1062 1061
f 1021 1022 1063 1062
f 1022 1023 1064 1063
f 1023 1024 1065 1064
f 1024 1025 1066 1065
f 1026 1027 1068 1067
f 1027 1028 1069 1068
f 1028 1029 1070 1069
f 1029 1030 1071 1070
f 1030 1031 1072 1071
f 1031 1032 1073 1072
f 1032 1033 1074 1073
f 1033 1034 1075 1074
f 1034 1035 1076 1075
f 1035 1036 1077 1076
f 1036 1037 1078 1077
f 1037 1038 1079 1078
f 1038 1039 1080 1079
f 1039 1040 1081 1080
f 1040 1041 1082 1081
f 1041 1042 1083 1082
f 1042 1043 1084 1083
f 1043 1044 1085 1084
f 1044 1045 1086 1085
f 1045 1046 1087 1086
f 1046 1047 1088 1087
f 1047 1048 1089 1088
f 1048 1049 1090 1089
f 1049 1050 1091 1090
f 1050 1051 1092 1091
f 1051 1052 1093 1092
f 1052 1053 1094 1093
f 1053 1054 1095 1094
f 1054 1055 1096 1095
f 1055 1056 1097 1096
f 1056 1057 1098 1097
f 1057 1058 1099 1098
f 1058 1059 1100 1099
f 1059 1060 1101 1100
f 1060 1061 1102 1101
f 1061 1062 1103 1102
f 1062 1063 1104 1103
f 1063 1064 1105 1104
f 1064 1065 1106 1105
f 1065 1066 1107 1106
f 1067 1068 1109 1108
f 1068 1069 1110 1109
f 1069 1070 1111 1110
f 1070 1071 1112 1111
f 1071 1072 1113 1112
f 1072 1073 1114 1113
f 1073 1074 1115 1114
f 1074 1075 1116 1115
f 1075 1076 1117 1116
f 1076 1077 1118 1117
f 1077 1078 1119 1118
f 1078 1079 1120 1119
f 1079 1080 1121 1120
f 1080 1081 1122 1121
f 1081 1082 1123 1122
f 1082 1083 1124 1123
f 1083 1084 1125 1124
f 1084 1085 1126 1125
f 1085 1086 1127 1126
f 1086 1087 1128 1127
f 1087 1088 1129 1128
f 1088 1089 1130 1129
f 1089 1090 1131 1130
f 1090 1091 1132 1131
f 1091 1092 1133 1132
f 1092 1093 1134 1133
f 1093 1094 1135 1134
f 1094 1095 1136 1135
f 1095 1096 1137 1136
f 1096 1097 1138 1137
f 1097 1098 1139 1138
f 1098 1099 1140 1139
f 1099 1100 1141 1140
f 1100 1101 1142 1141
f 1101 1102 1143 1142
f 1102 1103 1144 1143
f 1103 1104 1145 1144
f 1104 1105 1146 1145
f 1105 1106 1147 1146
f 1106 1107 1148 1147
f 1108 1109 1150 1149
f 1109 1110 1151 1150
f 1110 1111 1152 1151
f 1111 1112 1153 1152
f 1112 1113 1154 1153
f 1113 1114 1155 1154
f 1114 1115 1156 1155
f 1115 1116 1157 1156
f 1116 1117 1158 1157
f 1117 1118 1159 1158
f 1118 1119 1160 1159
f 1119 1120 1161 1160
f 1120 1121 1162 1161
f 1121 1122 1163 1162
f 1122 1123 1164 1163
f 1123 1124 1165 1164
f 1124 1125 1166 1165
f 1125 1126 1167 1166
f 1126 1127 1168 1167
f 1127 1128 1169 1168
f 1128 1129 1170 1169
f 1129 1130 1171 1170
f 1130 1131 1172 1171
f 1131 1132 1173 1172
f 1132 1133 1174 1173
f 1133 1134 1175 1174
f 1134 1135 1176 1175
f 1135 1136 1177 1176
f 1136 1137 1178 1177
f 1137 1138 1179 1178
f 1138 1139 1180 1179
f 1139 1140 1181 1180
f 1140 1141 1182 1181
f 1141 1142 1183 1182
f 1142 1143 1184 1183
f 1143 1144 1185 1184
f 1144 1145 1186 1185
f 1145 1146 1187 1186
f 1146 1147 1188 1187
f 1147 1148 1189 1188
f 1149 1150 1191 1190
f 1150 1151 1192 1191
f 1151 1152 1193 1192
f 1152 1153 1194 1193
f 1153 1154 1195 1194
f 1154 1155 1196 1195
f 1155 1156 1197 1196
f 1156 1157 1198 1197
f 1157 1158 1199 1198
f 1158 1159 1200 1199
f 1159 1160 1201 1200
f 1160 1161 1202 1201
f 1161 1162 1203 1202
f 1162 1163 1204 1203
f 1163 1164 1205 1204
f 1164 1165 1206 1205
f 1165 1166 1207 1206
f 1166 1167 1208 1207
f 1167 1168 1209 1208
f 1168 1169 1210 1209
f 1169 1170 1211 1210
f 1170 1171 1212 1211
f 1171 1172 1213 1212
f 1172 1173 1214 1213
f 1173 1174 1215 1214
f 1174 1175 1216 1215
f 1175 1176 1217 1216
f 1176 1177 1218 1217
f 1177 1178 1219 1218
f 1178 1179 1220 1219
f 1179 1180 1221 1220
f 1180 1181 1222 1221
f 1181 1182 1223 1222
f 1182 1183 1224 1223
f 1183 1184 1225 1224
f 1184 1185 1226 1225
f 1185 1186 1227 1226
f 1186 1187 1228 1227
f 1187 1188 1229 1228
f 1188 1189 1230 1229
f 1190 1191 1232 1231
f 1191 1192 1233 1232
f 1192 1193 1234 1233
f 1193 1194 1235 1234
f 1194 1195 1236 1235
f 1195 1196 1237 1236
f 1196 1197 1238 1237
f 1197 1198 1239 1238
f 1198 1199 1240 1239
f 1199 1200 1241 1240
f 1200 1201 1242 1241
f 1201 1202 1243 1242
f 1202 1203 1244 1243
f 1203 1204 1245 1244
f 1204 1205 1246 1245
f 1205 1206 1247 1246
f 1206 1207 1248 1247
f 1207 1208 1249 1248
f 1208 1209 1250 1249
f 1209 1210 1251 1250
f 1210 1211 1252 1251
f 1211 1212 1253 1252
f 1212 1213 1254 1253
f 1213 1214 1255 1254
f 1214 1215 1256 1255
f 1215 1216 1257 1256
f 1216 1217 1258 1257
f 1217 1218 1259 1258
f 1218 1219 1260 1259
f 1219 1220 1261 1260
f 1220 1221 1262 1261
f 1221 1222 1263 1262
f 1222 1223 1264 1263
f 1223 1224 1265 1264
f 1224 1225 1266 1265
f 1225 1226 1267 1266
f 1226 1227 1268 1267
f 1227 1228 1269 1268
f 1228 1229 1270 1269
f 1229 1230 1271 1270
f 1231 1232 1273 1272
f 1232 1233 1274 1273
f 1233 1234 1275 1274
f 1234 1235 1276 1275
f 1235 1236 1277 1276
f 1236 1237 1278 1277
f 1237 1238 1279 1278
f 1238 1239 1280 1279
f 1239 1240 1281 1280
f 1240 1241 1282 1281
f 1241 1242 1283 1282
f 1242 1243 1284 1283
f 1243 1244 1285 1284
f 1244 1245 1286 1285
f 1245 1246 1287 1286
f 1246 1247 1288 1287
f 1247 1248 1289 1288
f 1248 1249 1290 1289
f 1249 1250 1291 1290
f 1250 1251 1292 1291
f 1251 1252 1293 1292
f 1252 1253 1294 1293
f 1253 1254 1295 1294
f 1254 1255 1296 1295
f 1255 1256 1297 1296
f 1256 1257 1298 1297
f 1257 1258 1299 1298
f 1258 1259 1300 1299
f 1259 1260 1301 1300
f 1260 1261 1302 1301
f 1261 1262 1303 1302
f 1262 1263 1304 1303
f 1263 1264 1305 1304
f 1264 1265 1306 1305
f 1265 1266 1307 1306
f 1266 1267 1308 1307
f 1267 1268 1309 1308
f 1268 1269 1310 1309
f 1269 1270 1311 1310
f 1270 1271 1312 1311
f 1272 1273 1314 1313
f 1273 1274 1315 1314
f 1274 1275 1316 1315
f 1275 1276 1317 1316
f 1276 1277 1318 1317
f 1277 1278 1319 1318
f 1278 1279 1320 1319
f 1279 1280 1321 1320
f 1280 1281 1322 1321
f 1281 1282 1323 1322
f 1282 1283 1324 1323
f 1283 1284 1325 1324
f 1284 1285 1326 1325
f 1285 1286 1327 1326
f 1286 1287 1328 1327
f 1287 1288 1329 1328
f 1288 1289 1330 1329
f 1289 1290 1331 1330
f 1290 1291 1332 1331
f 1291 1292 1333 1332
f 1292 1293 1334 1333
f 1293 1294 1335 1334
f 1294 1295 1336 1335
f 1295 1296 1337 1336
f 1296 1297 1338 1337
f 1297 1298 1339 1338
f 1298 1299 1340 1339
f 1299 1300 1341 1340
f 1300 1301 1342 1341
f 1301 1302 1343 1342
f 1302 1303 1344 1343
f 1303 1304 1345 1344
f 1304 1305 1346 1345
f 1305 1306 1347 1346
f 1306 1307 1348 1347
f 1307 1308 1349 1348
f 1308 1309 1350 1349
f 1309 1310 1351 1350
f 1310 1311 1352 1351
f 1311 1312 1353 1352
f 1313 1314 1355 1354
f 1314 1315 1356 1355
f 1315 1316 1357 1356
f 1316 1317 1358 1357
f 1317 1318 1359 1358
f 1318 1319 1360 1359
f 1319 1320 1361 1360
f 1320 1321 1362 1361
f 1321 1322 1363 1362
f 1322 1323 1364 1363
f 1323 1324 1365 1364
f 1324 1325 1366 1365
f 1325 1326 1367 1366
f 1326 1327 1368 1367
f 1327 1328 1369 1368
f 1328 1329 1370 1369
f 1329 1330 1371 1370
f 1330 1331 1372 1371
f 1331 1332 1373 1372
f 1332 1333 1374 1373
f 1333 1334 1375 1374
f 1334 1335 1376 1375
f 1335 1336 1377 1376
f 1336 1337 1378 1377
f 1337 1338 1379 1378
f 1338 1339 1380 1379
f 1339 1340 1381 1380
f 1340 1341 1382 1381
f 1341 1342 1383 1382
f 1342 1343 1384 1383
f 1343 1344 1385 1384
f 1344 1345 1386 1385
f 1345 1346 1387 1386
f 1346 1347 1388 1387
f 1347 1348 1389 1388
f 1348 1349 1390 1389
f 1349 1350 1391 1390
f 1350 1351 1392 1391
f 1351 1352 1393 1392
f 1352 1353 1394 1393
f 1354 1355 1396 1395
f 1355 1356 1397 1396
f 1356 1357 1398 1397
f 1357 1358 1399 1398
f 1358 1359 1400 1399
f 1359 1360 1401 1400
f 1360 1361 1402 1401
f 1361 1362 1403 1402
f 1362 1363 1404 1403
f 1363 1364 1405 1404
f 1364 1365 1406 1405
f 1365 1366 1407 1406
f 1366 1367 1408 1407
f 1367 1368 1409 1408
f 1368 1369 1410 1409
f 1369 1370 1411 1410
f 1370 1371 1412 1411
f 1371 1372 1413 1412
f 1372 1373 1414 1413
f 1373 1374 1415 1414
f 1374 1375 1416 1415
f 1375 1376 1417 1416
f 1376 1377 1418 1417
f 1377 1378 1419 1418
f 1378 1379 1420 1419
f 1379 1380 1421 1420
f 1380 1381 1422 1421
f 1381 1382 1423 1422
f 1382 1383 1424 1423
f 1383 1384 1425 1424
f 1384 1385 1426 1425
f 1385 1386 1427 1426
f 1386 1387 1428 1427
f 1387 1388 1429 1428
f 1388 1389 1430 1429
f 1389 1390 1431 1430
f 1390 1391 1432 1431
f 1391 1392 1433 1432
f 1392 1393 1434 1433
f 1393 1394 1435 1434
f 1395 1396 1437 1436
f 1396 1397 1438 1437
f 1397 1398 1439 1438
f 1398 1399 1440 1439
f 1399 1400 1441 1440
f 1400 1401 1442 1441
f 1401 1402 1443 1442
f 1402 1403 1444 1443
f 1403 1404 1445 1444
f 1404 1405 1446 1445
f 1405 1406 1447 1446
f 1406 1407 1448 1447
f 1407 1408 1449 1448
f 1408 1409 1450 1449
f 1409 1410 1451 1450
f 1410 1411 1452 1451
f 1411 1412 1453 1452
f 1412 1413 1454 1453
f 1413 1414 1455 1454
f 1414 1415 1456 1455
f 1415 1416 1457 1456
f 1416 1417 1458 1457
f 1417 1418 1459 1458
f 1418 1419 1460 1459
f 1419 1420 1461 1460
f 1420 1421 1462 1461
f 1421 1422 1463 1462
f 1422 1423 1464 1463
f 1423 1424 1465 1464
f 1424 1425 1466 1465
f 1425 1426 1467 1466
f 1426 1427 1468 1467
f 1427 1428 1469 1468
f 1428 1429 1470 1469
f 1429 1430 1471 1470
f 1430 1431 1472 1471
f 1431 1432 1473 1472
f 1432 1433 1474 1473
f 1433 1434 1475 1474
f 1434 1435 1476 1475
f 1436 1437 1478 1477
f 1437 1438 1479 1478
f 1438 1439 1480 1479
f 1439 1440 1481 1480
f 1440 1441 1482 1481
f 1441 1442 1483 1482
f 1442 1443 1484 1483
f 1443 1444 1485 1484
f 1444 1445 1486 1485
f 1445 1446 1487 1486
f 1446 1447 1488 1487
f 1447 1448 1489 1488
f 1448 1449 1490 1489
f 1449 1450 1491 1490
f 1450 1451 1492 1491
f 1451 1452 1493 1492
f 1452 1453 1494 1493
f 1453 1454 1495 1494
f 1454 1455 1496 1495
f 1455 1456 1497 1496
f 1456 1457 1498 1497
f 1457 1458 1499 1498
f 1458 1459 1500 1499
f 1459 1460 1501 1500
f 1460 1461 1502 1501
f 1461 1462 1503 1502
f 1462 1463 1504 1503
f 1463 1464 1505 1504
f 1464 1465 1506 1505
f 1465 1466 1507 1506
f 1466 1467 1508 1507
f 1467 1468 1509 1508
f 1468 1469 1510 1509
f 1469 1470 1511 1510
f 1470 1471 1512 1511
f 1471 1472 1513 1512
f 1472 1473 1514 1513
f 1473 1474 1515 1514
f 1474 1475 1516 1515
f 1475 1476 1517 1516
f 1477 1478 1519 1518
f 1478 1479 1520 1519
f 1479 1480 1521 1520
f 1480 1481 1522 1521
f 1481 1482 1523 1522
f 1482 1483 1524 1523
f 1483 1484 1525 1524
f 1484 1485 1526 1525
f 1485 1486 1527 1526
f 1486 1487 1528 1527
f 1487 1488 1529 1528
f 1488 1489 1530 1529
f 1489 1490 1531 1530
f 1490 1491 1532 1531
f 1491 1492 1533 1532
f 1492 1493 1534 1533
f 1493 1494 1535 1534
f 1494 1495 1536 1535
f 1495 1496 1537 1536
f 1496 1497 1538 1537
f 1497 1498 1539 1538
f 1498 1499 1540 1539
f 1499 1500 1541 1540
f 1500 1501 1542 1541
f 1501 1502 1543 1542
f 1502 1503 1544 1543
f 1503 1504 1545 1544
f 1504 1505 1546 1545
f 1505 1506 1547 1546
f 1506 1507 1548 1547
f 1507 1508 1549 1548
f 1508 1509 1550 1549
f 1509 1510 1551 1550
f 1510 1511 1552 1551
f 1511 1512 1553 1552
f 1512 1513 1554 1553
f 1513 1514 1555 1554
f 1514 1515 1556 1555
f 1515 1516 1557 1556
f 1516 1517 1558 1557
f 1518 1519 1560 1559
f 1519 1520 1561 1560
f 1520 1521 1562 1561
f 1521 1522 1563 1562
f 1522 1523 1564 1563
f 1523 1524 1565 1564
f 1524 1525 1566 1565
f 1525 1526 1567 1566
f 1526 1527 1568 1567
f 1527 1528 1569 1568
f 1528 1529 1570 1569
f 1529 1530 1571 1570
f 1530 1531 1572 1571
f 1531 1532 1573 1572
f 1532 1533 1574 1573
f 1533 1534 1575 1574
f 1534 1535 1576 1575
f 1535 1536 1577 1576
f 1536 1537 1578 1577
f 1537 1538 1579 1578
f 1538 1539 1580 1579
f 1539 1540 1581 1580
f 1540 1541 1582 1581
f 1541 1542 1583 1582
f 1542 1543 1584 1583
f 1543 1544 1585 1584
f 1544 1545 1586 1585
f 1545 1546 1587 1586
f 1546 1547 1588 1587
f 1547 1548 1589 1588
f 1548 1549 1590 1589
f 1549 1550 1591 1590
f 1550 1551 1592 1591
f 1551 1552 1593 1592
f 1552 1553 1594 1593
f 1553 1554 1595 1594
f 1554 1555 1596 1595
f 1555 1556 1597 1596
f 1556 1557 1598 1597
f 1557 1558 1599 1598
f 1559 1560 1601 1600
f 1560 1561 1602 1601
f 1561 1562 1603 1602
f 1562 1563 1604 1603
f 1563 1564 1605 1604
f 1564 1565 1606 1605
f 1565 1566 1607 1606
f 1566 1567 1608 1607
f 1567 1568 1609 1608
f 1568 1569 1610 1609
f 1569 1570 1611 1610
f 1570 1571 1612 1611
f 1571 1572 1613 1612
f 1572 1573 1614 1613
f 1573 1574 1615 1614
f 1574 1575 1616 1615
f 1575 1576 1617 1616
f 1576 1577 1618 1617
f 1577 1578 1619 1618
f 1578 1579 1620 1619
f 1579 1580 1621 1620
f 1580 1581 1622 1621
f 1581 1582 1623 1622
f 1582 1583 1624 1623
f 1583 1584 1625 1624
f 1584 1585 1626 1625
f 1585 1586 1627 1626
f 1586 1587 1628 1627
f 1587 1588 1629 1628
f 1588 1589 1630 1629
f 1589 1590 1631 1630
f 1590 1591 1632 1631
f 1591 1592 1633 1632
f 1592 1593 1634 1633
f 1593 1594 1635 1634
f 1594 1595 1636 1635
f 1595 1596 1637 1636
f 1596 1597 1638 1637
f 1597 1598 1639 1638
f 1598 1599 1640 1639
f 1600 1601 1642 1641
f 1601 1602 1643 1642
f 1602 1603 1644 1643
f 1603 1604 1645 1644
f 1604 1605 1646 1645
f 1605 1606 1647 1646
f 1606 1607 1648 1647
f 1607 1608 1649 1648
f 1608 1609 1650 1649
f 1609 1610 1651 1650
f 1610 1611 1652 1651
f 1611 1612 1653 1652
f 1612 1613 1654 1653
f 1613 1614 1655 1654
f 1614 1615 1656 1655
f 1615 1616 1657 1656
f 1616 1617 1658 1657
f 1617 1618 1659 1658
f 1618 1619 1660 1659
f 1619 1620 1661 1660
f 1620 1621 1662 1661
f 1621 1622 1663 1662
f 1622 1623 1664 1663
f 1623 1624 1665 1664
f 1624 1625 1666 1665
f 1625 1626 1667 1666
f 1626 1627 1668 1667
f 1627 1628 1669 1668
f 1628 1629 1670 1669
f 1629 1630 1671 1670
f 1630 1631 1672 1671
f 1631 1632 1673 1672
f 1632 1633 1674 1673
f 1633 1634 1675 1674
f 1634 1635 1676 1675
f 1635 1636 1677 1676
f 1636 1637 1678 1677
f 1637 1638 1679 1678
f 1638 1639 1680 1679
f 1639 1640 1681 1680
