v -0.564642 0.000000 0.825336
v -0.477001 0.007061 0.840154
v -0.392680 0.016994 0.854382
v -0.309611 0.026209 0.868343
v -0.228188 0.034994 0.881944
v -0.148493 0.043111 0.895148
v -0.070729 0.050622 0.907903
v 0.004939 0.057541 0.920166
v 0.078325 0.063915 0.931896
v 0.149245 0.069780 0.943058
v 0.217503 0.075169 0.953623
v 0.282899 0.080114 0.963563
v 0.345218 0.084638 0.972856
v 0.404238 0.088763 0.981483
v 0.459722 0.092504 0.989430
v 0.511418 0.095877 0.996684
v 0.559063 0.098892 1.003234
v 0.602377 0.101558 1.009072
v 0.641065 0.103881 1.014187
v 0.674816 0.105867 1.018571
v 0.703305 0.107515 1.022212
v 0.726184 0.108822 1.025094
v 0.743090 0.109787 1.027200
v 0.753644 0.110431 1.028502
v 0.757365 0.111198 1.028959
v -0.564642 0.060000 0.825336
v -0.480906 0.059931 0.839496
v -0.395984 0.062608 0.853829
v -0.312699 0.066248 0.867831
v -0.230846 0.070254 0.881509
v -0.150823 0.074445 0.894773
v -0.072753 0.078661 0.907584
v 0.003163 0.082828 0.919893
v 0.076760 0.086886 0.931663
v 0.147854 0.090798 0.942858
v 0.216259 0.094535 0.953451
v 0.281777 0.098077 0.963413
v 0.344201 0.101406 0.972725
v 0.403309 0.104509 0.981368
v 0.458867 0.107378 0.989328
v 0.510628 0.110002 0.996591
v 0.558329 0.112374 1.003149
v 0.601690 0.114490 1.008993
v 0.640421 0.116342 1.014113
v 0.674211 0.117927 1.018500
v 0.702737 0.119237 1.022144
v 0.725665 0.120267 1.025032
v 0.742644 0.121014 1.027145
v 0.753292 0.121481 1.028458
v 0.757153 0.121856 1.028932
v -0.564642 0.120000 0.825336
v -0.481087 0.119902 0.839467
v -0.397408 0.119833 0.853592
v -0.314259 0.120707 0.867572
v -0.232621 0.122016 0.881216
v -0.152625 0.123642 0.894478
v -0.074566 0.125472 0.907289
v 0.001384 0.127431 0.919606
v 0.075026 0.129461 0.931386
v 0.146178 0.131519 0.942593
v 0.214644 0.133569 0.953198
v 0.280227 0.135579 0.963173
v 0.342714 0.137525 0.972497
v 0.401884 0.139383 0.981152
v 0.457502 0.141136 0.989123
v 0.509319 0.142766 0.996397
v 0.557073 0.144260 1.002965
v 0.600485 0.145605 1.008817
v 0.639261 0.146790 1.013945
v 0.673094 0.147809 1.018339
v 0.701660 0.148653 1.021990
v 0.724619 0.149320 1.024882
v 0.741613 0.149807 1.026998
v 0.752258 0.150110 1.028312
v 0.756163 0.150249 1.028791
v -0.564642 0.180000 0.825336
v -0.480784 0.179641 0.839519
v -0.397349 0.179101 0.853605
v -0.314634 0.178740 0.867513
v -0.233175 0.178768 0.881128
v -0.153367 0.179050 0.894359
v -0.075418 0.179551 0.907153
v 0.000442 0.180212 0.919456
v 0.074026 0.180994 0.931228
v 0.145136 0.181860 0.942430
v 0.213578 0.182781 0.953031
v 0.279147 0.183731 0.963006
v 0.341631 0.184686 0.972331
v 0.400806 0.185627 0.980987
v 0.456435 0.186535 0.988960
v 0.508269 0.187395 0.996238
v 0.556043 0.188193 1.002809
v 0.599478 0.188918 1.008666
v 0.638280 0.189561 1.013798
v 0.672139 0.190114 1.018197
v 0.700730 0.190574 1.021851
v 0.723710 0.190936 1.024747
v 0.740719 0.191200 1.026865
v 0.751377 0.191361 1.028181
v 0.755315 0.191427 1.028665
v -0.564642 0.240000 0.825336
v -0.480363 0.239682 0.839591
v -0.396892 0.238954 0.853683
v -0.314334 0.238216 0.867566
v -0.233073 0.237632 0.881148
v -0.153408 0.237259 0.894356
v -0.075594 0.237060 0.907128
v 0.000163 0.237016 0.919415
v 0.073660 0.237096 0.931173
v 0.144701 0.237275 0.942365
v 0.213088 0.237529 0.952958
v 0.278616 0.237838 0.962926
v 0.341068 0.238183 0.972247
v 0.400221 0.238548 0.980900
v 0.455837 0.238918 0.988872
v 0.507664 0.239280 0.996148
v 0.555438 0.239624 1.002720
v 0.598879 0.239940 1.008577
v 0.637691 0.240222 1.013711
v 0.671563 0.240466 1.018111
v 0.700167 0.240667 1.021768
v 0.723160 0.240825 1.024665
v 0.740180 0.240939 1.026784
v 0.750849 0.241009 1.028101
v 0.754808 0.241038 1.028588
v -0.564642 0.300000 0.825336
v -0.479966 0.299716 0.839659
v -0.396327 0.299042 0.853780
v -0.313803 0.298224 0.867657
v -0.232642 0.297460 0.881223
v -0.153095 0.296816 0.894412
v -0.075385 0.296311 0.907167
v 0.000276 0.295932 0.919439
v 0.073692 0.295664 0.931184
v 0.144665 0.295490 0.942365
v 0.212994 0.295392 0.952949
v 0.278475 0.295355 0.962910
v 0.340890 0.295364 0.972225
v 0.400014 0.295406 0.980874
v 0.455609 0.295471 0.988842
v 0.507423 0.295547 0.996117
v 0.555189 0.295628 1.002687
v 0.598628 0.295707 1.008543
v 0.637443 0.295779 1.013677
v 0.671320 0.295841 1.018078
v 0.699931 0.295891 1.021735
v 0.722931 0.295930 1.024633
v 0.739957 0.295957 1.026753
v 0.750635 0.295972 1.028070
v 0.754607 0.295979 1.028558
v -0.564642 0.360000 0.825336
v -0.479634 0.359778 0.839715
v -0.395802 0.359212 0.853869
v -0.313238 0.358482 0.867753
v -0.232120 0.357737 0.881312
v -0.152645 0.357060 0.894489
v -0.075015 0.356477 0.907232
v 0.000573 0.355992 0.919492
v 0.073922 0.355598 0.931226
v 0.144836 0.355283 0.942398
v 0.213116 0.355035 0.952974
v 0.278555 0.354843 0.962929
v 0.340936 0.354697 0.972238
v 0.400034 0.354586 0.980883
v 0.455608 0.354502 0.988848
v 0.507408 0.354438 0.996121
v 0.555166 0.354388 1.002689
v 0.598600 0.354347 1.008545
v 0.637414 0.354313 1.013678
v 0.671293 0.354284 1.018079
v 0.699907 0.354258 1.021735
v 0.722911 0.354236 1.024634
v 0.739943 0.354218 1.026754
v 0.750628 0.354206 1.028072
v 0.754609 0.354202 1.028561
v -0.564642 0.420000 0.825336
v -0.479379 0.419837 0.839759
v -0.395372 0.419410 0.853942
v -0.312745 0.418833 0.867837
v -0.231634 0.418221 0.881395
v -0.152199 0.417638 0.894566
v -0.074622 0.417117 0.907300
v 0.000912 0.416664 0.919551
v 0.074210 0.416279 0.931277
v 0.145080 0.415955 0.942442
v 0.213321 0.415685 0.953012
v 0.278726 0.415460 0.962962
v 0.341081 0.415273 0.972267
v 0.400156 0.415116 0.980909
v 0.455714 0.414985 0.988871
v 0.507501 0.414874 0.996141
v 0.555251 0.414778 1.002709
v 0.598681 0.414695 1.008563
v 0.637493 0.414623 1.013696
v 0.671372 0.414561 1.018096
v 0.699989 0.414508 1.021753
v 0.722996 0.414464 1.024651
v 0.740032 0.414431 1.026772
v 0.750723 0.414409 1.028091
v 0.754710 0.414401 1.028580
v -0.564642 0.480000 0.825336
v -0.479201 0.479894 0.839789
v -0.395061 0.479611 0.853995
v -0.312373 0.479218 0.867900
v -0.231253 0.478790 0.881459
v -0.151839 0.478373 0.894627
v -0.074294 0.477991 0.907356
v 0.001204 0.477653 0.919601
v 0.074468 0.477359 0.931322
v 0.145306 0.477107 0.942482
v 0.213519 0.476891 0.953048
v 0.278901 0.476706 0.962994
v 0.341236 0.476549 0.972296
v 0.400296 0.476414 0.980935
v 0.455841 0.476297 0.988896
v 0.507620 0.476196 0.996165
v 0.555363 0.476107 1.002731
v 0.598790 0.476030 1.008585
v 0.637600 0.475962 1.013717
v 0.671480 0.475903 1.018117
v 0.700098 0.475853 1.021774
v 0.723107 0.475812 1.024672
v 0.740146 0.475781 1.026793
v 0.750842 0.475761 1.028112
v 0.754832 0.475754 1.028602
v -0.564642 0.540000 0.825336
v -0.479096 0.539948 0.839807
v -0.394873 0.539807 0.854027
v -0.312144 0.539609 0.867939
v -0.231014 0.539391 0.881500
v -0.151608 0.539175 0.894666
v -0.074080 0.538975 0.907393
v 0.001397 0.538796 0.919635
v 0.074641 0.538639 0.931352
v 0.145460 0.538502 0.942509
v 0.213657 0.538385 0.953073
v 0.279025 0.538283 0.963017
v 0.341348 0.538195 0.972317
v 0.400398 0.538119 0.980955
v 0.455937 0.538053 0.988914
v 0.507710 0.537994 0.996182
v 0.555450 0.537943 1.002748
v 0.598874 0.537898 1.008601
v 0.637683 0.537859 1.013733
v 0.671563 0.537825 1.018133
v 0.700182 0.537796 1.021790
v 0.723193 0.537772 1.024688
v 0.740234 0.537754 1.026809
v 0.750933 0.537743 1.028129
v 0.754925 0.537738 1.028618
v -0.564642 0.600000 0.825336
v -0.479062 0.600000 0.839813
v -0.394811 0.600000 0.854037
v -0.312067 0.600000 0.867952
v -0.230933 0.600000 0.881514
v -0.151529 0.600000 0.894680
v -0.074006 0.600000 0.907405
v 0.001464 0.600000 0.919646
v 0.074702 0.600000 0.931363
v 0.145515 0.600000 0.942519
v 0.213707 0.600000 0.953082
v 0.279070 0.600000 0.963025
v 0.341389 0.600000 0.972324
v 0.400436 0.600000 0.980962
v 0.455971 0.600000 0.988921
v 0.507743 0.600000 0.996188
v 0.555481 0.600000 1.002754
v 0.598905 0.600000 1.008607
v 0.637714 0.600000 1.013739
v 0.671593 0.600000 1.018139
v 0.700213 0.600000 1.021796
v 0.723224 0.600000 1.024694
v 0.740266 0.600000 1.026815
v 0.750966 0.600000 1.028135
v 0.754959 0.600000 1.028624
v -0.564642 0.660000 0.825336
v -0.479096 0.660052 0.839807
v -0.394873 0.660193 0.854027
v -0.312144 0.660391 0.867939
v -0.231014 0.660609 0.881500
v -0.151608 0.660825 0.894666
v -0.074080 0.661025 0.907393
v 0.001397 0.661204 0.919635
v 0.074641 0.661361 0.931352
v 0.145460 0.661498 0.942509
v 0.213657 0.661615 0.953073
v 0.279025 0.661717 0.963017
v 0.341348 0.661805 0.972317
v 0.400398 0.661881 0.980955
v 0.455937 0.661947 0.988914
v 0.507710 0.662006 0.996182
v 0.555450 0.662057 1.002748
v 0.598874 0.662102 1.008601
v 0.637683 0.662141 1.013733
v 0.671563 0.662175 1.018133
v 0.700182 0.662204 1.021790
v 0.723193 0.662228 1.024688
v 0.740234 0.662246 1.026809
v 0.750933 0.662257 1.028129
v 0.754925 0.662262 1.028618
v -0.564642 0.720000 0.825336
v -0.479201 0.720106 0.839789
v -0.395061 0.720389 0.853995
v -0.312373 0.720782 0.867900
v -0.231253 0.721210 0.881459
v -0.151839 0.721627 0.894627
v -0.074294 0.722009 0.907356
v 0.001204 0.722347 0.919601
v 0.074468 0.722641 0.931322
v 0.145306 0.722893 0.942482
v 0.213519 0.723109 0.953048
v 0.278901 0.723294 0.962994
v 0.341236 0.723451 0.972296
v 0.400296 0.723586 0.980935
v 0.455841 0.723703 0.988896
v 0.507620 0.723804 0.996165
v 0.555363 0.723893 1.002731
v 0.598790 0.723970 1.008585
v 0.637600 0.724038 1.013717
v 0.671480 0.724097 1.018117
v 0.700098 0.724147 1.021774
v 0.723107 0.724188 1.024672
v 0.740146 0.724219 1.026793
v 0.750842 0.724239 1.028112
v 0.754832 0.724246 1.028602
v -0.564642 0.780000 0.825336
v -0.479379 0.780163 0.839759
v -0.395372 0.780590 0.853942
v -0.312745 0.781167 0.867837
v -0.231634 0.781779 0.881395
v -0.152199 0.782362 0.894566
v -0.074622 0.782883 0.907300
v 0.000912 0.783336 0.919551
v 0.074210 0.783721 0.931277
v 0.145080 0.784045 0.942442
v 0.213321 0.784315 0.953012
v 0.278726 0.784540 0.962962
v 0.341081 0.784727 0.972267
v 0.400156 0.784884 0.980909
v 0.455714 0.785015 0.988871
v 0.507501 0.785126 0.996141
v 0.555251 0.785222 1.002709
v 0.598681 0.785305 1.008563
v 0.637493 0.785377 1.013696
v 0.671372 0.785439 1.018096
v 0.699989 0.785492 1.021753
v 0.722996 0.785536 1.024651
v 0.740032 0.785569 1.026772
v 0.750723 0.785591 1.028091
v 0.754710 0.785599 1.028580
v -0.564642 0.840000 0.825336
v -0.479634 0.840222 0.839715
v -0.395802 0.840788 0.853869
v -0.313238 0.841518 0.867753
v -0.232120 0.842263 0.881312
v -0.152645 0.842940 0.894489
v -0.075015 0.843523 0.907232
v 0.000573 0.844008 0.919492
v 0.073922 0.844402 0.931226
v 0.144836 0.844717 0.942398
v 0.213116 0.844965 0.952974
v 0.278555 0.845157 0.962929
v 0.340936 0.845303 0.972238
v 0.400034 0.845414 0.980883
v 0.455608 0.845498 0.988848
v 0.507408 0.845562 0.996121
v 0.555166 0.845612 1.002689
v 0.598600 0.845653 1.008545
v 0.637414 0.845687 1.013678
v 0.671293 0.845716 1.018079
v 0.699907 0.845742 1.021735
v 0.722911 0.845764 1.024634
v 0.739943 0.845782 1.026754
v 0.750628 0.845794 1.028072
v 0.754609 0.845798 1.028561
v -0.564642 0.900000 0.825336
v -0.479966 0.900284 0.839659
v -0.396327 0.900958 0.853780
v -0.313803 0.901776 0.867657
v -0.232642 0.902540 0.881223
v -0.153095 0.903184 0.894412
v -0.075385 0.903689 0.907167
v 0.000276 0.904068 0.919439
v 0.073692 0.904336 0.931184
v 0.144665 0.904510 0.942365
v 0.212994 0.904608 0.952949
v 0.278475 0.904645 0.962910
v 0.340890 0.904636 0.972225
v 0.400014 0.904594 0.980874
v 0.455609 0.904529 0.988842
v 0.507423 0.904453 0.996117
v 0.555189 0.904372 1.002687
v 0.598628 0.904293 1.008543
v 0.637443 0.904221 1.013677
v 0.671320 0.904159 1.018078
v 0.699931 0.904109 1.021735
v 0.722931 0.904070 1.024633
v 0.739957 0.904043 1.026753
v 0.750635 0.904028 1.028070
v 0.754607 0.904021 1.028558
v -0.564642 0.960000 0.825336
v -0.480363 0.960318 0.839591
v -0.396892 0.961046 0.853683
v -0.314334 0.961784 0.867566
v -0.233073 0.962368 0.881148
v -0.153408 0.962741 0.894356
v -0.075594 0.962940 0.907128
v 0.000163 0.962984 0.919415
v 0.073660 0.962904 0.931173
v 0.144701 0.962725 0.942365
v 0.213088 0.962471 0.952958
v 0.278616 0.962162 0.962926
v 0.341068 0.961817 0.972247
v 0.400221 0.961452 0.980900
v 0.455837 0.961082 0.988872
v 0.507664 0.960720 0.996148
v 0.555438 0.960376 1.002720
v 0.598879 0.960060 1.008577
v 0.637691 0.959778 1.013711
v 0.671563 0.959534 1.018111
v 0.700167 0.959333 1.021768
v 0.723160 0.959175 1.024665
v 0.740180 0.959061 1.026784
v 0.750849 0.958991 1.028101
v 0.754808 0.958962 1.028588
v -0.564642 1.020000 0.825336
v -0.480784 1.020359 0.839519
v -0.397349 1.020899 0.853605
v -0.314634 1.021260 0.867513
v -0.233175 1.021232 0.881128
v -0.153367 1.020950 0.894359
v -0.075418 1.020449 0.907153
v 0.000442 1.019788 0.919456
v 0.074026 1.019006 0.931228
v 0.145136 1.018140 0.942430
v 0.213578 1.017219 0.953031
v 0.279147 1.016269 0.963006
v 0.341631 1.015314 0.972331
v 0.400806 1.014373 0.980987
v 0.456435 1.013465 0.988960
v 0.508269 1.012605 0.996238
v 0.556043 1.011807 1.002809
v 0.599478 1.011082 1.008666
v 0.638280 1.010439 1.013798
v 0.672139 1.009886 1.018197
v 0.700730 1.009426 1.021851
v 0.723710 1.009064 1.024747
v 0.740719 1.008800 1.026865
v 0.751377 1.008639 1.028181
v 0.755315 1.008573 1.028665
v -0.564642 1.080000 0.825336
v -0.481087 1.080098 0.839467
v -0.397408 1.080167 0.853592
v -0.314259 1.079293 0.867572
v -0.232621 1.077984 0.881216
v -0.152625 1.076358 0.894478
v -0.074566 1.074528 0.907289
v 0.001384 1.072569 0.919606
v 0.075026 1.070539 0.931386
v 0.146178 1.068481 0.942593
v 0.214644 1.066431 0.953198
v 0.280227 1.064421 0.963173
v 0.342714 1.062475 0.972497
v 0.401884 1.060617 0.981152
v 0.457502 1.058864 0.989123
v 0.509319 1.057234 0.996397
v 0.557073 1.055740 1.002965
v 0.600485 1.054395 1.008817
v 0.639261 1.053210 1.013945
v 0.673094 1.052191 1.018339
v 0.701660 1.051347 1.021990
v 0.724619 1.050680 1.024882
v 0.741613 1.050193 1.026998
v 0.752258 1.049890 1.028312
v 0.756163 1.049751 1.028791
v -0.564642 1.140000 0.825336
v -0.480906 1.140069 0.839496
v -0.395984 1.137392 0.853829
v -0.312699 1.133752 0.867831
v -0.230846 1.129746 0.881509
v -0.150823 1.125555 0.894773
v -0.072753 1.121339 0.907584
v 0.003163 1.117172 0.919893
v 0.076760 1.113114 0.931663
v 0.147854 1.109202 0.942858
v 0.216259 1.105465 0.953451
v 0.281777 1.101923 0.963413
v 0.344201 1.098594 0.972725
v 0.403309 1.095491 0.981368
v 0.458867 1.092622 0.989328
v 0.510628 1.089998 0.996591
v 0.558329 1.087626 1.003149
v 0.601690 1.085510 1.008993
v 0.640421 1.083658 1.014113
v 0.674211 1.082073 1.018500
v 0.702737 1.080763 1.022144
v 0.725665 1.079733 1.025032
v 0.742644 1.078986 1.027145
v 0.753292 1.078519 1.028458
v 0.757153 1.078144 1.028932
v -0.564642 1.200000 0.825336
v -0.477001 1.192939 0.840154
v -0.392680 1.183006 0.854382
v -0.309611 1.173791 0.868343
v -0.228188 1.165006 0.881944
v -0.148493 1.156889 0.895148
v -0.070729 1.149378 0.907903
v 0.004939 1.142459 0.920166
v 0.078325 1.136085 0.931896
v 0.149245 1.130220 0.943058
v 0.217503 1.124831 0.953623
v 0.282899 1.119886 0.963563
v 0.345218 1.115362 0.972856
v 0.404238 1.111237 0.981483
v 0.459722 1.107496 0.989430
v 0.511418 1.104123 0.996684
v 0.559063 1.101108 1.003234
v 0.602377 1.098442 1.009072
v 0.641065 1.096119 1.014187
v 0.674816 1.094133 1.018571
v 0.703305 1.092485 1.022212
v 0.726184 1.091178 1.025094
v 0.743090 1.090213 1.027200
v 0.753644 1.089569 1.028502
v 0.757365 1.088802 1.028959
f 1 2 27 26
f 2 3 28 27
f 3 4 29 28
f 4 5 30 29
f 5 6 31 30
f 6 7 32 31
f 7 8 33 32
f 8 9 34 33
f 9 10 35 34
f 10 11 36 35
f 11 12 37 36
f 12 13 38 37
f 13 14 39 38
f 14 15 40 39
f 15 16 41 40
f 16 17 42 41
f 17 18 43 42
f 18 19 44 43
f 19 20 45 44
f 20 21 46 45
f 21 22 47 46
f 22 23 48 47
f 23 24 49 48
f 24 25 50 49
f 26 27 52 51
f 27 28 53 52
f 28 29 54 53
f 29 30 55 54
f 30 31 56 55
f 31 32 57 56
f 32 33 58 57
f 33 34 59 58
f 34 35 60 59
f 35 36 61 60
f 36 37 62 61
f 37 38 63 62
f 38 39 64 63
f 39 40 65 64
f 40 41 66 65
f 41 42 67 66
f 42 43 68 67
f 43 44 69 68
f 44 45 70 69
f 45 46 71 70
f 46 47 72 71
f 47 48 73 72
f 48 49 74 73
f 49 50 75 74
f 51 52 77 76
f 52 53 78 77
f 53 54 79 78
f 54 55 80 79
f 55 56 81 80
f 56 57 82 81
f 57 58 83 82
f 58 59 84 83
f 59 60 85 84
f 60 61 86 85
f 61 62 87 86
f 62 63 88 87
f 63 64 89 88
f 64 65 90 89
f 65 66 91 90
f 66 67 92 91
f 67 68 93 92
f 68 69 94 93
f 69 70 95 94
f 70 71 96 95
f 71 72 97 96
f 72 73 98 97
f 73 74 99 98
f 74 75 100 99
f 76 77 102 101
f 77 78 103 102
f 78 79 104 103
f 79 80 105 104
f 80 81 106 105
f 81 82 107 106
f 82 83 108 107
f 83 84 109 108
f 84 85 110 109
f 85 86 111 110
f 86 87 112 111
f 87 88 113 112
f 88 89 114 113
f 89 90 115 114
f 90 91 116 115
f 91 92 117 116
f 92 93 118 117
f 93 94 119 118
f 94 95 120 119
f 95 96 121 120
f 96 97 122 121
f 97 98 123 122
f 98 99 124 123
f 99 100 125 124
f 101 102 127 126
f 102 103 128 127
f 103 104 129 128
f 104 105 130 129
f 105 106 131 130
f 106 107 132 131
f 107 108 133 132
f 108 109 134 133
f 109 110 135 134
f 110 111 136 135
f 111 112 137 136
f 112 113 138 137
f 113 114 139 138
f 114 115 140 139
f 115 116 141 140
f 116 117 142 141
f 117 118 143 142
f 118 119 144 143
f 119 120 145 144
f 120 121 146 145
f 121 122 147 146
f 122 123 148 147
f 123 124 149 148
f 124 125 150 149
f 126 127 152 151
f 127 128 153 152
f 128 129 154 153
f 129 130 155 154
f 130 131 156 155
f 131 132 157 156
f 132 133 158 157
f 133 134 159 158
f 134 135 160 159
f 135 136 161 160
f 136 137 162 161
f 137 138 163 162
f 138 139 164 163
f 139 140 165 164
f 140 141 166 165
f 141 142 167 166
f 142 143 168 167
f 143 144 169 168
f 144 145 170 169
f 145 146 171 170
f 146 147 172 171
f 147 148 173 172
f 148 149 174 173
f 149 150 175 174
f 151 152 177 176
f 152 153 178 177
f 153 154 179 178
f 154 155 180 179
f 155 156 181 180
f 156 157 182 181
f 157 158 183 182
f 158 159 184 183
f 159 160 185 184
f 160 161 186 185
f 161 162 187 186
f 162 163 188 187
f 163 164 189 188
f 164 165 190 189
f 165 166 191 190
f 166 167 192 191
f 167 168 193 192
f 168 169 194 193
f 169 170 195 194
f 170 171 196 195
f 171 172 197 196
f 172 173 198 197
f 173 174 199 198
f 174 175 200 199
f 176 177 202 201
f 177 178 203 202
f 178 179 204 203
f 179 180 205 204
f 180 181 206 205
f 181 182 207 206
f 182 183 208 207
f 183 184 209 208
f 184 185 210 209
f 185 186 211 210
f 186 187 212 211
f 187 188 213 212
f 188 189 214 213
f 189 190 215 214
f 190 191 216 215
f 191 192 217 216
f 192 193 218 217
f 193 194 219 218
f 194 195 220 219
f 195 196 221 220
f 196 197 222 221
f 197 198 223 222
f 198 199 224 223
f 199 200 225 224
f 201 202 227 226
f 202 203 228 227
f 203 204 229 228
f 204 205 230 229
f 205 206 231 230
f 206 207 232 231
f 207 208 233 232
f 208 209 234 233
f 209 210 235 234
f 210 211 236 235
f 211 212 237 236
f 212 213 238 237
f 213 214 239 238
f 214 215 240 239
f 215 216 241 240
f 216 217 242 241
f 217 218 243 242
f 218 219 244 243
f 219 220 245 244
f 220 221 246 245
f 221 222 247 246
f 222 223 248 247
f 223 224 249 248
f 224 225 250 249
f 226 227 252 251
f 227 228 253 252
f 228 229 254 253
f 229 230 255 254
f 230 231 256 255
f 231 232 257 256
f 232 233 258 257
f 233 234 259 258
f 234 235 260 259
f 235 236 261 260
f 236 237 262 261
f 237 238 263 262
f 238 239 264 263
f 239 240 265 264
f 240 241 266 265
f 241 242 267 266
f 242 243 268 267
f 243 244 269 268
f 244 245 270 269
f 245 246 271 270
f 246 247 272 271
f 247 248 273 272
f 248 249 274 273
f 249 250 275 274
f 251 252 277 276
f 252 253 278 277
f 253 254 279 278
f 254 255 280 279
f 255 256 281 280
f 256 257 282 281
f 257 258 283 282
f 258 259 284 283
f 259 260 285 284
f 260 261 286 285
f 261 262 287 286
f 262 263 288 287
f 263 264 289 288
f 264 265 290 289
f 265 266 291 290
f 266 267 292 291
f 267 268 293 292
f 268 269 294 293
f 269 270 295 294
f 270 271 296 295
f 271 272 297 296
f 272 273 298 297
f 273 274 299 298
f 274 275 300 299
f 276 277 302 301
f 277 278 303 302
f 278 279 304 303
f 279 280 305 304
f 280 281 306 305
f 281 282 307 306
f 282 283 308 307
f 283 284 309 308
f 284 285 310 309
f 285 286 311 310
f 286 287 312 311
f 287 288 313 312
f 288 289 314 313
f 289 290 315 314
f 290 291 316 315
f 291 292 317 316
f 292 293 318 317
f 293 294 319 318
f 294 295 320 319
f 295 296 321 320
f 296 297 322 321
f 297 298 323 322
f 298 299 324 323
f 299 300 325 324
f 301 302 327 326
f 302 303 328 327
f 303 304 329 328
f 304 305 330 329
f 305 306 331 330
f 306 307 332 331
f 307 308 333 332
f 308 309 334 333
f 309 310 335 334
f 310 311 336 335
f 311 312 337 336
f 312 313 338 337
f 313 314 339 338
f 314 315 340 339
f 315 316 341 340
f 316 317 342 341
f 317 318 343 342
f 318 319 344 343
f 319 320 345 344
f 320 321 346 345
f 321 322 347 346
f 322 323 348 347
f 323 324 349 348
f 324 325 350 349
f 326 327 352 351
f 327 328 353 352
f 328 329 354 353
f 329 330 355 354
f 330 331 356 355
f 331 332 357 356
f 332 333 358 357
f 333 334 359 358
f 334 335 360 359
f 335 336 361 360
f 336 337 362 361
f 337 338 363 362
f 338 339 364 363
f 339 340 365 364
f 340 341 366 365
f 341 342 367 366
f 342 343 368 367
f 343 344 369 368
f 344 345 370 369
f 345 346 371 370
f 346 347 372 371
f 347 348 373 372
f 348 349 374 373
f 349 350 375 374
f 351 352 377 376
f 352 353 378 377
f 353 354 379 378
f 354 355 380 379
f 355 356 381 380
f 356 357 382 381
f 357 358 383 382
f 358 359 384 383
f 359 360 385 384
f 360 361 386 385
f 361 362 387 386
f 362 363 388 387
f 363 364 389 388
f 364 365 390 389
f 365 366 391 390
f 366 367 392 391
f 367 368 393 392
f 368 369 394 393
f 369 370 395 394
f 370 371 396 395
f 371 372 397 396
f 372 373 398 397
f 373 374 399 398
f 374 375 400 399
f 376 377 402 401
f 377 378 403 402
f 378 379 404 403
f 379 380 405 404
f 380 381 406 405
f 381 382 407 406
f 382 383 408 407
f 383 384 409 408
f 384 385 410 409
f 385 386 411 410
f 386 387 412 411
f 387 388 413 412
f 388 389 414 413
f 389 390 415 414
f 390 391 416 415
f 391 392 417 416
f 392 393 418 417
f 393 394 419 418
f 394 395 420 419
f 395 396 421 420
f 396 397 422 421
f 397 398 423 422
f 398 399 424 423
f 399 400 425 424
f 401 402 427 426
f 402 403 428 427
f 403 404 429 428
f 404 405 430 429
f 405 406 431 430
f 406 407 432 431
f 407 408 433 432
f 408 409 434 433
f 409 410 435 434
f 410 411 436 435
f 411 412 437 436
f 412 413 438 437
f 413 414 439 438
f 414 415 440 439
f 415 416 441 440
f 416 417 442 441
f 417 418 443 442
f 418 419 444 443
f 419 420 445 444
f 420 421 446 445
f 421 422 447 446
f 422 423 448 447
f 423 424 449 448
f 424 425 450 449
f 426 427 452 451
f 427 428 453 452
f 428 429 454 453
f 429 430 455 454
f 430 431 456 455
f 431 432 457 456
f 432 433 458 457
f 433 434 459 458
f 434 435 460 459
f 435 436 461 460
f 436 437 462 461
f 437 438 463 462
f 438 439 464 463
f 439 440 465 464
f 440 441 466 465
f 441 442 467 466
f 442 443 468 467
f 443 444 469 468
f 444 445 470 469
f 445 446 471 470
f 446 447 472 471
f 447 448 473 472
f 448 449 474 473
f 449 450 475 474
f 451 452 477 476
f 452 453 478 477
f 453 454 479 478
f 454 455 480 479
f 455 456 481 480
f 456 457 482 481
f 457 458 483 482
f 458 459 484 483
f 459 460 485 484
f 460 461 486 485
f 461 462 487 486
f 462 463 488 487
f 463 464 489 488
f 464 465 490 489
f 465 466 491 490
f 466 467 492 491
f 467 468 493 492
f 468 469 494 493
f 469 470 495 494
f 470 471 496 495
f 471 472 497 496
f 472 473 498 497
f 473 474 499 498
f 474 475 500 499
f 476 477 502 501
f 477 478 503 502
f 478 479 504 503
f 479 480 505 504
f 480 481 506 505
f 481 482 507 506
f 482 483 508 507
f 483 484 509 508
f 484 485 510 509
f 485 486 511 510
f 486 487 512 511
f 487 488 513 512
f 488 489 514 513
f 489 490 515 514
f 490 491 516 515
f 491 492 517 516
f 492 493 518 517
f 493 494 519 518
f 494 495 520 519
f 495 496 521 520
f 496 497 522 521
f 497 498 523 522
f 498 499 524 523
f 499 500 525 524
