v 0.565354 0.764842 -0.308854
v 0.580084 0.764842 -0.280212
v 0.593364 0.764842 -0.250870
v 0.605161 0.764842 -0.220901
v 0.615445 0.764842 -0.190379
v 0.624191 0.764842 -0.159382
v 0.631376 0.764842 -0.127986
v 0.636984 0.764842 -0.096271
v 0.640999 0.764842 -0.064314
v 0.643413 0.764842 -0.032197
v 0.644218 0.764842 0.000000
v 0.643413 0.764842 0.032197
v 0.640999 0.764842 0.064314
v 0.636984 0.764842 0.096271
v 0.631376 0.764842 0.127986
v 0.624191 0.764842 0.159382
v 0.615445 0.764842 0.190379
v 0.605161 0.764842 0.220901
v 0.593364 0.764842 0.250870
v 0.580084 0.764842 0.280212
v 0.565354 0.764842 0.308854
v 0.581956 0.748499 -0.317924
v 0.596922 0.748304 -0.288322
v 0.610452 0.748233 -0.258069
v 0.622477 0.748193 -0.227200
v 0.632962 0.748163 -0.195780
v 0.641878 0.748138 -0.163884
v 0.649204 0.748117 -0.131589
v 0.654921 0.748102 -0.098974
v 0.659016 0.748090 -0.066117
v 0.661476 0.748083 -0.033099
v 0.662297 0.748081 -0.000000
v 0.661476 0.748083 0.033099
v 0.659016 0.748090 0.066117
v 0.654921 0.748102 0.098974
v 0.649204 0.748117 0.131589
v 0.641878 0.748138 0.163884
v 0.632962 0.748163 0.195780
v 0.622477 0.748193 0.227200
v 0.610452 0.748233 0.258069
v 0.596922 0.748304 0.288322
v 0.581956 0.748499 0.317924
v 0.598194 0.731689 -0.326795
v 0.613503 0.731363 -0.296292
v 0.627387 0.731243 -0.265183
v 0.639731 0.731177 -0.233456
v 0.650492 0.731129 -0.201167
v 0.659642 0.731091 -0.168392
v 0.667160 0.731060 -0.135207
v 0.673026 0.731035 -0.101694
v 0.677226 0.731018 -0.067934
v 0.679751 0.731007 -0.034008
v 0.680593 0.731004 -0.000000
v 0.679751 0.731007 0.034008
v 0.677226 0.731018 0.067934
v 0.673026 0.731035 0.101694
v 0.667160 0.731060 0.135207
v 0.659642 0.731091 0.168392
v 0.650492 0.731129 0.201167
v 0.639731 0.731177 0.233456
v 0.627387 0.731243 0.265183
v 0.613503 0.731363 0.296292
v 0.598194 0.731689 0.326795
v 0.614059 0.714421 -0.335462
v 0.629709 0.714004 -0.304100
v 0.643959 0.713846 -0.272158
v 0.656637 0.713760 -0.239595
v 0.667691 0.713698 -0.206460
v 0.677091 0.713648 -0.172825
v 0.684814 0.713607 -0.138769
v 0.690840 0.713576 -0.104374
v 0.695154 0.713553 -0.069724
v 0.697747 0.713540 -0.034905
v 0.698613 0.713535 -0.000000
v 0.697747 0.713540 0.034905
v 0.695154 0.713553 0.069724
v 0.690840 0.713576 0.104374
v 0.684814 0.713607 0.138769
v 0.677091 0.713648 0.172825
v 0.667691 0.713698 0.206460
v 0.656637 0.713760 0.239595
v 0.643959 0.713846 0.272158
v 0.629709 0.714004 0.304100
v 0.614059 0.714421 0.335462
v 0.629539 0.696707 -0.343919
v 0.645523 0.696221 -0.311733
v 0.660128 0.696037 -0.278980
v 0.673136 0.695935 -0.245602
v 0.684480 0.695861 -0.211640
v 0.694127 0.695801 -0.177163
v 0.702053 0.695752 -0.142254
v 0.708237 0.695714 -0.106997
v 0.712666 0.695687 -0.071477
v 0.715327 0.695671 -0.035782
v 0.716215 0.695666 -0.000000
v 0.715327 0.695671 0.035782
v 0.712666 0.695687 0.071477
v 0.708237 0.695714 0.106997
v 0.702053 0.695752 0.142254
v 0.694127 0.695801 0.177163
v 0.684480 0.695861 0.211640
v 0.673136 0.695935 0.245602
v 0.660128 0.696037 0.278980
v 0.645523 0.696221 0.311733
v 0.629539 0.696707 0.343919
v 0.644626 0.678557 -0.352161
v 0.660936 0.678022 -0.319182
v 0.675884 0.677819 -0.285642
v 0.689210 0.677705 -0.251468
v 0.700835 0.677621 -0.216697
v 0.710722 0.677552 -0.181399
v 0.718846 0.677497 -0.145657
v 0.725185 0.677454 -0.109558
v 0.729724 0.677423 -0.073188
v 0.732452 0.677405 -0.036639
v 0.733362 0.677398 -0.000000
v 0.732452 0.677405 0.036639
v 0.729724 0.677423 0.073188
v 0.725185 0.677454 0.109558
v 0.718846 0.677497 0.145657
v 0.710722 0.677552 0.181399
v 0.700835 0.677621 0.216697
v 0.689210 0.677705 0.251468
v 0.675884 0.677819 0.285642
v 0.660936 0.678022 0.319182
v 0.644626 0.678557 0.352161
v 0.659311 0.659983 -0.360183
v 0.675941 0.659413 -0.326439
v 0.691221 0.659198 -0.292135
v 0.704853 0.659075 -0.257186
v 0.716750 0.658984 -0.221627
v 0.726869 0.658909 -0.185529
v 0.735183 0.658848 -0.148974
v 0.741671 0.658801 -0.112053
v 0.746318 0.658767 -0.074856
v 0.749110 0.658747 -0.037474
v 0.750041 0.658740 0.000000
v 0.749110 0.658747 0.037474
v 0.746318 0.658767 0.074856
v 0.741671 0.658801 0.112053
v 0.735183 0.658848 0.148974
v 0.726869 0.658909 0.185529
v 0.716750 0.658984 0.221627
v 0.704853 0.659075 0.257186
v 0.691221 0.659198 0.292135
v 0.675941 0.659413 0.326439
v 0.659311 0.659983 0.360183
v 0.673583 0.640997 -0.367980
v 0.690530 0.640406 -0.333498
v 0.706131 0.640182 -0.298454
v 0.720060 0.640055 -0.262752
v 0.732217 0.639958 -0.226426
v 0.742560 0.639879 -0.189548
v 0.751058 0.639814 -0.152203
v 0.757690 0.639764 -0.114482
v 0.762440 0.639727 -0.076479
v 0.765294 0.639706 -0.038287
v 0.766246 0.639699 0.000000
v 0.765294 0.639706 0.038287
v 0.762440 0.639727 0.076479
v 0.757690 0.639764 0.114482
v 0.751058 0.639814 0.152203
v 0.742560 0.639879 0.189548
v 0.732217 0.639958 0.226426
v 0.720060 0.640055 0.262752
v 0.706131 0.640182 0.298454
v 0.690530 0.640406 0.333498
v 0.673583 0.640997 0.367980
v 0.687434 0.621610 -0.375547
v 0.704696 0.621011 -0.340354
v 0.720608 0.620783 -0.304594
v 0.734823 0.620652 -0.268161
v 0.747233 0.620552 -0.231090
v 0.757790 0.620470 -0.193453
v 0.766466 0.620403 -0.155339
v 0.773236 0.620350 -0.116842
v 0.778084 0.620313 -0.078055
v 0.780998 0.620290 -0.039076
v 0.781970 0.620283 0.000000
v 0.780998 0.620290 0.039076
v 0.778084 0.620313 0.078055
v 0.773236 0.620350 0.116842
v 0.766466 0.620403 0.155339
v 0.757790 0.620470 0.193453
v 0.747233 0.620552 0.231090
v 0.734823 0.620652 0.268161
v 0.720608 0.620783 0.304594
v 0.704696 0.621011 0.340354
v 0.687434 0.621610 0.375547
v 0.700856 0.601835 -0.382879
v 0.718430 0.601238 -0.347004
v 0.734646 0.601011 -0.310550
v 0.749136 0.600878 -0.273409
v 0.761788 0.600777 -0.235614
v 0.772553 0.600694 -0.197241
v 0.781399 0.600625 -0.158381
v 0.788302 0.600572 -0.119130
v 0.793246 0.600534 -0.079584
v 0.796217 0.600511 -0.039841
v 0.797208 0.600503 0.000000
v 0.796217 0.600511 0.039841
v 0.793246 0.600534 0.079584
v 0.788302 0.600572 0.119130
v 0.781399 0.600625 0.158381
v 0.772553 0.600694 0.197241
v 0.761788 0.600777 0.235614
v 0.749136 0.600878 0.273409
v 0.734646 0.601011 0.310550
v 0.718430 0.601238 0.347004
v 0.700856 0.601835 0.382879
v 0.713839 0.581683 -0.389972
v 0.731725 0.581099 -0.353441
v 0.748236 0.580876 -0.316319
v 0.762992 0.580745 -0.278491
v 0.775878 0.580643 -0.239994
v 0.786842 0.580560 -0.200908
v 0.795851 0.580492 -0.161326
v 0.802882 0.580439 -0.121345
v 0.807917 0.580401 -0.081064
v 0.810942 0.580379 -0.040582
v 0.811952 0.580371 0.000000
v 0.810942 0.580379 0.040582
v 0.807917 0.580401 0.081064
v 0.802882 0.580439 0.121345
v 0.795851 0.580492 0.161326
v 0.786842 0.580560 0.200908
v 0.775878 0.580643 0.239994
v 0.762992 0.580745 0.278491
v 0.748236 0.580876 0.316319
v 0.731725 0.581099 0.353441
v 0.713839 0.581683 0.389972
v 0.726377 0.561168 -0.396821
v 0.744573 0.560607 -0.359663
v 0.761371 0.560391 -0.321895
v 0.776385 0.560262 -0.283403
v 0.789495 0.560163 -0.244228
v 0.800650 0.560081 -0.204453
v 0.809816 0.560015 -0.164172
v 0.816969 0.559964 -0.123485
v 0.822091 0.559927 -0.082493
v 0.825169 0.559905 -0.041298
v 0.826196 0.559898 0.000000
v 0.825169 0.559905 0.041298
v 0.822091 0.559927 0.082493
v 0.816969 0.559964 0.123485
v 0.809816 0.560015 0.164172
v 0.800650 0.560081 0.204453
v 0.789495 0.560163 0.244228
v 0.776385 0.560262 0.283403
v 0.761371 0.560391 0.321895
v 0.744573 0.560607 0.359663
v 0.726377 0.561168 0.396821
v 0.738460 0.540302 -0.403423
v 0.756967 0.539772 -0.365666
v 0.774045 0.539566 -0.327275
v 0.789307 0.539443 -0.288143
v 0.802632 0.539347 -0.248312
v 0.813970 0.539270 -0.207871
v 0.823285 0.539207 -0.166915
v 0.830555 0.539159 -0.125548
v 0.835760 0.539124 -0.083871
v 0.838889 0.539104 -0.041987
v 0.839932 0.539097 0.000000
v 0.838889 0.539104 0.041987
v 0.835760 0.539124 0.083871
v 0.830555 0.539159 0.125548
v 0.823285 0.539207 0.166915
v 0.813970 0.539270 0.207871
v 0.802632 0.539347 0.248312
v 0.789307 0.539443 0.288143
v 0.774045 0.539566 0.327275
v 0.756967 0.539772 0.365666
v 0.738460 0.540302 0.403423
v 0.750082 0.519099 -0.409772
v 0.768901 0.518608 -0.371444
v 0.786251 0.518416 -0.332456
v 0.801751 0.518299 -0.292704
v 0.815282 0.518211 -0.252242
v 0.826794 0.518139 -0.211159
v 0.836253 0.518081 -0.169555
v 0.843634 0.518037 -0.127533
v 0.848919 0.518006 -0.085196
v 0.852095 0.517987 -0.042651
v 0.853155 0.517981 0.000000
v 0.852095 0.517987 0.042651
v 0.848919 0.518006 0.085196
v 0.843634 0.518037 0.127533
v 0.836253 0.518081 0.169555
v 0.826794 0.518139 0.211159
v 0.815282 0.518211 0.252242
v 0.801751 0.518299 0.292704
v 0.786251 0.518416 0.332456
v 0.768901 0.518608 0.371444
v 0.750082 0.519099 0.409772
v 0.761235 0.497571 -0.415865
v 0.780367 0.497127 -0.376996
v 0.797983 0.496952 -0.337432
v 0.813710 0.496846 -0.297085
v 0.827439 0.496766 -0.256015
v 0.839116 0.496702 -0.214315
v 0.848711 0.496651 -0.172087
v 0.856198 0.496613 -0.129436
v 0.861559 0.496585 -0.086468
v 0.864780 0.496569 -0.043287
v 0.865855 0.496564 0.000000
v 0.864780 0.496569 0.043287
v 0.861559 0.496585 0.086468
v 0.856198 0.496613 0.129436
v 0.848711 0.496651 0.172087
v 0.839116 0.496702 0.214315
v 0.827439 0.496766 0.256015
v 0.813710 0.496846 0.297085
v 0.797983 0.496952 0.337432
v 0.780367 0.497127 0.376996
v 0.761235 0.497571 0.415865
v 0.771913 0.475732 -0.421698
v 0.791361 0.475342 -0.382316
v 0.809233 0.475188 -0.342199
v 0.825179 0.475095 -0.301280
v 0.839094 0.475027 -0.259626
v 0.850930 0.474974 -0.217335
v 0.860653 0.474932 -0.174510
v 0.868241 0.474901 -0.131258
v 0.873673 0.474879 -0.087684
v 0.876938 0.474866 -0.043896
v 0.878027 0.474861 -0.000000
v 0.876938 0.474866 0.043896
v 0.873673 0.474879 0.087684
v 0.868241 0.474901 0.131258
v 0.860653 0.474932 0.174510
v 0.850930 0.474974 0.217335
v 0.839094 0.475027 0.259626
v 0.825179 0.475095 0.301280
v 0.809233 0.475188 0.342199
v 0.791361 0.475342 0.382316
v 0.771913 0.475732 0.421698
v 0.782108 0.453596 -0.427268
v 0.801877 0.453266 -0.387400
v 0.819997 0.453138 -0.346753
v 0.836151 0.453063 -0.305285
v 0.850243 0.453010 -0.263073
v 0.862228 0.452970 -0.220217
v 0.872074 0.452939 -0.176823
v 0.879757 0.452916 -0.132996
v 0.885258 0.452900 -0.088845
v 0.888563 0.452890 -0.044477
v 0.889666 0.452887 -0.000000
v 0.888563 0.452890 0.044477
v 0.885258 0.452900 0.088845
v 0.879757 0.452916 0.132996
v 0.872074 0.452939 0.176823
v 0.862228 0.452970 0.220217
v 0.850243 0.453010 0.263073
v 0.836151 0.453063 0.305285
v 0.819997 0.453138 0.346753
v 0.801877 0.453266 0.387400
v 0.782108 0.453596 0.427268
v 0.791814 0.431177 -0.432570
v 0.811910 0.430914 -0.392244
v 0.830270 0.430817 -0.351090
v 0.846622 0.430765 -0.309097
v 0.860883 0.430729 -0.266354
v 0.873011 0.430704 -0.222960
v 0.882973 0.430684 -0.179023
v 0.890747 0.430670 -0.134650
v 0.896312 0.430661 -0.089949
v 0.899657 0.430655 -0.045029
v 0.900773 0.430653 -0.000000
v 0.899657 0.430655 0.045029
v 0.896312 0.430661 0.089949
v 0.890747 0.430670 0.134650
v 0.882973 0.430684 0.179023
v 0.873011 0.430704 0.222960
v 0.860883 0.430729 0.266354
v 0.846622 0.430765 0.309097
v 0.830270 0.430817 0.351090
v 0.811910 0.430914 0.392244
v 0.791814 0.431177 0.432570
v 0.801026 0.408487 -0.437602
v 0.821460 0.408301 -0.396844
v 0.840054 0.408241 -0.355207
v 0.856599 0.408211 -0.312720
v 0.871025 0.408194 -0.269472
v 0.883292 0.408183 -0.225569
v 0.893369 0.408175 -0.181117
v 0.901231 0.408169 -0.136224
v 0.906861 0.408165 -0.091001
v 0.910244 0.408163 -0.045556
v 0.911373 0.408162 -0.000000
v 0.910244 0.408163 0.045556
v 0.906861 0.408165 0.091001
v 0.901231 0.408169 0.136224
v 0.893369 0.408175 0.181117
v 0.883292 0.408183 0.225569
v 0.871025 0.408194 0.269472
v 0.856599 0.408211 0.312720
v 0.840054 0.408241 0.355207
v 0.821460 0.408301 0.396844
v 0.801026 0.408487 0.437602
v 0.809737 0.385543 -0.442361
v 0.830538 0.385447 -0.401206
v 0.849382 0.385420 -0.359126
v 0.866135 0.385410 -0.316175
v 0.880741 0.385405 -0.272455
v 0.893162 0.385403 -0.228070
v 0.903366 0.385401 -0.183128
v 0.911329 0.385400 -0.137739
v 0.917031 0.385400 -0.092013
v 0.920457 0.385399 -0.046063
v 0.921600 0.385399 -0.000000
v 0.920457 0.385399 0.046063
v 0.917031 0.385400 0.092013
v 0.911329 0.385400 0.137739
v 0.903366 0.385401 0.183128
v 0.893162 0.385403 0.228070
v 0.880741 0.385405 0.272455
v 0.866135 0.385410 0.316175
v 0.849382 0.385420 0.359126
v 0.830538 0.385447 0.401206
v 0.809737 0.385543 0.442361
v 0.817941 0.362358 -0.446843
v 0.839252 0.362358 -0.405405
v 0.858465 0.362358 -0.362953
v 0.875532 0.362358 -0.319594
v 0.890411 0.362358 -0.275436
v 0.903064 0.362358 -0.230590
v 0.913460 0.362358 -0.185168
v 0.921573 0.362358 -0.139282
v 0.927383 0.362358 -0.093049
v 0.930874 0.362358 -0.046583
v 0.932039 0.362358 0.000000
v 0.930874 0.362358 0.046583
v 0.927383 0.362358 0.093049
v 0.921573 0.362358 0.139282
v 0.913460 0.362358 0.185168
v 0.903064 0.362358 0.230590
v 0.890411 0.362358 0.275436
v 0.875532 0.362358 0.319594
v 0.858465 0.362358 0.362953
v 0.839252 0.362358 0.405405
v 0.817941 0.362358 0.446843
f 1 2 23 22
f 2 3 24 23
f 3 4 25 24
f 4 5 26 25
f 5 6 27 26
f 6 7 28 27
f 7 8 29 28
f 8 9 30 29
f 9 10 31 30
f 10 11 32 31
f 11 12 33 32
f 12 13 34 33
f 13 14 35 34
f 14 15 36 35
f 15 16 37 36
f 16 17 38 37
f 17 18 39 38
f 18 19 40 39
f 19 20 41 40
f 20 21 42 41
f 22 23 44 43
f 23 24 45 44
f 24 25 46 45
f 25 26 47 46
f 26 27 48 47
f 27 28 49 48
f 28 29 50 49
f 29 30 51 50
f 30 31 52 51
f 31 32 53 52
f 32 33 54 53
f 33 34 55 54
f 34 35 56 55
f 35 36 57 56
f 36 37 58 57
f 37 38 59 58
f 38 39 60 59
f 39 40 61 60
f 40 41 62 61
f 41 42 63 62
f 43 44 65 64
f 44 45 66 65
f 45 46 67 66
f 46 47 68 67
f 47 48 69 68
f 48 49 70 69
f 49 50 71 70
f 50 51 72 71
f 51 52 73 72
f 52 53 74 73
f 53 54 75 74
f 54 55 76 75
f 55 56 77 76
f 56 57 78 77
f 57 58 79 78
f 58 59 80 79
f 59 60 81 80
f 60 61 82 81
f 61 62 83 82
f 62 63 84 83
f 64 65 86 85
f 65 66 87 86
f 66 67 88 87
f 67 68 89 88
f 68 69 90 89
f 69 70 91 90
f 70 71 92 91
f 71 72 93 92
f 72 73 94 93
f 73 74 95 94
f 74 75 96 95
f 75 76 97 96
f 76 77 98 97
f 77 78 99 98
f 78 79 100 99
f 79 80 101 100
f 80 81 102 101
f 81 82 103 102
f 82 83 104 103
f 83 84 105 104
f 85 86 107 106
f 86 87 108 107
f 87 88 109 108
f 88 89 110 109
f 89 90 111 110
f 90 91 112 111
f 91 92 113 112
f 92 93 114 113
f 93 94 115 114
f 94 95 116 115
f 95 96 117 116
f 96 97 118 117
f 97 98 119 118
f 98 99 120 119
f 99 100 121 120
f 100 101 122 121
f 101 102 123 122
f 102 103 124 123
f 103 104 125 124
f 104 105 126 125
f 106 107 128 127
f 107 108 129 128
f 108 109 130 129
f 109 110 131 130
f 110 111 132 131
f 111 112 133 132
f 112 113 134 133
f 113 114 135 134
f 114 115 136 135
f 115 116 137 136
f 116 117 138 137
f 117 118 139 138
f 118 119 140 139
f 119 120 141 140
f 120 121 142 141
f 121 122 143 142
f 122 123 144 143
f 123 124 145 144
f 124 125 146 145
f 125 126 147 146
f 127 128 149 148
f 128 129 150 149
f 129 130 151 150
f 130 131 152 151
f 131 132 153 152
f 132 133 154 153
f 133 134 155 154
f 134 135 156 155
f 135 136 157 156
f 136 137 158 157
f 137 138 159 158
f 138 139 160 159
f 139 140 161 160
f 140 141 162 161
f 141 142 163 162
f 142 143 164 163
f 143 144 165 164
f 144 145 166 165
f 145 146 167 166
f 146 147 168 167
f 148 149 170 169
f 149 150 171 170
f 150 151 172 171
f 151 152 173 172
f 152 153 174 173
f 153 154 175 174
f 154 155 176 175
f 155 156 177 176
f 156 157 178 177
f 157 158 179 178
f 158 159 180 179
f 159 160 181 180
f 160 161 182 181
f 161 162 183 182
f 162 163 184 183
f 163 164 185 184
f 164 165 186 185
f 165 166 187 186
f 166 167 188 187
f 167 168 189 188
f 169 170 191 190
f 170 171 192 191
f 171 172 193 192
f 172 173 194 193
f 173 174 195 194
f 174 175 196 195
f 175 176 197 196
f 176 177 198 197
f 177 178 199 198
f 178 179 200 199
f 179 180 201 200
f 180 181 202 201
f 181 182 203 202
f 182 183 204 203
f 183 184 205 204
f 184 185 206 205
f 185 186 207 206
f 186 187 208 207
f 187 188 209 208
f 188 189 210 209
f 190 191 212 211
f 191 192 213 212
f 192 193 214 213
f 193 194 215 214
f 194 195 216 215
f 195 196 217 216
f 196 197 218 217
f 197 198 219 218
f 198 199 220 219
f 199 200 221 220
f 200 201 222 221
f 201 202 223 222
f 202 203 224 223
f 203 204 225 224
f 204 205 226 225
f 205 206 227 226
f 206 207 228 227
f 207 208 229 228
f 208 209 230 229
f 209 210 231 230
f 211 212 233 232
f 212 213 234 233
f 213 214 235 234
f 214 215 236 235
f 215 216 237 236
f 216 217 238 237
f 217 218 239 238
f 218 219 240 239
f 219 220 241 240
f 220 221 242 241
f 221 222 243 242
f 222 223 244 243
f 223 224 245 244
f 224 225 246 245
f 225 226 247 246
f 226 227 248 247
f 227 228 249 248
f 228 229 250 249
f 229 230 251 250
f 230 231 252 251
f 232 233 254 253
f 233 234 255 254
f 234 235 256 255
f 235 236 257 256
f 236 237 258 257
f 237 238 259 258
f 238 239 260 259
f 239 240 261 260
f 240 241 262 261
f 241 242 263 262
f 242 243 264 263
f 243 244 265 264
f 244 245 266 265
f 245 246 267 266
f 246 247 268 267
f 247 248 269 268
f 248 249 270 269
f 249 250 271 270
f 250 251 272 271
f 251 252 273 272
f 253 254 275 274
f 254 255 276 275
f 255 256 277 276
f 256 257 278 277
f 257 258 279 278
f 258 259 280 279
f 259 260 281 280
f 260 261 282 281
f 261 262 283 282
f 262 263 284 283
f 263 264 285 284
f 264 265 286 285
f 265 266 287 286
f 266 267 288 287
f 267 268 289 288
f 268 269 290 289
f 269 270 291 290
f 270 271 292 291
f 271 272 293 292
f 272 273 294 293
f 274 275 296 295
f 275 276 297 296
f 276 277 298 297
f 277 278 299 298
f 278 279 300 299
f 279 280 301 300
f 280 281 302 301
f 281 282 303 302
f 282 283 304 303
f 283 284 305 304
f 284 285 306 305
f 285 286 307 306
f 286 287 308 307
f 287 288 309 308
f 288 289 310 309
f 289 290 311 310
f 290 291 312 311
f 291 292 313 312
f 292 293 314 313
f 293 294 315 314
f 295 296 317 316
f 296 297 318 317
f 297 298 319 318
f 298 299 320 319
f 299 300 321 320
f 300 301 322 321
f 301 302 323 322
f 302 303 324 323
f 303 304 325 324
f 304 305 326 325
f 305 306 327 326
f 306 307 328 327
f 307 308 329 328
f 308 309 330 329
f 309 310 331 330
f 310 311 332 331
f 311 312 333 332
f 312 313 334 333
f 313 314 335 334
f 314 315 336 335
f 316 317 338 337
f 317 318 339 338
f 318 319 340 339
f 319 320 341 340
f 320 321 342 341
f 321 322 343 342
f 322 323 344 343
f 323 324 345 344
f 324 325 346 345
f 325 326 347 346
f 326 327 348 347
f 327 328 349 348
f 328 329 350 349
f 329 330 351 350
f 330 331 352 351
f 331 332 353 352
f 332 333 354 353
f 333 334 355 354
f 334 335 356 355
f 335 336 357 356
f 337 338 359 358
f 338 339 360 359
f 339 340 361 360
f 340 341 362 361
f 341 342 363 362
f 342 343 364 363
f 343 344 365 364
f 344 345 366 365
f 345 346 367 366
f 346 347 368 367
f 347 348 369 368
f 348 349 370 369
f 349 350 371 370
f 350 351 372 371
f 351 352 373 372
f 352 353 374 373
f 353 354 375 374
f 354 355 376 375
f 355 356 377 376
f 356 357 378 377
f 358 359 380 379
f 359 360 381 380
f 360 361 382 381
f 361 362 383 382
f 362 363 384 383
f 363 364 385 384
f 364 365 386 385
f 365 366 387 386
f 366 367 388 387
f 367 368 389 388
f 368 369 390 389
f 369 370 391 390
f 370 371 392 391
f 371 372 393 392
f 372 373 394 393
f 373 374 395 394
f 374 375 396 395
f 375 376 397 396
f 376 377 398 397
f 377 378 399 398
f 379 380 401 400
f 380 381 402 401
f 381 382 403 402
f 382 383 404 403
f 383 384 405 404
f 384 385 406 405
f 385 386 407 406
f 386 387 408 407
f 387 388 409 408
f 388 389 410 409
f 389 390 411 410
f 390 391 412 411
f 391 392 413 412
f 392 393 414 413
f 393 394 415 414
f 394 395 416 415
f 395 396 417 416
f 396 397 418 417
f 397 398 419 418
f 398 399 420 419
f 400 401 422 421
f 401 402 423 422
f 402 403 424 423
f 403 404 425 424
f 404 405 426 425
f 405 406 427 426
f 406 407 428 427
f 407 408 429 428
f 408 409 430 429
f 409 410 431 430
f 410 411 432 431
f 411 412 433 432
f 412 413 434 433
f 413 414 435 434
f 414 415 436 435
f 415 416 437 436
f 416 417 438 437
f 417 418 439 438
f 418 419 440 439
f 419 420 441 440
